<svg xmlns="http://www.w3.org/2000/svg" width="32.063" height="39.455" viewBox="0 0 32.063 39.455"><defs><style>.a{fill:#fff;}</style></defs><path class="a" d="M7805.038-802.707c.589.46.605.546.225,1.2-.308.535-.608,1.074-.929,1.6a.37.37,0,0,0,.109.577,9.65,9.65,0,0,1,3.6,5.933c.086.452.095.917.139,1.377.023.231-.077.338-.312.322-.077-.005-.154,0-.231,0h-18.494c-.553,0-.567,0-.532-.555a9.557,9.557,0,0,1,3.464-6.859c.555-.478.563-.468.2-1.093-.252-.433-.5-.87-.751-1.3-.379-.656-.363-.745.226-1.2h.154a8.813,8.813,0,0,1,.644.787,13.825,13.825,0,0,1,.769,1.336c.171.338.335.378.684.207a9.632,9.632,0,0,1,8.2-.285c.34.138.757.464,1,.365.288-.117.42-.606.632-.926.335-.506.509-1.127,1.053-1.485Zm-11.626,6.168a1.271,1.271,0,0,0,1.292,1.283,1.273,1.273,0,0,0,1.257-1.318,1.283,1.283,0,0,0-1.293-1.292A1.278,1.278,0,0,0,7793.412-796.539Zm9.965,0a1.283,1.283,0,0,0-1.257-1.328,1.277,1.277,0,0,0-1.291,1.291,1.274,1.274,0,0,0,1.255,1.319A1.267,1.267,0,0,0,7803.377-796.538Z" transform="translate(-7782.364 802.707)"/><path class="a" d="M7797.7-642.511h9.346c.5,0,.5,0,.5.515v17.375c0,.5,0,.5-.52.5s-1.029.014-1.544,0c-.323-.012-.418.112-.415.427q.018,2.8,0,5.6a2.467,2.467,0,0,1-1.857,2.568,2.384,2.384,0,0,1-2.934-1.953,9,9,0,0,1-.071-1.075q-.01-2.587,0-5.174c0-.28-.082-.392-.37-.39q-2.145.013-4.287,0c-.327,0-.373.154-.372.429q.013,2.761,0,5.521a2.83,2.83,0,0,1-.5,1.746,2.422,2.422,0,0,1-2.463.91,2.35,2.35,0,0,1-1.828-2.007,8.322,8.322,0,0,1-.066-1c-.007-1.725-.01-3.449,0-5.174,0-.314-.089-.441-.413-.428-.5.019-1,0-1.506,0-.558,0-.558,0-.559-.539q0-8.668,0-17.337c0-.515,0-.516.5-.516Z" transform="translate(-7781.673 654.906)"/><path class="a" d="M7712.839-651.24c0,1.556.008,3.113,0,4.669a2.54,2.54,0,0,1-1.185,2.325,2.388,2.388,0,0,1-3.611-1.712,8.308,8.308,0,0,1-.066-1q-.007-4.438,0-8.875a2.62,2.62,0,0,1,.908-2.2,2.268,2.268,0,0,1,2.387-.389,2.265,2.265,0,0,1,1.5,1.9,8.782,8.782,0,0,1,.069,1.075C7712.845-654.044,7712.839-652.642,7712.839-651.24Z" transform="translate(-7707.971 669.75)"/><path class="a" d="M8064.275-651.219c0,1.557.007,3.113,0,4.669a2.526,2.526,0,0,1-1.1,2.252,2.383,2.383,0,0,1-3.692-1.68,6.913,6.913,0,0,1-.064-.92q-.007-4.476,0-8.953a2.6,2.6,0,0,1,.954-2.217,2.269,2.269,0,0,1,2.361-.344,2.265,2.265,0,0,1,1.478,1.873,8.227,8.227,0,0,1,.071,1.074C8064.279-654.049,8064.275-652.634,8064.275-651.219Z" transform="translate(-8032.214 669.75)"/></svg>