<svg xmlns="http://www.w3.org/2000/svg" width="79.863" height="94.073" viewBox="0 0 79.863 94.073"><defs><style>.a{fill:#00c1de;}</style></defs><path class="a" d="M66.311,142.462c-.4-.124-.792-.257-1.192-.365a4.932,4.932,0,0,1-3.317-2.554,3.175,3.175,0,0,0-2.939-1.854c-3.668-.078-7.337-.075-11.005-.059-1.407.01-2.815.088-4.213.238a10.3,10.3,0,0,0-5.679,2.342,7.183,7.183,0,0,1-7.431,1.5c-2.769-.958-5.535-1.965-8.366-2.707-3.157-.824-6.386-1.372-9.585-2.043l-.091-.016c-3.059-.779-3.789-2.154-2.72-5.125.01-.029.02-.059.033-.088a8.6,8.6,0,0,0,.368-7.014,7.949,7.949,0,0,1-.319-2.079A1.71,1.71,0,0,1,11.4,120.6a26.423,26.423,0,0,1,3-.371,5.188,5.188,0,0,0,4.985-4.5,3.988,3.988,0,0,1-2.544,5.363,11.414,11.414,0,0,1-3.515.4c-2.4-.016-3,.74-2.18,3.014a15.678,15.678,0,0,0,.762,1.766A4.74,4.74,0,0,1,12,130.682a23.2,23.2,0,0,0-.971,2.271c-.41,1.176-.14,1.824,1.049,2.209a27.027,27.027,0,0,0,3.818.951,114.933,114.933,0,0,1,13.762,3.47,8.686,8.686,0,0,0,5.323.147,4.322,4.322,0,0,0,3.147-5.017,14.672,14.672,0,0,0-2.287-6.138c-2.587-3.9-5.2-7.777-7.894-11.6a15.878,15.878,0,0,0-2.727-2.828c-1.248-1.065-2.649-1.649-4.271-.635-.573.358-.661-.182-.74-.564a7.812,7.812,0,0,1,.74-5.7c2.092-3.47,3.209-7.321,4.685-11.031a28.709,28.709,0,0,1,3.939-6.894c2.079-2.711,3.893-5.626,5.793-8.474a4.735,4.735,0,0,0,.573-3.072c-.29-4.731-.557-9.464-.658-14.2a28.181,28.181,0,0,1,.547-6.457,10.933,10.933,0,0,1,9.617-8.562c4.476-.5,8.832.065,12.445,2.935a16.394,16.394,0,0,1,6.171,13.54c-.036,6.024.948,11.758,4,17a25.791,25.791,0,0,0,3.5,4.815c4.2,4.4,6.558,9.748,8.337,15.423a22.684,22.684,0,0,1,1.28,9.112,8.688,8.688,0,0,1-.57,2.483,5.15,5.15,0,0,1-1.228,1.368c-.342.342-.762.609-1.075.971-.743.854-1.365,1.821-2.173,2.6a6.257,6.257,0,0,1-5.786,1.57c-1.482-.28-2.228-1.394-2.88-2.606a14.2,14.2,0,0,0-1.131-1.978c-.876-1.137-1.837-1.013-2.473.283a6.708,6.708,0,0,0-.544,4.747,30.474,30.474,0,0,1,.378,12.826,7.676,7.676,0,0,0,.029,2.1,4.527,4.527,0,0,0,5.946,4.024,8.22,8.22,0,0,0,3.147-1.59,29.921,29.921,0,0,1,10.9-6.047,14.287,14.287,0,0,0,3.5-1.763c1.274-.841,1.293-1.909.055-2.815A13.79,13.79,0,0,0,84.282,126c-2.841-1.134-4.561-5.809-3.066-8.487a1.231,1.231,0,0,1,.192-.209c.261,1.183.476,2.359.782,3.509a7.211,7.211,0,0,0,3.594,4.441,14.916,14.916,0,0,1,2.486,1.7,2.36,2.36,0,0,1,.02,3.7,17.643,17.643,0,0,1-5.587,3.453,34.7,34.7,0,0,0-9.526,6.454,7.917,7.917,0,0,1-3.743,1.9Zm.264-52.394-.228.108c.681,1.153,1.4,2.287,2.033,3.466,1.785,3.343,3.258,6.812,3.294,10.673a17.516,17.516,0,0,1-.619,4.415c-.336,1.326-1.645,1.938-3.157,1.763-.945-.108-1.332-.645-1.541-2.17-.042-.3-.059-.613-.072-.915-.15-3.176-.14-6.363-1.082-9.451-.743-2.437-1.466-4.871-3.365-6.728a1.623,1.623,0,0,1-.319-.74A23.02,23.02,0,0,0,57.5,81.334a5.1,5.1,0,0,1-.8-4.955,11.18,11.18,0,0,0,.342-1.424c.27-1.479-.117-2.062-1.521-2.57s-2.746-1.186-4.17-1.609c-1.362-.4-1.525-1.362-1.45-2.483a7.286,7.286,0,0,1,.381-1.779,2.1,2.1,0,0,1,2.017-1.587,2.413,2.413,0,0,1,2.525,1.453,3.88,3.88,0,0,1,.111,3.532c-.254.512-.218.964.407,1.179a1.367,1.367,0,0,0,1.8-1.039,10.2,10.2,0,0,0-.707-5.744,4.379,4.379,0,0,0-8.272,1.1,21.481,21.481,0,0,0-.088,2.828c-.007.378,0,.756,0,.987a24.572,24.572,0,0,0-3.036-.2c-.857.039-1.134-.186-1.111-1.052a7,7,0,0,0-1.349-4.753,2.224,2.224,0,0,0-3.825.251,7.321,7.321,0,0,0-.166,7.2c.153.31.586.727.818.687.352-.062.639-.479,1.02-.8A3.33,3.33,0,0,1,39,65.907a1.769,1.769,0,0,1,3.036.036,13.236,13.236,0,0,1,.652,3.075.618.618,0,0,1-.2.482c-1.189,1.036-2.414,2.036-3.594,3.085a5.627,5.627,0,0,0-1.033,1.238c-.365.586-.192,1.069.4,1.476a5.883,5.883,0,0,1,1.5,1.326A3.956,3.956,0,0,0,43.186,78.2a21.791,21.791,0,0,0,7.343-1.414,6.814,6.814,0,0,0,3.782-2.1c.13-.169.626-.062.955-.081a4.858,4.858,0,0,1-.068,1.049c-.042.147-.336.241-.528.319-2.18.883-4.366,1.756-6.545,2.639a10.5,10.5,0,0,1-5.281.854c-.639-.075-1.284-.1-2.092-.169a4.653,4.653,0,0,0,3.238,2.176c2.157.345,4.024-.5,5.861-1.437,1.062-.541,2.079-1.176,3.147-1.7.583-.287,1.394-.948,1.834-.078s-.629,1.007-1.14,1.336c-1.7,1.085-3.424,2.121-5.131,3.19-.906.57-1.759,1.222-2.691,1.746-1.743.987-2.815.818-4.128-.7-.837-.968-1.554-2.043-2.346-3.056-.29-.375-.639-.707-.945-1.036a32.721,32.721,0,0,1-.994,3.4C37,84.269,36.335,85.311,35.781,86.4c-1,1.968-1.619,3.978-.492,6.125A11.345,11.345,0,0,0,32.3,96.89c-1.821,3.688-3.17,7.483-2.779,11.709a8.582,8.582,0,0,1-.241,2.636c-.228,1-.8,1.16-1.476.417a7.332,7.332,0,0,1-1.352-2.043,9.956,9.956,0,0,1-.472-5.679c.059-.332.075-.674.111-1.01a5.064,5.064,0,0,0-1.117,3.952,9.312,9.312,0,0,0,2.082,5.845,39.088,39.088,0,0,0,3.678,3.313c2.694,2.261,5.418,4.489,8.142,6.721a3.022,3.022,0,0,1,1.137,3.183,3.07,3.07,0,0,1-2.365,2.43c-.189.049-.368.137-.681.257,1.968,2.593,3.753,5.187,3.3,8.738a2.079,2.079,0,0,0,1.362-2.15,7.231,7.231,0,0,0-.681-2.167A24.131,24.131,0,0,0,39.57,130.8c.837-.811,1.173-.746,2.039-.153a7,7,0,0,0,2.883,1.466c5.92.609,11.637.433,15.423-5.294.215-.326.713-.466,1.078-.694a4.6,4.6,0,0,1,.541,1.186,10.91,10.91,0,0,1-.642,4.776,26.994,26.994,0,0,0-.811,3c-.153.915.192,1.209,1.238,1.3.235-1.186.479-2.382.707-3.577a23.364,23.364,0,0,0,.573-8.282,33.892,33.892,0,0,1-.482-5.653c.013-3.414,1.3-4.695,3.822-4.845a3.069,3.069,0,0,1,2.561-2.952,9.423,9.423,0,0,1,3.062-.241,17.591,17.591,0,0,1,3.01.808l.127-.173-2.707-1.753C73.537,102.194,71.921,95.6,66.575,90.068Zm-6.3-13.586c0,.433-.189,1.052.039,1.407a11.993,11.993,0,0,0,1.886,2.18.807.807,0,0,0,1.378-.189,1.218,1.218,0,0,0-.362-1.684C62.3,77.662,61.382,77.124,60.274,76.482ZM57.183,55.635l.065-.306c-.678-.489-1.323-1.033-2.039-1.45-.541-.316-.915.033-1.023.713-.081.551-.3,1.078-.41,1.622a3.472,3.472,0,0,0,0,.736c.212-.072.43-.13.635-.212.655-.267,1.306-.547,1.961-.814C56.635,55.817,56.912,55.729,57.183,55.635ZM28.255,95.9c1.271-.329,2.092-1.945,1.482-2.8Zm24.532-29.94L54.123,68c.5-.508.218-1-.078-1.433S53.381,65.7,52.788,65.963ZM41.355,68.673l.342-.081a2.253,2.253,0,0,0-.414-2.16c-.1-.124-.4-.085-.609-.121.046.176.081.355.14.528.111.306.254.6.345.912S41.294,68.367,41.355,68.673Z" transform="translate(-9.31 -48.389)"/></svg>