<svg xmlns="http://www.w3.org/2000/svg" width="37.24" height="43.866" viewBox="0 0 37.24 43.866"><defs><style>.a{fill:#fff;}</style></defs><path class="a" d="M35.89,92.255c-.185-.058-.369-.12-.556-.17a2.3,2.3,0,0,1-1.547-1.191,1.48,1.48,0,0,0-1.37-.864C30.706,89.993,29,89.995,27.285,90c-.656,0-1.313.041-1.964.111a4.8,4.8,0,0,0-2.648,1.092,3.349,3.349,0,0,1-3.465.7c-1.291-.447-2.581-.916-3.9-1.262-1.472-.384-2.978-.64-4.469-.953l-.043-.008c-1.427-.363-1.767-1-1.269-2.39,0-.014.009-.027.015-.041a4.008,4.008,0,0,0,.172-3.271,3.707,3.707,0,0,1-.149-.969.8.8,0,0,1,.72-.946,12.32,12.32,0,0,1,1.4-.173,2.419,2.419,0,0,0,2.324-2.1,1.86,1.86,0,0,1-1.186,2.5,5.322,5.322,0,0,1-1.639.187c-1.121-.008-1.4.345-1.016,1.405a7.311,7.311,0,0,0,.355.823,2.21,2.21,0,0,1,.044,2.055,10.818,10.818,0,0,0-.453,1.059c-.191.548-.065.851.489,1.03a12.6,12.6,0,0,0,1.78.444A53.591,53.591,0,0,1,18.8,90.912a4.05,4.05,0,0,0,2.482.068,2.015,2.015,0,0,0,1.468-2.34,6.842,6.842,0,0,0-1.066-2.862c-1.206-1.817-2.426-3.626-3.681-5.41a7.4,7.4,0,0,0-1.272-1.319,1.557,1.557,0,0,0-1.992-.3c-.267.167-.308-.085-.345-.263a3.643,3.643,0,0,1,.345-2.659,33.836,33.836,0,0,0,2.185-5.144,13.387,13.387,0,0,1,1.837-3.215c.969-1.264,1.815-2.624,2.7-3.951a2.208,2.208,0,0,0,.267-1.433c-.135-2.206-.26-4.413-.307-6.622a13.141,13.141,0,0,1,.255-3.011,5.1,5.1,0,0,1,4.485-3.992,7.332,7.332,0,0,1,8.681,7.682,15.17,15.17,0,0,0,1.866,7.929,12.026,12.026,0,0,0,1.63,2.245,17.7,17.7,0,0,1,3.888,7.192,10.578,10.578,0,0,1,.6,4.249,4.051,4.051,0,0,1-.266,1.158,2.4,2.4,0,0,1-.573.638c-.16.16-.355.284-.5.453-.346.4-.637.849-1.013,1.211a2.918,2.918,0,0,1-2.7.732,1.988,1.988,0,0,1-1.343-1.215,6.62,6.62,0,0,0-.527-.922c-.409-.53-.857-.472-1.153.132a3.128,3.128,0,0,0-.254,2.213,14.21,14.21,0,0,1,.176,5.981,3.579,3.579,0,0,0,.014.978A2.111,2.111,0,0,0,37.454,91a3.833,3.833,0,0,0,1.468-.741,13.952,13.952,0,0,1,5.085-2.82,6.662,6.662,0,0,0,1.632-.822c.594-.392.6-.89.026-1.313a6.431,6.431,0,0,0-1.395-.725,3.152,3.152,0,0,1-1.43-3.957.574.574,0,0,1,.09-.1c.122.551.222,1.1.365,1.636A3.363,3.363,0,0,0,44.97,84.23a6.954,6.954,0,0,1,1.159.795,1.1,1.1,0,0,1,.009,1.724,8.227,8.227,0,0,1-2.605,1.61,16.182,16.182,0,0,0-4.442,3.01,3.692,3.692,0,0,1-1.746.887Zm.123-24.431-.106.05c.317.538.655,1.066.948,1.616a10.788,10.788,0,0,1,1.536,4.977,8.168,8.168,0,0,1-.289,2.059,1.24,1.24,0,0,1-1.472.822c-.441-.05-.621-.3-.719-1.012-.02-.141-.027-.286-.033-.427a17.729,17.729,0,0,0-.5-4.407A6.911,6.911,0,0,0,33.8,68.365a.757.757,0,0,1-.149-.345,10.734,10.734,0,0,0-1.876-4.269A2.38,2.38,0,0,1,31.4,61.44a5.214,5.214,0,0,0,.16-.664c.126-.69-.055-.962-.709-1.2s-1.281-.553-1.945-.75c-.635-.188-.711-.635-.676-1.158a3.4,3.4,0,0,1,.178-.829.98.98,0,0,1,.94-.74,1.125,1.125,0,0,1,1.177.678,1.809,1.809,0,0,1,.052,1.647c-.118.239-.1.45.19.55a.638.638,0,0,0,.839-.485,4.755,4.755,0,0,0-.33-2.678,2.042,2.042,0,0,0-3.857.512,10.017,10.017,0,0,0-.041,1.319c0,.176,0,.352,0,.46a11.457,11.457,0,0,0-1.416-.094c-.4.018-.529-.087-.518-.491a3.263,3.263,0,0,0-.629-2.216,1.037,1.037,0,0,0-1.784.117,3.414,3.414,0,0,0-.077,3.356c.071.144.273.339.381.321.164-.029.3-.223.476-.374a1.553,1.553,0,0,1-.661-2.163.825.825,0,0,1,1.416.017,6.172,6.172,0,0,1,.3,1.434.288.288,0,0,1-.094.225c-.555.483-1.126.949-1.676,1.439a2.624,2.624,0,0,0-.482.577c-.17.273-.09.5.188.688a2.743,2.743,0,0,1,.7.618,1.845,1.845,0,0,0,1.6.735,10.161,10.161,0,0,0,3.424-.659,3.177,3.177,0,0,0,1.764-.978c.061-.079.292-.029.445-.038a2.265,2.265,0,0,1-.032.489c-.02.068-.156.112-.246.149-1.016.412-2.036.819-3.052,1.231a4.9,4.9,0,0,1-2.463.4c-.3-.035-.6-.049-.975-.079a2.17,2.17,0,0,0,1.51,1.015,4.415,4.415,0,0,0,2.733-.67c.5-.252.969-.548,1.468-.793.272-.134.65-.442.855-.036s-.293.469-.532.623c-.791.506-1.6.989-2.393,1.487-.422.266-.82.57-1.255.814a1.3,1.3,0,0,1-1.925-.325c-.39-.451-.725-.953-1.094-1.425-.135-.175-.3-.33-.441-.483a15.257,15.257,0,0,1-.463,1.586c-.214.524-.524,1.01-.782,1.519a2.932,2.932,0,0,0-.229,2.856,5.29,5.29,0,0,0-1.393,2.034,10.088,10.088,0,0,0-1.3,5.46,4,4,0,0,1-.112,1.229c-.106.466-.374.541-.688.194a3.419,3.419,0,0,1-.63-.953,4.642,4.642,0,0,1-.22-2.648c.027-.155.035-.314.052-.471a2.361,2.361,0,0,0-.521,1.843,4.342,4.342,0,0,0,.971,2.725A18.226,18.226,0,0,0,19.3,79.93c1.256,1.054,2.526,2.093,3.8,3.134a1.409,1.409,0,0,1,.53,1.484,1.431,1.431,0,0,1-1.1,1.133c-.088.023-.172.064-.318.12.918,1.209,1.75,2.419,1.54,4.074a.969.969,0,0,0,.635-1,3.372,3.372,0,0,0-.318-1.01,11.25,11.25,0,0,0-.644-1.047c.39-.378.547-.348.951-.071a3.263,3.263,0,0,0,1.344.684c2.76.284,5.426.2,7.192-2.469.1-.152.333-.217.5-.324a2.144,2.144,0,0,1,.252.553,5.087,5.087,0,0,1-.3,2.227,12.588,12.588,0,0,0-.378,1.4c-.071.427.09.564.577.606.109-.553.223-1.111.33-1.668a10.894,10.894,0,0,0,.267-3.862,15.8,15.8,0,0,1-.225-2.636c.006-1.592.608-2.189,1.782-2.259A1.431,1.431,0,0,1,36.91,77.62a4.394,4.394,0,0,1,1.428-.112,8.2,8.2,0,0,1,1.4.377L39.8,77.8l-1.262-.817A9.631,9.631,0,0,0,36.013,67.824Zm-2.938-6.335c0,.2-.088.491.018.656a5.592,5.592,0,0,0,.88,1.016.376.376,0,0,0,.643-.088.568.568,0,0,0-.169-.785C34.018,62.039,33.591,61.788,33.075,61.489Zm-1.442-9.721.03-.143c-.316-.228-.617-.482-.951-.676-.252-.147-.427.015-.477.333-.038.257-.138.5-.191.757a1.619,1.619,0,0,0,0,.343c.1-.033.2-.061.3-.1.305-.125.609-.255.915-.38C31.378,51.853,31.507,51.812,31.633,51.768ZM18.144,70.545c.592-.153.975-.907.691-1.3ZM29.583,56.584l.623.951c.234-.237.1-.465-.036-.668S29.86,56.459,29.583,56.584Zm-5.331,1.264.16-.038a1.051,1.051,0,0,0-.193-1.007c-.047-.058-.187-.039-.284-.056.021.082.038.166.065.246.052.143.118.28.161.425S24.224,57.7,24.253,57.847Z" transform="translate(-9.31 -48.389)"/></svg>