<svg xmlns="http://www.w3.org/2000/svg" width="30.788" height="37.736" viewBox="0 0 30.788 37.736"><defs><style>.a{fill:#fff;}</style></defs><path class="a" d="M35.839,67.837a9.053,9.053,0,0,1,4.124-7.327,9.458,9.458,0,0,0-6.874-3.9c-2.9-.312-5.8,1.715-7.179,1.715-1.527,0-3.819-1.715-6.263-1.715a9.052,9.052,0,0,0-7.79,4.833C8.5,67.369,10.94,76.1,14.148,80.933c1.68,2.339,3.513,4.989,5.957,4.833s3.36-1.559,6.263-1.559,3.666,1.559,6.263,1.559,4.277-2.339,5.8-4.677a18.046,18.046,0,0,0,2.6-5.457C40.879,75.476,35.839,73.605,35.839,67.837Z" transform="translate(-10.244 -48.037)"/><path class="a" d="M25.458,56.315A8.86,8.86,0,0,0,27.315,50.6a7.651,7.651,0,0,0-5.143,2.715,7.225,7.225,0,0,0-1.857,5.429A6.786,6.786,0,0,0,25.458,56.315Z" transform="translate(-4.636 -50.6)"/></svg>