<svg xmlns="http://www.w3.org/2000/svg" width="77.534" height="95.03" viewBox="0 0 77.534 95.03"><defs><style>.a{fill:#00c1de;}</style></defs><g transform="translate(0 0)"><path class="a" d="M74.7,84.356c0-11.925,10-17.695,10.386-18.079-5.77-8.078-14.233-9.232-17.31-9.617-7.309-.769-14.617,4.231-18.08,4.231-3.847,0-9.617-4.231-15.771-4.231-8.078,0-15.387,4.616-19.618,11.925C5.843,83.2,12,104.743,20.076,116.668c4.231,5.77,8.847,12.309,15,11.925s8.463-3.847,15.771-3.847,9.232,3.847,15.771,3.847,10.771-5.77,14.617-11.54a44.093,44.093,0,0,0,6.539-13.463C87.393,103.2,74.7,98.589,74.7,84.356Z" transform="translate(-10.244 -33.579)"/><path class="a" d="M34.246,65.987c3.077-4.231,5.385-9.617,5-15.387-4.616.385-10.771,3.077-13.848,7.309-3.077,3.462-5.77,9.232-5,14.617C25.4,72.911,30.784,69.834,34.246,65.987Z" transform="translate(18.284 -50.6)"/></g></svg>