<svg xmlns="http://www.w3.org/2000/svg" width="103.332" height="103.332" viewBox="0 0 103.332 103.332"><defs><style>.a{fill:none;stroke:#031828;stroke-miterlimit:10;stroke-width:3px;}.b{fill:#00c1de;}</style></defs><g transform="translate(-495.983 -255.5)"><circle class="a" cx="50.166" cy="50.166" r="50.166" transform="translate(497.483 257)"/><g transform="translate(167.003 -9.999)"><path class="b" d="M349.987,323.3a2.944,2.944,0,0,1,.892-2.164l4.329-4.33a3.075,3.075,0,0,1,4.329,0L368.9,326.2l32.858-33.186a3.075,3.075,0,0,1,4.329,0l4.33,4.329a3.076,3.076,0,0,1,0,4.33L375.39,336.989l-4.329,4.329a3.072,3.072,0,0,1-4.329,0l-4.33-4.329-11.523-11.524A2.945,2.945,0,0,1,349.987,323.3Z"/></g></g></svg>