<svg xmlns="http://www.w3.org/2000/svg" width="98.97" height="220.162" viewBox="0 0 98.97 220.162"><defs><style>.a{fill:#031828;}.b{fill:#fff;}.c{fill:#fa2b38;}</style></defs><g transform="translate(-137.526 -75.846)"><g transform="translate(137.526 75.846)"><g transform="translate(0)"><path class="a" d="M2339.966,2588.412l-.473,157.868a3.532,3.532,0,0,1-1.645,3.319,2.982,2.982,0,0,1-1.478.367c-.035,0-.075-.031-.11-.031l-13.012,8.167a2.94,2.94,0,0,1-1.256,1.454,2.979,2.979,0,0,1-1.479.367,5.013,5.013,0,0,1-2.389-.692l-72.105-39.676a10.48,10.48,0,0,1-5.023-8.3l.464-157.867a3.533,3.533,0,0,1,1.645-3.319c.123-.07.289-.033.42-.083l14.636-9.192a2.76,2.76,0,0,1,1.16-.848,4.3,4.3,0,0,1,3.509.492l72.1,39.675A10.485,10.485,0,0,1,2339.966,2588.412Zm-27.311,18.537-59.828-32.913-.35,115.365,59.837,32.921Z" transform="translate(-2240.996 -2539.76)"/><path class="b" d="M2241,2711.257a10.48,10.48,0,0,0,5.023,8.3l72.105,39.676a5.013,5.013,0,0,0,2.389.692,2.979,2.979,0,0,0,1.479-.367,2.94,2.94,0,0,0,1.256-1.454l13.012-8.167c.035,0,.074.031.11.031a2.982,2.982,0,0,0,1.478-.367,3.531,3.531,0,0,0,1.645-3.319l.473-157.868a10.483,10.483,0,0,0-5.031-8.3l-72.106-39.676a4.3,4.3,0,0,0-3.509-.492,2.76,2.76,0,0,0-1.16.848l-14.636,9.192c-.131.05-.3.013-.42.083a3.533,3.533,0,0,0-1.645,3.319Zm79.342,45.546a1.868,1.868,0,0,1-1.75-.2l-72.115-39.676a6.035,6.035,0,0,1-2.861-4.719l.472-157.868a1.634,1.634,0,0,1,.674-1.518,1.268,1.268,0,0,1,.595-.142,2.552,2.552,0,0,1,1.164.342l65.407,35.99.075.109.056-.036,6.568,3.614a6.036,6.036,0,0,1,2.862,4.719l-.464,157.868A1.639,1.639,0,0,1,2320.338,2756.8Zm3.3-2.062.455-151.643,13.222-8.294-.45,150.525a1.925,1.925,0,0,1-.42,1.317l-.372.287Zm13.686-163.06-13.222,8.306,0-1.619a10.5,10.5,0,0,0-5.023-8.3l-4.581-2.521,13.406-8.422,6.568,3.614a6.082,6.082,0,0,1,2.861,4.72Zm-76.152-49.385h0l.008.428h.035a2.4,2.4,0,0,1,1.146.343l62.9,34.605-13.406,8.422-64.431-35.446,13.362-8.384Z" transform="translate(-2240.996 -2539.76)"/><path class="b" d="M2319.613,2741.7l.359-120.627-.219-.117-65.044-35.79v.743l-.359,120.626.219.117,65.044,35.79Zm-2.7-3.752-59.837-32.921.35-115.365,59.828,32.913Z" transform="translate(-2245.591 -2555.383)"/><path class="b" d="M2276.491,2788.938a3.222,3.222,0,0,0-1.488,3.01,9.427,9.427,0,0,0,4.533,7.48l28.588,15.727a4.508,4.508,0,0,0,2.161.626,2.783,2.783,0,0,0,1.356-.334,3.22,3.22,0,0,0,1.488-3.01,9.437,9.437,0,0,0-4.524-7.472l-28.588-15.735A3.653,3.653,0,0,0,2276.491,2788.938Zm1.759,2.885a.863.863,0,0,1,.42-.091,1.86,1.86,0,0,1,.884.258l28.589,15.727a4.787,4.787,0,0,1,2.249,3.7,1.258,1.258,0,0,1-.508,1.142,1.306,1.306,0,0,1-1.3-.158l-28.6-15.735a4.785,4.785,0,0,1-2.249-3.7A1.238,1.238,0,0,1,2278.25,2791.822Z" transform="translate(-2252.698 -2625.387)"/></g><path class="b" d="M2319.613,2741.7l.359-120.627-.219-.117-65.044-35.79v.743l-.359,120.626.219.117,65.044,35.79Zm-2.7-3.752-59.837-32.921.35-115.365,59.828,32.913Z" transform="translate(-2245.591 -2555.383)"/><path class="c" d="M2318.03,2740.3l-59.837-32.921.35-115.365,59.828,32.913Z" transform="translate(-2246.913 -2557.741)"/><g transform="translate(19.917 68.847)"><path class="b" d="M2271.472,2644.724l43.2,23.765-.11,37.051-21.644,3.358-21.551-27.123.081-27.2,26.277,14.457c3.326,2.2,5.99,6.787,5.979,10.528a4.362,4.362,0,0,1-1.882,4.011,11.992,11.992,0,0,1,1.955,6.022c-.011,3.879-2.74,6.137-6.126,4.657l-13.681-7.518.088-15,13.2,7.26.21.1c1.017.213,1.718-.4,1.722-1.622a4.665,4.665,0,0,0-1.82-3.377l-21.5-11.827-.059,19.448,17,21.2,17.314-2.316.088-29.694-38.756-21.323Zm25.7,44.256c1.062.222,1.834-.173,1.838-1.456a4.885,4.885,0,0,0-1.9-3.531,1.366,1.366,0,0,0-.148-.115l-8.651-4.75-.015,4.994,8.751,4.814.122.044" transform="translate(-2271.362 -2644.724)"/></g></g></g></svg>