<?xml version="1.0" encoding="utf-8"?>
<!-- Generator: Adobe Illustrator 21.0.0, SVG Export Plug-In . SVG Version: 6.00 Build 0)  -->
<svg version="1.1" id="Réteg_1" xmlns="http://www.w3.org/2000/svg" xmlns:xlink="http://www.w3.org/1999/xlink" x="0px" y="0px"
	 viewBox="0 0 1520.1 960.4" style="enable-background:new 0 0 1520.1 960.4;" xml:space="preserve">
<style type="text/css">
	.st0{fill:#00C1DE;}
	.st1{clip-path:url(#SVGID_2_);}
	.st2{opacity:0.8;}
	.st3{fill:none;stroke:#FFFFFF;stroke-width:1.5;stroke-miterlimit:10;}
	.st4{opacity:0.5;}
	.st5{fill:#FFFFFF;}
	.st6{fill:#031828;}
	.st7{fill:#FA2B38;}
</style>
<g transform="translate(-3214.902 -3306.374)">
	<path class="st0" d="M4391.1,3306.4H3284.4c-6.8,127.7-5.8,262.8,61.2,373.5c71.7,118.6,212.3,190.5,355.2,204.4
		c47.4,4.6,96,3.6,141.6,16.8c85.9,24.8,147.4,95.2,202.4,162.8c40.8,50.1,81.9,101.6,137,137.2c61.4,39.6,138.4,65.6,209.4,65.6
		h344v-960.4H4391.1z"/>
	<g transform="translate(3281.625 3306.374)">
		<g>
			<defs>
				<path id="SVGID_1_" d="M1109.5,0H2.7C-4.1,127.7-3,262.8,63.9,373.5C135.7,492.1,276.2,564,419.1,577.9
					c47.4,4.6,96,3.6,141.6,16.8c85.9,24.8,147.4,95.2,202.4,162.8c40.8,50.1,81.9,101.6,137,137.2c61.4,39.6,138.4,65.6,209.4,65.6
					h344V0H1109.5z"/>
			</defs>
			<clipPath id="SVGID_2_">
				<use xlink:href="#SVGID_1_"  style="overflow:visible;"/>
			</clipPath>
			<g class="st1">
				<g transform="translate(-38.691 -77.225)" class="st2">
					<g transform="translate(931.22 920.338)">
						<path class="st3" d="M85.9,66H0v114.8h189.3v-49.3h-34.5v-16.1h137.8V0H207v49.3h34.3v16.8H103.2v65.4H51.5V115H86V66L85.9,66
							z"/>
						<path class="st3" d="M137.7,99.1h138.1V16.7h-52.1v16.3h34.8v49.2H120.3v65.5H34.4v-49H69V82.3H17.1v82h155.2v-16.1h-34.7
							L137.7,99.1z"/>
					</g>
					<g transform="translate(931.22 788.517)">
						<path class="st3" d="M85.9,66H0v114.8h189.3v-49.3h-34.5v-16.1h137.8V0H207v49.3h34.3v16.8H103.2v65.4H51.5V115H86V66L85.9,66
							z"/>
						<path class="st3" d="M137.7,99.1h138.1V16.7h-52.1v16.3h34.8v49.2H120.3v65.5H34.4v-49H69V82.3H17.1v82h155.2v-16.1h-34.7
							L137.7,99.1z"/>
					</g>
					<g transform="translate(931.395 656.746)">
						<path class="st3" d="M85.9,66H0v114.8h189.3v-49.3h-34.5v-16.1h137.8V0H207v49.3h34.3v16.8H103.2v65.4H51.5V115H86V66L85.9,66
							z"/>
						<path class="st3" d="M137.7,99.1h138.1V16.7h-52.1v16.3h34.8v49.2H120.3v65.5H34.4v-49H69V82.3H17.1v82h155.2v-16.1h-34.7
							L137.7,99.1z"/>
					</g>
					<g transform="translate(931.395 524.925)">
						<path class="st3" d="M85.9,66H0v114.8h189.3v-49.3h-34.5v-16.1h137.8V0H207v49.3h34.3v16.8H103.2v65.4H51.5V115H86V66L85.9,66
							z"/>
						<path class="st3" d="M137.7,99.1h138.1V16.7h-52.1v16.3h34.8v49.2H120.3v65.5H34.4v-49H69V82.3H17.1v82h155.2v-16.1h-34.7
							L137.7,99.1z"/>
					</g>
					<g transform="translate(931.395 394.702)">
						<path class="st3" d="M85.9,66H0v114.8h189.3v-49.3h-34.5v-16.1h137.8V0H207v49.3h34.3v16.8H103.2v65.4H51.5V115H86V66L85.9,66
							z"/>
						<path class="st3" d="M137.7,99.1h138.1V16.7h-52.1v16.3h34.8v49.2H120.3v65.5H34.4v-49H69V82.3H17.1v82h155.2v-16.1h-34.7
							L137.7,99.1z"/>
					</g>
					<g transform="translate(931.395 262.882)">
						<path class="st3" d="M85.9,66H0v114.8h189.3v-49.3h-34.5v-16.1h137.8V0H207v49.3h34.3v16.8H103.2v65.4H51.5V115H86V66L85.9,66
							z"/>
						<path class="st3" d="M137.7,99.1h138.1V16.7h-52.1v16.3h34.8v49.2H120.3v65.5H34.4v-49H69V82.3H17.1v82h155.2v-16.1h-34.7
							L137.7,99.1z"/>
					</g>
					<g transform="translate(931.395 131.821)">
						<path class="st3" d="M85.9,66H0v114.8h189.3v-49.3h-34.5v-16.1h137.8V0H207v49.3h34.3v16.8H103.2v65.4H51.5V115H86V66H85.9z"
							/>
						<path class="st3" d="M137.7,99.1h138.1V16.7h-52.1v16.3h34.8v49.2H120.3v65.5H34.4v-49H69V82.3H17.1v82h155.2v-16.1h-34.7
							L137.7,99.1z"/>
					</g>
					<g transform="translate(931.395)">
						<path class="st3" d="M85.9,66H0v114.8h189.3v-49.3h-34.5v-16.1h137.8V0H207v49.3h34.3v16.8H103.2v65.4H51.5V115H86V66L85.9,66
							z"/>
						<path class="st3" d="M137.7,99.1h138.1V16.7h-52.1v16.3h34.8v49.2H120.3v65.5H34.4v-49H69V82.3H17.1v82h155.2v-16.1h-34.7
							L137.7,99.1z"/>
					</g>
					<g transform="translate(620.687 922.408)">
						<path class="st3" d="M85.9,66H0v114.8h189.3v-49.3h-34.5v-16.1h137.8V0H207v49.3h34.3v16.8H103.2v65.4H51.5V115H86V66L85.9,66
							z"/>
						<path class="st3" d="M137.7,99.1h138.1V16.7h-52.1v16.3h34.8v49.2H120.3v65.5H34.4v-49H69V82.3H17.1v82h155.2v-16.1h-34.7
							L137.7,99.1z"/>
					</g>
					<g transform="translate(620.687 790.587)">
						<path class="st3" d="M85.9,66H0v114.8h189.3v-49.3h-34.5v-16.1h137.8V0H207v49.3h34.3v16.8H103.2v65.4H51.5V115H86V66L85.9,66
							z"/>
						<path class="st3" d="M137.7,99.1h138.1V16.7h-52.1v16.3h34.8v49.2H120.3v65.5H34.4v-49H69V82.3H17.1v82h155.2v-16.1h-34.7
							L137.7,99.1z"/>
					</g>
					<g transform="translate(620.861 658.816)">
						<path class="st3" d="M85.9,66H0v114.8h189.3v-49.3h-34.5v-16.1h137.8V0H207v49.3h34.3v16.8H103.2v65.4H51.5V115H86V66H85.9z"
							/>
						<path class="st3" d="M137.7,99.1h138.1V16.7h-52.1v16.3h34.8v49.2H120.3v65.5H34.4v-49H69V82.3H17.1v82h155.2v-16.1h-34.7
							L137.7,99.1z"/>
					</g>
					<g transform="translate(620.861 526.996)">
						<path class="st3" d="M85.9,66H0v114.8h189.3v-49.3h-34.5v-16.1h137.8V0H207v49.3h34.3v16.8H103.2v65.4H51.5V115H86V66L85.9,66
							z"/>
						<path class="st3" d="M137.7,99.1h138.1V16.7h-52.1v16.3h34.8v49.2H120.3v65.5H34.4v-49H69V82.3H17.1v82h155.2v-16.1h-34.7
							L137.7,99.1z"/>
					</g>
					<g transform="translate(620.861 396.773)">
						<path class="st3" d="M85.9,66H0v114.8h189.3v-49.3h-34.5v-16.1h137.8V0H207v49.3h34.3v16.8H103.2v65.4H51.5V115H86V66L85.9,66
							z"/>
						<path class="st3" d="M137.7,99.1h138.1V16.7h-52.1v16.3h34.8v49.2H120.3v65.5H34.4v-49H69V82.3H17.1v82h155.2v-16.1h-34.7
							L137.7,99.1z"/>
					</g>
					<g transform="translate(620.861 264.952)">
						<path class="st3" d="M85.9,66H0v114.8h189.3v-49.3h-34.5v-16.1h137.8V0H207v49.3h34.3v16.8H103.2v65.4H51.5V115H86V66L85.9,66
							z"/>
						<path class="st3" d="M137.7,99.1h138.1V16.7h-52.1v16.3h34.8v49.2H120.3v65.5H34.4v-49H69V82.3H17.1v82h155.2v-16.1h-34.7
							L137.7,99.1z"/>
					</g>
					<g transform="translate(620.861 133.891)">
						<path class="st3" d="M85.9,66H0v114.8h189.3v-49.3h-34.5v-16.1h137.8V0H207v49.3h34.3v16.8H103.2v65.4H51.5V115H86V66L85.9,66
							z"/>
						<path class="st3" d="M137.7,99.1h138.1V16.7h-52.1v16.3h34.8v49.2H120.3v65.5H34.4v-49H69V82.3H17.1v82h155.2v-16.1h-34.7
							L137.7,99.1z"/>
					</g>
					<g transform="translate(620.861 2.071)">
						<path class="st3" d="M85.9,66H0v114.8h189.3v-49.3h-34.5v-16.1h137.8V0H207v49.3h34.3v16.8H103.2v65.4H51.5V115H86V66H85.9z"
							/>
						<path class="st3" d="M137.7,99.1h138.1V16.7h-52.1v16.3h34.8v49.2H120.3v65.5H34.4v-49H69V82.3H17.1v82h155.2v-16.1h-34.7
							L137.7,99.1z"/>
					</g>
					<g transform="translate(310.534 922.273)">
						<path class="st3" d="M85.9,66H0v114.8h189.3v-49.3h-34.5v-16.1h137.8V0H207v49.3h34.3v16.8H103.2v65.4H51.5V115H86V66L85.9,66
							z"/>
						<path class="st3" d="M137.7,99.1h138.1V16.7h-52.1v16.3h34.8v49.2H120.3v65.5H34.4v-49H69V82.3H17.1v82h155.2v-16.1h-34.7
							L137.7,99.1z"/>
					</g>
					<g transform="translate(310.534 790.452)">
						<path class="st3" d="M85.9,66H0v114.8h189.3v-49.3h-34.5v-16.1h137.8V0H207v49.3h34.3v16.8H103.2v65.4H51.5V115H86V66L85.9,66
							z"/>
						<path class="st3" d="M137.7,99.1h138.1V16.7h-52.1v16.3h34.8v49.2H120.3v65.5H34.4v-49H69V82.3H17.1v82h155.2v-16.1h-34.7
							L137.7,99.1z"/>
					</g>
					<g transform="translate(310.709 658.681)">
						<path class="st3" d="M85.9,66H0v114.8h189.3v-49.3h-34.5v-16.1h137.8V0H207v49.3h34.3v16.8H103.2v65.4H51.5V115H86V66L85.9,66
							z"/>
						<path class="st3" d="M137.7,99.1h138.1V16.7h-52.1v16.3h34.8v49.2H120.3v65.5H34.4v-49H69V82.3H17.1v82h155.2v-16.1h-34.7
							L137.7,99.1z"/>
					</g>
					<g transform="translate(310.709 526.861)">
						<path class="st3" d="M85.9,66H0v114.8h189.3v-49.3h-34.5v-16.1h137.8V0H207v49.3h34.3v16.8H103.2v65.4H51.5V115H86V66L85.9,66
							z"/>
						<path class="st3" d="M137.7,99.1h138.1V16.7h-52.1v16.3h34.8v49.2H120.3v65.5H34.4v-49H69V82.3H17.1v82h155.2v-16.1h-34.7
							L137.7,99.1z"/>
					</g>
					<g transform="translate(310.709 396.638)">
						<path class="st3" d="M85.9,66H0v114.8h189.3v-49.3h-34.5v-16.1h137.8V0H207v49.3h34.3v16.8H103.2v65.4H51.5V115H86V66L85.9,66
							z"/>
						<path class="st3" d="M137.7,99.1h138.1V16.7h-52.1v16.3h34.8v49.2H120.3v65.5H34.4v-49H69V82.3H17.1v82h155.2v-16.1h-34.7
							L137.7,99.1z"/>
					</g>
					<g transform="translate(310.709 264.817)">
						<path class="st3" d="M85.9,66H0v114.8h189.3v-49.3h-34.5v-16.1h137.8V0H207v49.3h34.3v16.8H103.2v65.4H51.5V115H86V66L85.9,66
							z"/>
						<path class="st3" d="M137.7,99.1h138.1V16.7h-52.1v16.3h34.8v49.2H120.3v65.5H34.4v-49H69V82.3H17.1v82h155.2v-16.1h-34.7
							L137.7,99.1z"/>
					</g>
					<g transform="translate(310.709 133.756)">
						<path class="st3" d="M85.9,66H0v114.8h189.3v-49.3h-34.5v-16.1h137.8V0H207v49.3h34.3v16.8H103.2v65.4H51.5V115H86V66L85.9,66
							z"/>
						<path class="st3" d="M137.7,99.1h138.1V16.7h-52.1v16.3h34.8v49.2H120.3v65.5H34.4v-49H69V82.3H17.1v82h155.2v-16.1h-34.7
							L137.7,99.1z"/>
					</g>
					<g transform="translate(310.709 1.936)">
						<path class="st3" d="M85.9,66H0v114.8h189.3v-49.3h-34.5v-16.1h137.8V0H207v49.3h34.3v16.8H103.2v65.4H51.5V115H86V66L85.9,66
							z"/>
						<path class="st3" d="M137.7,99.1h138.1V16.7h-52.1v16.3h34.8v49.2H120.3v65.5H34.4v-49H69V82.3H17.1v82h155.2v-16.1h-34.7
							L137.7,99.1z"/>
					</g>
					<g transform="translate(0 924.343)">
						<path class="st3" d="M85.9,66H0v114.8h189.3v-49.3h-34.5v-16.1h137.8V0H207v49.3h34.3v16.8H103.2v65.4H51.5V115H86V66L85.9,66
							z"/>
						<path class="st3" d="M137.7,99.1h138V16.7h-52.1v16.3h34.8v49.2H120.3v65.5H34.4v-49H69V82.3H17.1v82h155.2v-16.1h-34.7
							L137.7,99.1z"/>
					</g>
					<g transform="translate(0 792.523)">
						<path class="st3" d="M85.9,66H0v114.8h189.3v-49.3h-34.5v-16.1h137.8V0H207v49.3h34.3v16.8H103.2v65.4H51.5V115H86V66L85.9,66
							z"/>
						<path class="st3" d="M137.7,99.1h138V16.7h-52.1v16.3h34.8v49.2H120.3v65.5H34.4v-49H69V82.3H17.1v82h155.2v-16.1h-34.7
							L137.7,99.1z"/>
					</g>
					<g transform="translate(0.175 660.752)">
						<path class="st3" d="M85.9,66H0v114.8h189.3v-49.3h-34.5v-16.1h137.8V0H207v49.3h34.3v16.8H103.2v65.4H51.5V115H86V66H85.9z"
							/>
						<path class="st3" d="M137.7,99.1h138.1V16.7h-52.1v16.3h34.8v49.2H120.3v65.5H34.4v-49H69V82.3H17.1v82h155.2v-16.1h-34.7
							L137.7,99.1z"/>
					</g>
					<g transform="translate(0.175 528.931)">
						<path class="st3" d="M85.9,66H0v114.8h189.3v-49.3h-34.5v-16.1h137.8V0H207v49.3h34.3v16.8H103.2v65.4H51.5V115H86V66H85.9z"
							/>
						<path class="st3" d="M137.7,99.1h138.1V16.7h-52.1v16.3h34.8v49.2H120.3v65.5H34.4v-49H69V82.3H17.1v82h155.2v-16.1h-34.7
							L137.7,99.1z"/>
					</g>
					<g transform="translate(0.175 398.708)">
						<path class="st3" d="M85.9,66H0v114.8h189.3v-49.3h-34.5v-16.1h137.8V0H207v49.3h34.3v16.8H103.2v65.4H51.5V115H86V66L85.9,66
							z"/>
						<path class="st3" d="M137.7,99.1h138.1V16.7h-52.1v16.3h34.8v49.2H120.3v65.5H34.4v-49H69V82.3H17.1v82h155.2v-16.1h-34.7
							L137.7,99.1z"/>
					</g>
					<g transform="translate(0.175 266.888)">
						<path class="st3" d="M85.9,66H0v114.8h189.3v-49.3h-34.5v-16.1h137.8V0H207v49.3h34.3v16.8H103.2v65.4H51.5V115H86V66L85.9,66
							z"/>
						<path class="st3" d="M137.7,99.1h138.1V16.7h-52.1v16.3h34.8v49.2H120.3v65.5H34.4v-49H69V82.3H17.1v82h155.2v-16.1h-34.7
							L137.7,99.1z"/>
					</g>
					<g transform="translate(0.175 135.827)">
						<path class="st3" d="M85.9,66H0v114.8h189.3v-49.3h-34.5v-16.1h137.8V0H207v49.3h34.3v16.8H103.2v65.4H51.5V115H86V66L85.9,66
							z"/>
						<path class="st3" d="M137.7,99.1h138.1V16.7h-52.1v16.3h34.8v49.2H120.3v65.5H34.4v-49H69V82.3H17.1v82h155.2v-16.1h-34.7
							L137.7,99.1z"/>
					</g>
					<g transform="translate(0.175 4.006)">
						<path class="st3" d="M85.9,66H0v114.8h189.3v-49.3h-34.5v-16.1h137.8V0H207v49.3h34.3v16.8H103.2v65.4H51.5V115H86V66L85.9,66
							z"/>
						<path class="st3" d="M137.7,99.1h138.1V16.7h-52.1v16.3h34.8v49.2H120.3v65.5H34.4v-49H69V82.3H17.1v82h155.2v-16.1h-34.7
							L137.7,99.1z"/>
					</g>
				</g>
				<g transform="translate(1202.914 -77.225)" class="st4">
					<g transform="translate(931.22 920.338)">
						<path class="st3" d="M85.9,66H0v114.8h189.3v-49.3h-34.5v-16.1h137.8V0H207v49.3h34.3v16.8H103.2v65.4H51.5V115H86V66L85.9,66
							z"/>
						<path class="st3" d="M137.7,99.1h138.1V16.7h-52.1v16.3h34.8v49.2H120.3v65.5H34.5v-49H69V82.3H17.1v82h155.2v-16.1h-34.7
							L137.7,99.1z"/>
					</g>
					<g transform="translate(931.22 788.517)">
						<path class="st3" d="M85.9,66H0v114.8h189.3v-49.3h-34.5v-16.1h137.8V0H207v49.3h34.3v16.8H103.2v65.4H51.5V115H86V66L85.9,66
							z"/>
						<path class="st3" d="M137.7,99.1h138.1V16.7h-52.1v16.3h34.8v49.2H120.3v65.5H34.5v-49H69V82.3H17.1v82h155.2v-16.1h-34.7
							L137.7,99.1z"/>
					</g>
					<g transform="translate(931.395 656.746)">
						<path class="st3" d="M85.9,66H0v114.8h189.3v-49.3h-34.5v-16.1h137.8V0H207v49.3h34.3v16.8H103.2v65.4H51.5V115H86V66L85.9,66
							z"/>
						<path class="st3" d="M137.7,99.1h138.1V16.7h-52.1v16.3h34.8v49.2H120.3v65.5H34.4v-49H69V82.3H17.1v82h155.2v-16.1h-34.7
							L137.7,99.1z"/>
					</g>
					<g transform="translate(931.395 524.925)">
						<path class="st3" d="M85.9,66H0v114.8h189.3v-49.3h-34.5v-16.1h137.8V0H207v49.3h34.3v16.8H103.2v65.4H51.5V115H86V66L85.9,66
							z"/>
						<path class="st3" d="M137.7,99.1h138.1V16.7h-52.1v16.3h34.8v49.2H120.3v65.5H34.4v-49H69V82.3H17.1v82h155.2v-16.1h-34.7
							L137.7,99.1z"/>
					</g>
					<g transform="translate(931.395 394.702)">
						<path class="st3" d="M85.9,66H0v114.8h189.3v-49.3h-34.5v-16.1h137.8V0H207v49.3h34.3v16.8H103.2v65.4H51.5V115H86V66L85.9,66
							z"/>
						<path class="st3" d="M137.7,99.1h138.1V16.7h-52.1v16.3h34.8v49.2H120.3v65.5H34.4v-49H69V82.3H17.1v82h155.2v-16.1h-34.7
							L137.7,99.1z"/>
					</g>
					<g transform="translate(931.395 262.882)">
						<path class="st3" d="M85.9,66H0v114.8h189.3v-49.3h-34.5v-16.1h137.8V0H207v49.3h34.3v16.8H103.2v65.4H51.5V115H86V66L85.9,66
							z"/>
						<path class="st3" d="M137.7,99.1h138.1V16.7h-52.1v16.3h34.8v49.2H120.3v65.5H34.4v-49H69V82.3H17.1v82h155.2v-16.1h-34.7
							L137.7,99.1z"/>
					</g>
					<g transform="translate(931.395 131.821)">
						<path class="st3" d="M85.9,66H0v114.8h189.3v-49.3h-34.5v-16.1h137.8V0H207v49.3h34.3v16.8H103.2v65.4H51.5V115H86V66H85.9z"
							/>
						<path class="st3" d="M137.7,99.1h138.1V16.7h-52.1v16.3h34.8v49.2H120.3v65.5H34.4v-49H69V82.3H17.1v82h155.2v-16.1h-34.7
							L137.7,99.1z"/>
					</g>
					<g transform="translate(931.395)">
						<path class="st3" d="M85.9,66H0v114.8h189.3v-49.3h-34.5v-16.1h137.8V0H207v49.3h34.3v16.8H103.2v65.4H51.5V115H86V66L85.9,66
							z"/>
						<path class="st3" d="M137.7,99.1h138.1V16.7h-52.1v16.3h34.8v49.2H120.3v65.5H34.4v-49H69V82.3H17.1v82h155.2v-16.1h-34.7
							L137.7,99.1z"/>
					</g>
					<g transform="translate(620.687 922.408)">
						<path class="st3" d="M85.9,66H0v114.8h189.3v-49.3h-34.5v-16.1h137.8V0H207v49.3h34.3v16.8H103.2v65.4H51.5V115H86V66L85.9,66
							z"/>
						<path class="st3" d="M137.7,99.1h138.1V16.7h-52.1v16.3h34.8v49.2H120.3v65.5H34.4v-49H69V82.3H17.1v82h155.2v-16.1h-34.7
							L137.7,99.1z"/>
					</g>
					<g transform="translate(620.687 790.587)">
						<path class="st3" d="M85.9,66H0v114.8h189.3v-49.3h-34.5v-16.1h137.8V0H207v49.3h34.3v16.8H103.2v65.4H51.5V115H86V66L85.9,66
							z"/>
						<path class="st3" d="M137.7,99.1h138.1V16.7h-52.1v16.3h34.8v49.2H120.3v65.5H34.4v-49H69V82.3H17.1v82h155.2v-16.1h-34.7
							L137.7,99.1z"/>
					</g>
					<g transform="translate(620.861 658.816)">
						<path class="st3" d="M85.9,66H0v114.8h189.3v-49.3h-34.5v-16.1h137.8V0H207v49.3h34.3v16.8H103.2v65.4H51.5V115H86V66H85.9z"
							/>
						<path class="st3" d="M137.7,99.1h138.1V16.7h-52.1v16.3h34.8v49.2H120.3v65.5H34.4v-49H69V82.3H17.1v82h155.2v-16.1h-34.7
							L137.7,99.1z"/>
					</g>
					<g transform="translate(620.861 526.996)">
						<path class="st3" d="M85.9,66H0v114.8h189.3v-49.3h-34.5v-16.1h137.8V0H207v49.3h34.3v16.8H103.2v65.4H51.5V115H86V66L85.9,66
							z"/>
						<path class="st3" d="M137.7,99.1h138.1V16.7h-52.1v16.3h34.8v49.2H120.3v65.5H34.4v-49H69V82.3H17.1v82h155.2v-16.1h-34.7
							L137.7,99.1z"/>
					</g>
					<g transform="translate(620.861 396.773)">
						<path class="st3" d="M85.9,66H0v114.8h189.3v-49.3h-34.5v-16.1h137.8V0H207v49.3h34.3v16.8H103.2v65.4H51.5V115H86V66L85.9,66
							z"/>
						<path class="st3" d="M137.7,99.1h138.1V16.7h-52.1v16.3h34.8v49.2H120.3v65.5H34.4v-49H69V82.3H17.1v82h155.2v-16.1h-34.7
							L137.7,99.1z"/>
					</g>
					<g transform="translate(620.861 264.952)">
						<path class="st3" d="M85.9,66H0v114.8h189.3v-49.3h-34.5v-16.1h137.8V0H207v49.3h34.3v16.8H103.2v65.4H51.5V115H86V66L85.9,66
							z"/>
						<path class="st3" d="M137.7,99.1h138.1V16.7h-52.1v16.3h34.8v49.2H120.3v65.5H34.4v-49H69V82.3H17.1v82h155.2v-16.1h-34.7
							L137.7,99.1z"/>
					</g>
					<g transform="translate(620.861 133.891)">
						<path class="st3" d="M85.9,66H0v114.8h189.3v-49.3h-34.5v-16.1h137.8V0H207v49.3h34.3v16.8H103.2v65.4H51.5V115H86V66L85.9,66
							z"/>
						<path class="st3" d="M137.7,99.1h138.1V16.7h-52.1v16.3h34.8v49.2H120.3v65.5H34.4v-49H69V82.3H17.1v82h155.2v-16.1h-34.7
							L137.7,99.1z"/>
					</g>
					<g transform="translate(620.861 2.071)">
						<path class="st3" d="M85.9,66H0v114.8h189.3v-49.3h-34.5v-16.1h137.8V0H207v49.3h34.3v16.8H103.2v65.4H51.5V115H86V66H85.9z"
							/>
						<path class="st3" d="M137.7,99.1h138.1V16.7h-52.1v16.3h34.8v49.2H120.3v65.5H34.4v-49H69V82.3H17.1v82h155.2v-16.1h-34.7
							L137.7,99.1z"/>
					</g>
					<g transform="translate(310.534 922.273)">
						<path class="st3" d="M85.9,66H0v114.8h189.3v-49.3h-34.5v-16.1h137.8V0H207v49.3h34.3v16.8H103.2v65.4H51.5V115H86V66L85.9,66
							z"/>
						<path class="st3" d="M137.7,99.1h138.1V16.7h-52.1v16.3h34.8v49.2H120.3v65.5H34.5v-49H69V82.3H17.1v82h155.2v-16.1h-34.7
							L137.7,99.1z"/>
					</g>
					<g transform="translate(310.534 790.452)">
						<path class="st3" d="M85.9,66H0v114.8h189.3v-49.3h-34.5v-16.1h137.8V0H207v49.3h34.3v16.8H103.2v65.4H51.5V115H86V66L85.9,66
							z"/>
						<path class="st3" d="M137.7,99.1h138.1V16.7h-52.1v16.3h34.8v49.2H120.3v65.5H34.5v-49H69V82.3H17.1v82h155.2v-16.1h-34.7
							L137.7,99.1z"/>
					</g>
					<g transform="translate(310.709 658.681)">
						<path class="st3" d="M85.9,66H0v114.8h189.3v-49.3h-34.5v-16.1h137.8V0H207v49.3h34.3v16.8H103.2v65.4H51.5V115H86V66L85.9,66
							z"/>
						<path class="st3" d="M137.7,99.1h138.1V16.7h-52.1v16.3h34.8v49.2H120.3v65.5H34.4v-49H69V82.3H17.1v82h155.2v-16.1h-34.7
							L137.7,99.1z"/>
					</g>
					<g transform="translate(310.709 526.861)">
						<path class="st3" d="M85.9,66H0v114.8h189.3v-49.3h-34.5v-16.1h137.8V0H207v49.3h34.3v16.8H103.2v65.4H51.5V115H86V66L85.9,66
							z"/>
						<path class="st3" d="M137.7,99.1h138.1V16.7h-52.1v16.3h34.8v49.2H120.3v65.5H34.4v-49H69V82.3H17.1v82h155.2v-16.1h-34.7
							L137.7,99.1z"/>
					</g>
					<g transform="translate(310.709 396.638)">
						<path class="st3" d="M85.9,66H0v114.8h189.3v-49.3h-34.5v-16.1h137.8V0H207v49.3h34.3v16.8H103.2v65.4H51.5V115H86V66L85.9,66
							z"/>
						<path class="st3" d="M137.7,99.1h138.1V16.7h-52.1v16.3h34.8v49.2H120.3v65.5H34.4v-49H69V82.3H17.1v82h155.2v-16.1h-34.7
							L137.7,99.1z"/>
					</g>
					<g transform="translate(310.709 264.817)">
						<path class="st3" d="M85.9,66H0v114.8h189.3v-49.3h-34.5v-16.1h137.8V0H207v49.3h34.3v16.8H103.2v65.4H51.5V115H86V66L85.9,66
							z"/>
						<path class="st3" d="M137.7,99.1h138.1V16.7h-52.1v16.3h34.8v49.2H120.3v65.5H34.4v-49H69V82.3H17.1v82h155.2v-16.1h-34.7
							L137.7,99.1z"/>
					</g>
					<g transform="translate(310.709 133.756)">
						<path class="st3" d="M85.9,66H0v114.8h189.3v-49.3h-34.5v-16.1h137.8V0H207v49.3h34.3v16.8H103.2v65.4H51.5V115H86V66L85.9,66
							z"/>
						<path class="st3" d="M137.7,99.1h138.1V16.7h-52.1v16.3h34.8v49.2H120.3v65.5H34.4v-49H69V82.3H17.1v82h155.2v-16.1h-34.7
							L137.7,99.1z"/>
					</g>
					<g transform="translate(310.709 1.936)">
						<path class="st3" d="M85.9,66H0v114.8h189.3v-49.3h-34.5v-16.1h137.8V0H207v49.3h34.3v16.8H103.2v65.4H51.5V115H86V66L85.9,66
							z"/>
						<path class="st3" d="M137.7,99.1h138.1V16.7h-52.1v16.3h34.8v49.2H120.3v65.5H34.4v-49H69V82.3H17.1v82h155.2v-16.1h-34.7
							L137.7,99.1z"/>
					</g>
					<g transform="translate(0 924.343)">
						<path class="st3" d="M85.9,66H0v114.8h189.3v-49.3h-34.5v-16.1h137.8V0H207v49.3h34.3v16.8H103.2v65.4H51.5V115H86V66L85.9,66
							z"/>
						<path class="st3" d="M137.7,99.1h138.1V16.7h-52.1v16.3h34.8v49.2H120.3v65.5H34.4v-49H69V82.3H17.1v82h155.2v-16.1h-34.7
							L137.7,99.1z"/>
					</g>
					<g transform="translate(0 792.523)">
						<path class="st3" d="M85.9,66H0v114.8h189.3v-49.3h-34.5v-16.1h137.8V0H207v49.3h34.3v16.8H103.2v65.4H51.5V115H86V66L85.9,66
							z"/>
						<path class="st3" d="M137.7,99.1h138.1V16.7h-52.1v16.3h34.8v49.2H120.3v65.5H34.4v-49H69V82.3H17.1v82h155.2v-16.1h-34.7
							L137.7,99.1z"/>
					</g>
					<g transform="translate(0.175 660.752)">
						<path class="st3" d="M85.9,66H0v114.8h189.3v-49.3h-34.5v-16.1h137.8V0H207v49.3h34.3v16.8H103.2v65.4H51.5V115H86V66H85.9z"
							/>
						<path class="st3" d="M137.7,99.1h138.1V16.7h-52.1v16.3h34.8v49.2H120.3v65.5H34.4v-49H69V82.3H17.1v82h155.2v-16.1h-34.7
							L137.7,99.1z"/>
					</g>
					<g transform="translate(0.175 528.931)">
						<path class="st3" d="M85.9,66H0v114.8h189.3v-49.3h-34.5v-16.1h137.8V0H207v49.3h34.3v16.8H103.2v65.4H51.5V115H86V66H85.9z"
							/>
						<path class="st3" d="M137.7,99.1h138.1V16.7h-52.1v16.3h34.8v49.2H120.3v65.5H34.4v-49H69V82.3H17.1v82h155.2v-16.1h-34.7
							L137.7,99.1z"/>
					</g>
					<g transform="translate(0.175 398.708)">
						<path class="st3" d="M85.9,66H0v114.8h189.3v-49.3h-34.5v-16.1h137.8V0H207v49.3h34.3v16.8H103.2v65.4H51.5V115H86V66L85.9,66
							z"/>
						<path class="st3" d="M137.7,99.1h138.1V16.7h-52.1v16.3h34.8v49.2H120.3v65.5H34.4v-49H69V82.3H17.1v82h155.2v-16.1h-34.7
							L137.7,99.1z"/>
					</g>
					<g transform="translate(0.175 266.888)">
						<path class="st3" d="M85.9,66H0v114.8h189.3v-49.3h-34.5v-16.1h137.8V0H207v49.3h34.3v16.8H103.2v65.4H51.5V115H86V66L85.9,66
							z"/>
						<path class="st3" d="M137.7,99.1h138.1V16.7h-52.1v16.3h34.8v49.2H120.3v65.5H34.4v-49H69V82.3H17.1v82h155.2v-16.1h-34.7
							L137.7,99.1z"/>
					</g>
					<g transform="translate(0.175 135.827)">
						<path class="st3" d="M85.9,66H0v114.8h189.3v-49.3h-34.5v-16.1h137.8V0H207v49.3h34.3v16.8H103.2v65.4H51.5V115H86V66L85.9,66
							z"/>
						<path class="st3" d="M137.7,99.1h138.1V16.7h-52.1v16.3h34.8v49.2H120.3v65.5H34.4v-49H69V82.3H17.1v82h155.2v-16.1h-34.7
							L137.7,99.1z"/>
					</g>
					<g transform="translate(0.175 4.006)">
						<path class="st3" d="M85.9,66H0v114.8h189.3v-49.3h-34.5v-16.1h137.8V0H207v49.3h34.3v16.8H103.2v65.4H51.5V115H86V66L85.9,66
							z"/>
						<path class="st3" d="M137.7,99.1h138.1V16.7h-52.1v16.3h34.8v49.2H120.3v65.5H34.4v-49H69V82.3H17.1v82h155.2v-16.1h-34.7
							L137.7,99.1z"/>
					</g>
				</g>
			</g>
		</g>
	</g>
	<path class="st5" d="M4068,3641.4l-1.4-0.9l-0.8,0.4l1.5,0.8L4068,3641.4z"/>
	<path class="st5" d="M4066.6,3649.4L4066.6,3649.4l1.2,0.7L4066.6,3649.4z"/>
	<path class="st5" d="M4066.6,3658.3L4066.6,3658.3l1.2,0.7L4066.6,3658.3z"/>
	<path class="st5" d="M4066.6,3667.2L4066.6,3667.2l1.2,0.7L4066.6,3667.2z"/>
</g>
<g transform="translate(-937 -238.825)">
	<g transform="translate(937 238.825)">
		<path class="st6" d="M8.3,587.3l0.4,0v-18.1c-1.5-4.1,0.7-8.2,5.9-11.1l154.5-85c5.8-3.2,14.1-4.1,21.4-2.9
			c-4.8-5.7-8.1-13.2-8.1-19.8l0.6-198.5c0-4.8,1.8-8.4,4.9-10.1c0.8-0.5,1.8-0.8,2.7-0.9l15.6-8l0.1,0.2c2.8-0.6,6.1,0.1,9.4,1.9
			l215.3,118.5c8.9,4.9,16.2,16.9,16.1,26.6l-0.6,198.5c0,4.6-2.2,8.5-5.9,10.3l-16,8.2l-0.4,0.1l0,0c-1,0.3-2.1,0.5-3.1,0.5
			c-0.2,0-0.4,0-0.7,0c1.1,1.9,1.3,4.1,0.5,6.1v17.8h0.4l0,0.4c0.3,3.4-2.1,6.7-6.4,9.1l-137.7,75.8v0.4h-0.7l-16.1,8.9
			c-9.5,4.6-20.7,4.6-30.2,0l-16-8.9H213v-0.9L14.6,596.5c-4.2-2.3-6.4-5.4-6.3-8.8L8.3,587.3z"/>
		<g transform="translate(181.164 0.034)">
			<path class="st5" d="M10.8,244.9l16.1-8.3l-1.9-3.4l-16.1,8.3L10.8,244.9z"/>
			<path class="st5" d="M8.2,241.3l16.9-8.7l2.4,4.2L11,245.3l-0.4,0.2L8.2,241.3z M24.8,233.8l-15.4,7.9l1.5,2.7l15.4-7.9
				L24.8,233.8z"/>
		</g>
		<g transform="translate(174.256)">
			<path class="st5" d="M8.7,450.3c0,9.6,7.1,21.4,15.9,26.3L239.9,595c4,2.2,7.7,2.6,10.5,1.5l0,0.1l16-8.2c3.1-1.5,5.6-5,5.7-9.9
				l0.6-198.5c0-9.6-7.1-21.4-15.9-26.3L41.4,235.1c-3.5-1.9-6.8-2.5-9.5-1.8l-1.6,3.7l4.8-0.3c2.2,0,4.4,0.5,6.3,1.7l199.9,110
				l-12.7,6.5L25.3,243c-8.8-4.8-16-0.9-16,8.7L8.7,450.3z M269.7,378.3l0,13.8l-13.2,6.7l0-11c0-9.6-7.1-21.4-15.9-26.3l-9-4.9
				l12.7-6.5l12.3,6.8C263.9,360.8,269.7,370.4,269.7,378.3L269.7,378.3z M266.5,583.8l-10.9,5.6c0.2-1,0.3-2.1,0.3-3.1l0.5-184.2
				l13.2-6.7l-0.5,181.4C269.1,580,268.1,582.4,266.5,583.8L266.5,583.8z M11.6,451.9l0.6-198.5c0-7.9,5.9-11.1,13.1-7.1
				l215.3,118.5c7.2,4,13,13.6,13,21.4L253,584.7c0,7.9-5.9,11.1-13.1,7.1L24.6,473.3C17.4,469.4,11.6,459.7,11.6,451.9z"/>
			<path class="st5" d="M239.7,595.4L24.4,476.9C15.4,472,8.2,460,8.2,450.3l0.6-198.5c0-4.8,1.8-8.4,4.9-10.1
				c3.2-1.7,7.4-1.4,11.8,1.1l203,111.7l11.8-6.1L41.2,238.7c-1.8-1.1-3.9-1.7-6.1-1.6l-5.5,0.4l2-4.5l0.2-0.1
				c2.9-0.8,6.3-0.1,9.8,1.8l215.3,118.5c8.9,4.9,16.2,16.9,16.1,26.6l-0.6,198.5c0,4.6-2.2,8.5-5.9,10.3l-16,8.2l-0.4,0.1l0,0
				c-1,0.3-2.1,0.5-3.1,0.5C244.5,597.4,241.9,596.7,239.7,595.4z M266.2,588c3.4-1.7,5.4-5.2,5.4-9.6l0.6-198.5
				c0-9.5-7-21.1-15.7-25.9L41.2,235.5c-3.2-1.8-6.3-2.4-8.9-1.8l-1.2,2.8l4-0.3c0.2,0,0.3,0,0.5,0c2.1,0.1,4.2,0.7,6.1,1.8
				l199.9,110l0.7,0.4l-13.4,6.9l-0.2,0.1L25.1,243.4c-4.1-2.3-8-2.6-10.9-1.1c-2.9,1.6-4.5,4.9-4.5,9.4L9.1,450.2
				c0,9.5,7,21.1,15.7,25.9l215.3,118.5c3.7,2,7.3,2.5,10.1,1.4l0.3-0.1L266.2,588z M239.7,592.1L24.4,473.7
				c-7.3-4-13.2-13.8-13.2-21.8l0.6-198.5c0-4,1.4-6.9,4.1-8.3c2.6-1.4,6.1-1.1,9.7,0.9l215.3,118.5c7.3,4,13.2,13.8,13.2,21.8
				l-0.6,198.5c0,3.9-1.4,6.9-4.1,8.3c-1.1,0.6-2.4,0.9-3.6,0.9C243.6,593.8,241.6,593.2,239.7,592.1L239.7,592.1z M16.3,245.7
				c-2.3,1.3-3.6,4-3.6,7.6l-0.6,198.5c0,7.7,5.7,17.2,12.8,21.1l215.3,118.5c3.4,1.8,6.5,2.2,8.8,0.9s3.6-4,3.6-7.6l0.6-198.5
				c0-7.7-5.7-17.2-12.8-21.1L25.1,246.6c-1.7-1-3.6-1.6-5.6-1.6C18.3,244.9,17.2,245.2,16.3,245.7z M255.2,589.3
				c0.2-1,0.3-2,0.3-3.1l0.6-184.2v-0.3l14-7.2l-0.5,182.1c0,3.2-1,5.7-2.7,7.4l-11.8,6.1L255.2,589.3z M268.7,576.8l0.5-180.7
				l-12.3,6.3l-0.6,183.9c0,0.8-0.1,1.6-0.2,2.4l10-5.1C267.8,582,268.7,579.7,268.7,576.8L268.7,576.8z M256.1,387.8
				c0-9.5-7-21.1-15.7-25.9l-9.7-5.3l13.6-7l12.6,6.9c7.3,4,13.2,13.8,13.2,21.8l0,14l-13.4,6.9l-0.7,0.3L256.1,387.8z M269.3,378.3
				c0-7.7-5.7-17.2-12.8-21.1l-12.1-6.7l-11.8,6l8.3,4.6c8.9,4.9,16.2,16.9,16.1,26.6l0,10.3l12.3-6.3L269.3,378.3z"/>
			<path class="st5" d="M239.8,386.6l1,0.6l-0.5,182.6L25.4,451.5l-1-0.6l0.5-182.6L239.8,386.6z"/>
			<path class="st5" d="M236.3,563l0.5-173.6L29,275.1l-0.5,173.6L236.3,563z"/>
			<path class="st5" d="M240.8,570.4v-0.7l0.5-182.8l-1.3-0.7L24.5,267.6v0.7l-0.5,182.8l1.3,0.7L240.8,570.4z"/>
			<path class="st5" d="M240.4,387.4L239.9,569L24.8,450.7L25.4,269L240.4,387.4z"/>
			<path class="st5" d="M236.7,563.7V563l0.5-173.9L237,389L28.5,274.3v0.7L28,448.9l0.2,0.1L236.7,563.7z"/>
			<path class="st7" d="M236.3,389.6l-0.5,172.6L28.9,448.4l0.5-172.6L236.3,389.6z"/>
		</g>
		<g transform="translate(0 236.904)">
			<path class="st5" d="M9.2,350.7l-0.5,0c-0.1,3,1.9,6.1,6.1,8.4l198.6,110v0.7h1.2l16.1,8.9c8.2,4.5,21.5,4.5,29.8,0l16.2-8.9h0.3
				v-0.2L415,393.7c4.4-2.4,6.4-5.6,6.2-8.7h-0.4v-18.3c1.4-3.7-0.5-7.7-5.6-10.6l-216-119.6c-8.2-4.5-21.5-4.5-29.7,0l-154.5,85
				c-5.3,2.9-7.1,6.9-5.7,10.7L9.2,350.7z M412.1,370.9l-154.5,85c-6.6,3.6-17.4,3.6-24,0l-216-119.6c-6.6-3.6-6.6-9.6,0.1-13.2
				l154.5-85c6.6-3.6,17.4-3.6,24,0l216,119.6C418.8,361.3,418.8,367.2,412.1,370.9L412.1,370.9z M277.1,466.4v-18L415,372.5
				c0.8-0.4,1.5-0.9,2.2-1.4v13.9h-0.1c0.2,2.6-1.4,5.2-5,7.1L277.1,466.4z M216.5,467.6v-18l14.3,7.9c8.2,4.5,21.5,4.5,29.8,0
				L274,450v18l-16.4,9c-6.6,3.6-17.4,3.6-24,0L216.5,467.6z M12.8,350.9L12.8,350.9l0-14.4c0.7,0.5,1.3,0.9,2.1,1.3l198.6,110v18
				L17.7,357.5C14.4,355.7,12.8,353.3,12.8,350.9z"/>
			<path class="st5" d="M230.5,479l-16-8.9H213v-0.9L14.6,359.4c-4.2-2.3-6.4-5.4-6.3-8.8l0-0.4l0.4,0v-18.1
				c-1.5-4.1,0.7-8.2,5.9-11.1l154.5-85c8.4-4.6,21.9-4.6,30.2,0l216,119.6c5.2,2.9,7.4,7,5.9,11v17.8h0.4l0,0.4
				c0.3,3.4-2.1,6.7-6.4,9.1l-137.7,75.8v0.4h-0.7l-16.1,8.9C251.2,483.6,240.1,483.6,230.5,479L230.5,479z M414.8,393.3
				c3.8-2.1,6-5,6-7.9h-0.5v-18.7l0-0.1c1.4-3.6-0.6-7.4-5.4-10.1l-216-119.6c-8.1-4.5-21.2-4.5-29.3,0l-154.5,85
				c-4.9,2.7-6.9,6.5-5.5,10.1l0,19.2l-0.5,0c0.1,2.9,2.2,5.5,5.9,7.6l198.6,110l0.2,0.1v0.5h0.9l16.2,9c8.1,4.5,21.2,4.5,29.3,0
				l16.2-8.9l0.1-0.1h0L414.8,393.3z M233.4,477.5l-17.2-9.5l-0.2-0.1v-19l14.9,8.3c8.1,4.5,21.2,4.5,29.3,0l14.2-7.8v19l-16.6,9.1
				C250.1,481.2,241.2,481.2,233.4,477.5L233.4,477.5z M273.6,450.8l-12.8,7.1c-8.4,4.6-21.9,4.6-30.2,0l-13.6-7.5v17l17,9.4
				c6.5,3.6,17,3.6,23.5,0l16.2-8.9L273.6,450.8z M276.6,448.1l138.2-76c0.7-0.4,1.4-0.9,2.1-1.4l0.7-0.5v14.8l0,0.3
				c0.1,2.7-1.8,5.3-5.2,7.2l-135.1,74.3l-0.7,0.4L276.6,448.1z M416.7,385l0.1-13.1c-0.5,0.3-1,0.6-1.5,0.9l-137.7,75.8v17.1
				l134.4-73.9C415.2,389.9,416.9,387.5,416.7,385L416.7,385z M17.5,357.8c-3.2-1.8-5-4.1-5.1-6.6l0-15.6l0.7,0.5
				c0.6,0.5,1.3,0.9,2,1.3l198.6,110l0.2,0.1v19L17.5,357.8z M14.6,338.2c-0.5-0.3-0.9-0.5-1.4-0.9v13.1h0v0.4
				c0,2.3,1.7,4.6,4.7,6.2l195.1,108v-17L14.6,338.2z M233.4,456.2l-216-119.6c-3.3-1.8-5.1-4.3-5.1-7c0-2.7,1.9-5.2,5.2-7l154.5-85
				c6.8-3.7,17.7-3.7,24.4,0l216,119.6l-0.2,0.4l0.2-0.4c3.3,1.8,5.1,4.3,5.1,7c0,2.7-1.9,5.2-5.2,7l-154.5,85
				C250.1,459.9,241.1,459.9,233.4,456.2L233.4,456.2z M196,238.4c-6.5-3.6-17-3.6-23.5,0L18,323.4c-3.1,1.7-4.8,3.9-4.8,6.3
				c0,2.3,1.7,4.5,4.7,6.2l216,119.6c6.5,3.6,17,3.6,23.5,0l154.5-85c3.1-1.7,4.8-3.9,4.8-6.3c0-2.3-1.7-4.5-4.7-6.2L196,238.4z"/>
		</g>
		<g transform="translate(89.329 255.943)">
			<path class="st5" d="M291.6,340.9l-87.9,48.4L9.1,281.5L97,233.1L291.6,340.9z M203.7,386l82.1-45.2L97,236.3l-82.1,45.2
				L203.7,386"/>
			<path class="st5" d="M8.9,281.8l-0.7-0.4l88.5-48.7l0.2-0.1l194.8,107.9l0.7,0.4l-88.6,48.7l-0.2,0.1L8.9,281.8z M97,233.6
				l-87,47.9l193.7,107.3l87-47.9L97,233.6z M14.7,281.8l-0.7-0.4l82.7-45.5l0.2-0.1l189,104.7l0.7,0.4l-82.7,45.5l-0.2,0.1
				L14.7,281.8z M97,236.8l-81.2,44.7l187.9,104.1l81.2-44.7L97,236.8z"/>
		</g>
		<g transform="translate(109.671 350.36)">
			<path class="st5" d="M97.8,262.7l-35.2,19.4L9.1,252.5l35.2-19.4L97.8,262.7z M62.6,278.9L92,262.7l-47.7-26.4l-29.4,16.2
				L62.6,278.9"/>
			<path class="st5" d="M8.2,252.5l35.9-19.7l0.2-0.1l54.4,30.1l-35.9,19.7l-0.2,0.1L8.2,252.5z M44.3,233.6L10,252.5l52.6,29.1
				l34.3-18.9L44.3,233.6z M14,252.5l30-16.5l0.2-0.1l48.6,26.9l-30,16.5l-0.2,0.1L14,252.5z M44.3,236.8l-28.5,15.7l46.8,25.9
				l28.5-15.7L44.3,236.8z"/>
		</g>
	</g>
	<g transform="translate(1185.888 345.14)">
		<path class="st5" d="M8.5,232.6l100,55l-0.3,85.8l-50.1,7.8L8.2,318.4l0.2-63l60.8,33.5c7.7,5.1,13.9,15.7,13.8,24.4
			c0,4.5-1.7,7.7-4.4,9.3c2.7,4.9,4.5,9.1,4.5,13.9c0,9-6.3,14.2-14.2,10.8l-31.7-17.4l0.2-34.7L68.2,312l0.5,0.2
			c2.4,0.5,4-0.9,4-3.8c0-2.9-1.8-5.7-4.2-7.8l-49.8-27.4l-0.1,45l39.4,49.1L98,362l0.2-68.8L8.5,243.9L8.5,232.6z M68,335.1
			c2.5,0.5,4.2-0.4,4.3-3.4c0-3-1.9-6-4.4-8.2c-0.1-0.1-0.2-0.2-0.3-0.3l-20-11l0,11.6L67.7,335L68,335.1"/>
	</g>
</g>
</svg>
