<?xml version="1.0" encoding="utf-8"?>
<!-- Generator: Adobe Illustrator 21.0.0, SVG Export Plug-In . SVG Version: 6.00 Build 0)  -->
<svg version="1.1" id="Réteg_1" xmlns="http://www.w3.org/2000/svg" xmlns:xlink="http://www.w3.org/1999/xlink" x="0px" y="0px"
	 viewBox="0 0 682.6 451.1" style="enable-background:new 0 0 682.6 451.1;" xml:space="preserve">
<style type="text/css">
	.st0{fill:#00C1DE;}
	.st1{clip-path:url(#SVGID_2_);}
	.st2{opacity:0.5;}
	.st3{fill:none;stroke:#FFFFFF;stroke-width:1.5;stroke-miterlimit:10;}
	.st4{fill:#031828;}
	.st5{fill:#FFFFFF;}
	.st6{fill:#FA2B38;}
</style>
<g transform="translate(-2134.995 -2424.123)">
	<path class="st0" d="M2656.1,2424.1h-519.8c-3.2,60-2.7,123.4,28.7,175.4c33.7,55.7,99.7,89.5,166.8,96c22.3,2.2,45.1,1.7,66.5,7.9
		c40.4,11.7,69.2,44.7,95,76.5c19.1,23.5,38.5,47.7,64.3,64.4c28.8,18.6,65,30.8,98.3,30.8h161.5v-451.1H2656.1z"/>
	<g transform="translate(2134.995 2424.123)">
		<g>
			<defs>
				<path id="SVGID_1_" d="M521.1,0H1.3C-1.9,60-1.4,123.4,30,175.4c33.7,55.7,99.7,89.5,166.8,96c22.3,2.2,45.1,1.7,66.5,7.9
					c40.4,11.7,69.2,44.7,95,76.5c19.1,23.5,38.5,47.7,64.3,64.4c28.8,18.6,65,30.8,98.3,30.8h161.5V0H521.1z"/>
			</defs>
			<clipPath id="SVGID_2_">
				<use xlink:href="#SVGID_1_"  style="overflow:visible;"/>
			</clipPath>
			<g class="st1">
				<g transform="translate(-18.172 -36.27)" class="st2">
					<g transform="translate(437.368 432.257)">
						<path class="st3" d="M40.3,31H0v53.9h88.9V61.8H72.7v-7.5h64.7V0H97.2v23.2h16.1V31H48.5v30.7H24.2V54h16.2L40.3,31L40.3,31z"
							/>
						<path class="st3" d="M64.7,46.5h64.8V7.9h-24.5v7.7h16.3v23.1H56.5v30.8H16.2v-23h16.2v-7.8H8v38.5H81v-7.6H64.7L64.7,46.5z"
							/>
					</g>
					<g transform="translate(437.368 370.344)">
						<path class="st3" d="M40.3,31H0v53.9h88.9V61.8H72.7v-7.5h64.7V0H97.2v23.1h16.1V31H48.5v30.7H24.2V54h16.2L40.3,31L40.3,31z"
							/>
						<path class="st3" d="M64.7,46.5h64.8V7.9h-24.5v7.7h16.3v23.1H56.5v30.8H16.2v-23h16.2v-7.7H8v38.5H81v-7.6H64.7L64.7,46.5z"
							/>
					</g>
					<g transform="translate(437.45 308.455)">
						<path class="st3" d="M40.3,31H0v53.9h88.9V61.8H72.7v-7.5h64.7V0H97.2v23.1h16.1V31H48.5v30.7H24.2V54h16.2L40.3,31L40.3,31z"
							/>
						<path class="st3" d="M64.7,46.5h64.8V7.9h-24.5v7.7h16.3v23.1H56.5v30.8H16.2v-23h16.2v-7.7H8v38.5H81v-7.6H64.7L64.7,46.5z"
							/>
					</g>
					<g transform="translate(437.45 246.543)">
						<path class="st3" d="M40.3,31H0v53.9h88.9V61.8H72.7v-7.5h64.7V0H97.2v23.1h16.1V31H48.5v30.7H24.2V54h16.2L40.3,31L40.3,31z"
							/>
						<path class="st3" d="M64.7,46.5h64.8V7.9h-24.5v7.7h16.3v23.1H56.5v30.8H16.2v-23h16.2v-7.7H8v38.5H81v-7.6H64.7L64.7,46.5z"
							/>
					</g>
					<g transform="translate(437.45 185.381)">
						<path class="st3" d="M40.3,31H0v53.9h88.9V61.8H72.7v-7.5h64.7V0H97.2v23.1h16.1V31H48.5v30.7H24.2V54h16.2L40.3,31L40.3,31z"
							/>
						<path class="st3" d="M64.7,46.5h64.8V7.9h-24.5v7.7h16.3v23.1H56.5v30.8H16.2v-23h16.2v-7.7H8v38.5H81v-7.6H64.7L64.7,46.5z"
							/>
					</g>
					<g transform="translate(437.45 123.468)">
						<path class="st3" d="M40.3,31H0v53.9h88.9V61.8H72.7v-7.5h64.7V0H97.2v23.1h16.1V31H48.5v30.7H24.2V54h16.2L40.3,31L40.3,31z"
							/>
						<path class="st3" d="M64.7,46.5h64.8V7.9h-24.5v7.7h16.3v23.1H56.5v30.8H16.2v-23h16.2v-7.7H8v38.5H81v-7.6H64.7L64.7,46.5z"
							/>
					</g>
					<g transform="translate(437.45 61.912)">
						<path class="st3" d="M40.3,31H0v53.9h88.9V61.8H72.7v-7.5h64.7V0H97.2v23.1h16.1V31H48.5v30.7H24.2V54h16.2L40.3,31L40.3,31z"
							/>
						<path class="st3" d="M64.7,46.5h64.8V7.9h-24.5v7.7h16.3v23.1H56.5v30.8H16.2v-23h16.2v-7.7H8v38.5H81v-7.6H64.7L64.7,46.5z"
							/>
					</g>
					<g transform="translate(437.45)">
						<path class="st3" d="M40.3,31H0v53.9h88.9V61.8H72.7v-7.5h64.7V0H97.2v23.1h16.1V31H48.5v30.7H24.2V54h16.2L40.3,31L40.3,31z"
							/>
						<path class="st3" d="M64.7,46.5h64.8V7.9h-24.5v7.7h16.3v23.1H56.5v30.8H16.2v-23h16.2v-7.7H8v38.5H81v-7.6H64.7L64.7,46.5z"
							/>
					</g>
					<g transform="translate(291.519 433.229)">
						<path class="st3" d="M40.3,31H0v53.9h88.9V61.8H72.7v-7.5h64.7V0H97.2v23.1h16.1V31H48.5v30.7H24.2V54h16.2L40.3,31L40.3,31z"
							/>
						<path class="st3" d="M64.7,46.5h64.8V7.9h-24.5v7.7h16.3v23.1H56.5v30.8H16.2v-23h16.2v-7.7H8v38.5H81v-7.6H64.7L64.7,46.5z"
							/>
					</g>
					<g transform="translate(291.519 371.316)">
						<path class="st3" d="M40.3,31H0v53.9h88.9V61.8H72.7v-7.5h64.7V0H97.2v23.1h16.1V31H48.5v30.7H24.2V54h16.2L40.3,31L40.3,31z"
							/>
						<path class="st3" d="M64.7,46.5h64.8V7.9h-24.5v7.7h16.3v23.1H56.5v30.8H16.2v-23h16.2v-7.7H8v38.5H81v-7.6H64.7L64.7,46.5z"
							/>
					</g>
					<g transform="translate(291.601 309.427)">
						<path class="st3" d="M40.3,31H0v53.9h88.9V61.8H72.7v-7.5h64.7V0H97.2v23.1h16.1V31H48.5v30.7H24.2V54h16.2L40.3,31L40.3,31z"
							/>
						<path class="st3" d="M64.7,46.5h64.8V7.9h-24.5v7.7h16.3v23.1H56.5v30.8H16.2v-23h16.2v-7.7H8v38.5H81v-7.6H64.7L64.7,46.5z"
							/>
					</g>
					<g transform="translate(291.601 247.515)">
						<path class="st3" d="M40.3,31H0v53.9h88.9V61.8H72.7v-7.5h64.7V0H97.2v23.1h16.1V31H48.5v30.7H24.2V54h16.2L40.3,31L40.3,31z"
							/>
						<path class="st3" d="M64.7,46.5h64.8V7.9h-24.5v7.7h16.3v23.1H56.5v30.8H16.2v-23h16.2v-7.7H8v38.5H81v-7.6H64.7L64.7,46.5z"
							/>
					</g>
					<g transform="translate(291.601 186.353)">
						<path class="st3" d="M40.3,31H0v53.9h88.9V61.8H72.7v-7.5h64.7V0H97.2v23.1h16.1V31H48.5v30.7H24.2V54h16.2L40.3,31L40.3,31z"
							/>
						<path class="st3" d="M64.7,46.5h64.8V7.9h-24.5v7.7h16.3v23.1H56.5v30.8H16.2v-23h16.2v-7.7H8v38.5H81v-7.6H64.7L64.7,46.5z"
							/>
					</g>
					<g transform="translate(291.601 124.441)">
						<path class="st3" d="M40.3,31H0v53.9h88.9V61.8H72.7v-7.5h64.7V0H97.2v23.2h16.1V31H48.5v30.7H24.2V54h16.2L40.3,31L40.3,31z"
							/>
						<path class="st3" d="M64.7,46.5h64.8V7.9h-24.5v7.7h16.3v23.1H56.5v30.8H16.2v-23h16.2v-7.7H8v38.5H81v-7.6H64.7L64.7,46.5z"
							/>
					</g>
					<g transform="translate(291.601 62.885)">
						<path class="st3" d="M40.3,31H0v53.9h88.9V61.8H72.7v-7.5h64.7V0H97.2v23.1h16.1V31H48.5v30.7H24.2V54h16.2L40.3,31L40.3,31z"
							/>
						<path class="st3" d="M64.7,46.5h64.8V7.9h-24.5v7.7h16.3v23.1H56.5v30.8H16.2v-23h16.2v-7.7H8v38.5H81v-7.6H64.7L64.7,46.5z"
							/>
					</g>
					<g transform="translate(291.601 0.972)">
						<path class="st3" d="M40.3,31H0v53.9h88.9V61.8H72.7v-7.5h64.7V0H97.2v23.1h16.1V31H48.5v30.7H24.2V54h16.2L40.3,31L40.3,31z"
							/>
						<path class="st3" d="M64.7,46.5h64.8V7.9h-24.5v7.7h16.3v23.1H56.5v30.8H16.2v-23h16.2v-7.7H8v38.5H81v-7.6H64.7L64.7,46.5z"
							/>
					</g>
					<g transform="translate(145.849 433.165)">
						<path class="st3" d="M40.3,31H0v53.9h88.9V61.8H72.7v-7.5h64.7V0H97.2v23.1h16.1V31H48.5v30.7H24.2V54h16.2L40.3,31L40.3,31z"
							/>
						<path class="st3" d="M64.7,46.5h64.8V7.9h-24.5v7.7h16.3v23.1H56.5v30.8H16.2v-23h16.2v-7.7H8v38.5H81v-7.6H64.7L64.7,46.5z"
							/>
					</g>
					<g transform="translate(145.849 371.253)">
						<path class="st3" d="M40.3,31H0v53.9h88.9V61.8H72.7v-7.5h64.7V0H97.2v23.1h16.1V31H48.5v30.7H24.2V54h16.2L40.3,31L40.3,31z"
							/>
						<path class="st3" d="M64.7,46.5h64.8V7.9h-24.5v7.7h16.3v23.1H56.5v30.8H16.2v-23h16.2v-7.7H8v38.5H81v-7.6H64.7L64.7,46.5z"
							/>
					</g>
					<g transform="translate(145.931 309.364)">
						<path class="st3" d="M40.3,31H0v53.9h88.9V61.8H72.7v-7.5h64.7V0H97.2v23.1h16.1V31H48.5v30.7H24.2V54h16.2L40.3,31L40.3,31z"
							/>
						<path class="st3" d="M64.7,46.5h64.8V7.9h-24.5v7.7h16.3v23.1H56.5v30.8H16.2v-23h16.2v-7.7H8v38.5H81v-7.6H64.7L64.7,46.5z"
							/>
					</g>
					<g transform="translate(145.931 247.452)">
						<path class="st3" d="M40.3,31H0v53.9h88.9V61.8H72.7v-7.5h64.7V0H97.2v23.1h16.1V31H48.5v30.7H24.2V54h16.2L40.3,31L40.3,31z"
							/>
						<path class="st3" d="M64.7,46.5h64.8V7.9h-24.5v7.7h16.3v23.1H56.5v30.8H16.2v-23h16.2v-7.7H8v38.5H81v-7.6H64.7L64.7,46.5z"
							/>
					</g>
					<g transform="translate(145.931 186.29)">
						<path class="st3" d="M40.3,31H0v53.9h88.9V61.8H72.7v-7.5h64.7V0H97.2v23.1h16.1V31H48.5v30.7H24.2V54h16.2L40.3,31L40.3,31z"
							/>
						<path class="st3" d="M64.7,46.5h64.8V7.9h-24.5v7.7h16.3v23.1H56.5v30.8H16.2v-23h16.2v-7.7H8v38.5H81v-7.6H64.7L64.7,46.5z"
							/>
					</g>
					<g transform="translate(145.931 124.377)">
						<path class="st3" d="M40.3,31H0v53.9h88.9V61.8H72.7v-7.5h64.7V0H97.2v23.1h16.1V31H48.5v30.7H24.2V54h16.2L40.3,31L40.3,31z"
							/>
						<path class="st3" d="M64.7,46.5h64.8V7.9h-24.5v7.7h16.3v23.1H56.5v30.8H16.2v-23h16.2v-7.7H8v38.5H81v-7.6H64.7L64.7,46.5z"
							/>
					</g>
					<g transform="translate(145.931 62.821)">
						<path class="st3" d="M40.3,31H0v53.9h88.9V61.8H72.7v-7.5h64.7V0H97.2v23.1h16.1V31H48.5v30.7H24.2V54h16.2L40.3,31L40.3,31z"
							/>
						<path class="st3" d="M64.7,46.5h64.8V7.9h-24.5v7.7h16.3v23.1H56.5v30.8H16.2v-23h16.2v-7.7H8v38.5H81v-7.6H64.7L64.7,46.5z"
							/>
					</g>
					<g transform="translate(145.931 0.909)">
						<path class="st3" d="M40.3,31H0v53.9h88.9V61.8H72.7v-7.5h64.7V0H97.2v23.1h16.1V31H48.5v30.7H24.2V54h16.2L40.3,31L40.3,31z"
							/>
						<path class="st3" d="M64.7,46.5h64.8V7.9h-24.5v7.7h16.3v23.1H56.5v30.8H16.2v-23h16.2v-7.7H8v38.5H81v-7.6H64.7L64.7,46.5z"
							/>
					</g>
					<g transform="translate(0 434.138)">
						<path class="st3" d="M40.3,31H0v53.9h88.9V61.8H72.7v-7.5h64.7V0H97.2v23.1h16.1V31H48.5v30.7H24.2V54h16.2L40.3,31L40.3,31z"
							/>
						<path class="st3" d="M64.7,46.5h64.8V7.9h-24.5v7.7h16.3v23.1H56.5v30.8H16.2v-23h16.2v-7.7H8v38.5H81v-7.6H64.7L64.7,46.5z"
							/>
					</g>
					<g transform="translate(0 372.226)">
						<path class="st3" d="M40.3,31H0v53.9h88.9V61.8H72.7v-7.5h64.7V0H97.2v23.1h16.1V31H48.5v30.7H24.2V54h16.2L40.3,31L40.3,31z"
							/>
						<path class="st3" d="M64.7,46.5h64.8V7.9h-24.5v7.7h16.3v23.1H56.5v30.8H16.2v-23h16.2v-7.7H8v38.5H81v-7.6H64.7L64.7,46.5z"
							/>
					</g>
					<g transform="translate(0.082 310.336)">
						<path class="st3" d="M40.3,31H0v53.9h88.9V61.8H72.7v-7.5h64.7V0H97.2v23.1h16.1V31H48.5v30.7H24.2V54h16.2L40.3,31L40.3,31z"
							/>
						<path class="st3" d="M64.7,46.5h64.8V7.9h-24.5v7.7h16.3v23.1H56.5v30.8H16.2v-23h16.2v-7.7H8v38.5H81v-7.6H64.7L64.7,46.5z"
							/>
					</g>
					<g transform="translate(0.082 248.424)">
						<path class="st3" d="M40.3,31H0v53.9h88.9V61.8H72.7v-7.5h64.7V0H97.2v23.1h16.1V31H48.5v30.7H24.2V54h16.2L40.3,31L40.3,31z"
							/>
						<path class="st3" d="M64.7,46.5h64.8V7.9h-24.5v7.7h16.3v23.1H56.5v30.8H16.2v-23h16.2v-7.7H8v38.5H81v-7.6H64.7L64.7,46.5z"
							/>
					</g>
					<g transform="translate(0.082 187.262)">
						<path class="st3" d="M40.3,31H0v53.9h88.9V61.8H72.7v-7.5h64.7V0H97.2v23.1h16.1V31H48.5v30.7H24.2V54h16.2L40.3,31L40.3,31z"
							/>
						<path class="st3" d="M64.7,46.5h64.8V7.9h-24.5v7.7h16.3v23.1H56.5v30.8H16.2v-23h16.2v-7.7H8v38.5H81v-7.6H64.7L64.7,46.5z"
							/>
					</g>
					<g transform="translate(0.082 125.35)">
						<path class="st3" d="M40.3,31H0v53.9h88.9V61.8H72.7v-7.5h64.7V0H97.2v23.1h16.1V31H48.5v30.7H24.2V54h16.2L40.3,31L40.3,31z"
							/>
						<path class="st3" d="M64.7,46.5h64.8V7.9h-24.5v7.7h16.3v23.1H56.5v30.8H16.2v-23h16.2v-7.7H8v38.5H81v-7.6H64.7L64.7,46.5z"
							/>
					</g>
					<g transform="translate(0.082 63.794)">
						<path class="st3" d="M40.3,31H0v53.9h88.9V61.8H72.7v-7.5h64.7V0H97.2v23.1h16.1V31H48.5v30.7H24.2V54h16.2L40.3,31L40.3,31z"
							/>
						<path class="st3" d="M64.7,46.5h64.8V7.9h-24.5v7.7h16.3v23.1H56.5v30.8H16.2v-23h16.2v-7.7H8v38.5H81v-7.6H64.7L64.7,46.5z"
							/>
					</g>
					<g transform="translate(0.082 1.882)">
						<path class="st3" d="M40.3,31H0v53.9h88.9V61.8H72.7v-7.5h64.7V0H97.2v23.1h16.1V31H48.5v30.7H24.2V54h16.2L40.3,31L40.3,31z"
							/>
						<path class="st3" d="M64.7,46.5h64.8V7.9h-24.5v7.7h16.3v23.1H56.5v30.8H16.2v-23h16.2v-7.7H8v38.5H81v-7.6H64.7L64.7,46.5z"
							/>
					</g>
				</g>
				<g transform="translate(564.975 -36.27)" class="st2">
					<g transform="translate(437.368 432.257)">
						<path class="st3" d="M40.3,31H0v53.9h88.9V61.8H72.7v-7.5h64.7V0H97.2v23.2h16.1V31H48.5v30.7H24.2V54h16.2L40.3,31L40.3,31z"
							/>
						<path class="st3" d="M64.7,46.5h64.8V7.9h-24.5v7.7h16.3v23.1H56.5v30.8H16.2v-23h16.2v-7.8H8v38.5H81v-7.6H64.7L64.7,46.5z"
							/>
					</g>
					<g transform="translate(437.368 370.344)">
						<path class="st3" d="M40.3,31H0v53.9h88.9V61.8H72.7v-7.5h64.7V0H97.2v23.1h16.1V31H48.5v30.7H24.2V54h16.2L40.3,31L40.3,31z"
							/>
						<path class="st3" d="M64.7,46.5h64.8V7.9h-24.5v7.7h16.3v23.1H56.5v30.8H16.2v-23h16.2v-7.7H8v38.5H81v-7.6H64.7L64.7,46.5z"
							/>
					</g>
					<g transform="translate(437.45 308.455)">
						<path class="st3" d="M40.3,31H0v53.9h88.9V61.8H72.7v-7.5h64.7V0H97.2v23.1h16.1V31H48.5v30.7H24.2V54h16.2L40.3,31L40.3,31z"
							/>
						<path class="st3" d="M64.7,46.5h64.8V7.9h-24.5v7.7h16.3v23.1H56.5v30.8H16.2v-23h16.2v-7.7H8v38.5H81v-7.6H64.7L64.7,46.5z"
							/>
					</g>
					<g transform="translate(437.45 246.543)">
						<path class="st3" d="M40.3,31H0v53.9h88.9V61.8H72.7v-7.5h64.7V0H97.2v23.1h16.1V31H48.5v30.7H24.2V54h16.2L40.3,31L40.3,31z"
							/>
						<path class="st3" d="M64.7,46.5h64.8V7.9h-24.5v7.7h16.3v23.1H56.5v30.8H16.2v-23h16.2v-7.7H8v38.5H81v-7.6H64.7L64.7,46.5z"
							/>
					</g>
					<g transform="translate(437.45 185.381)">
						<path class="st3" d="M40.3,31H0v53.9h88.9V61.8H72.7v-7.5h64.7V0H97.2v23.1h16.1V31H48.5v30.7H24.2V54h16.2L40.3,31L40.3,31z"
							/>
						<path class="st3" d="M64.7,46.5h64.8V7.9h-24.5v7.7h16.3v23.1H56.5v30.8H16.2v-23h16.2v-7.7H8v38.5H81v-7.6H64.7L64.7,46.5z"
							/>
					</g>
					<g transform="translate(437.45 123.468)">
						<path class="st3" d="M40.3,31H0v53.9h88.9V61.8H72.7v-7.5h64.7V0H97.2v23.1h16.1V31H48.5v30.7H24.2V54h16.2L40.3,31L40.3,31z"
							/>
						<path class="st3" d="M64.7,46.5h64.8V7.9h-24.5v7.7h16.3v23.1H56.5v30.8H16.2v-23h16.2v-7.7H8v38.5H81v-7.6H64.7L64.7,46.5z"
							/>
					</g>
					<g transform="translate(437.45 61.912)">
						<path class="st3" d="M40.3,31H0v53.9h88.9V61.8H72.7v-7.5h64.7V0H97.2v23.1h16.1V31H48.5v30.7H24.2V54h16.2L40.3,31L40.3,31z"
							/>
						<path class="st3" d="M64.7,46.5h64.8V7.9h-24.5v7.7h16.3v23.1H56.5v30.8H16.2v-23h16.2v-7.7H8v38.5H81v-7.6H64.7L64.7,46.5z"
							/>
					</g>
					<g transform="translate(437.45)">
						<path class="st3" d="M40.3,31H0v53.9h88.9V61.8H72.7v-7.5h64.7V0H97.2v23.1h16.1V31H48.5v30.7H24.2V54h16.2L40.3,31L40.3,31z"
							/>
						<path class="st3" d="M64.7,46.5h64.8V7.9h-24.5v7.7h16.3v23.1H56.5v30.8H16.2v-23h16.2v-7.7H8v38.5H81v-7.6H64.7L64.7,46.5z"
							/>
					</g>
					<g transform="translate(291.519 433.229)">
						<path class="st3" d="M40.3,31H0v53.9h88.9V61.8H72.7v-7.5h64.7V0H97.2v23.1h16.1V31H48.5v30.7H24.2V54h16.2L40.3,31L40.3,31z"
							/>
						<path class="st3" d="M64.7,46.5h64.8V7.9h-24.5v7.7h16.3v23.1H56.5v30.8H16.2v-23h16.2v-7.7H8v38.5H81v-7.6H64.7L64.7,46.5z"
							/>
					</g>
					<g transform="translate(291.519 371.316)">
						<path class="st3" d="M40.3,31H0v53.9h88.9V61.8H72.7v-7.5h64.7V0H97.2v23.1h16.1V31H48.5v30.7H24.2V54h16.2L40.3,31L40.3,31z"
							/>
						<path class="st3" d="M64.7,46.5h64.8V7.9h-24.5v7.7h16.3v23.1H56.5v30.8H16.2v-23h16.2v-7.7H8v38.5H81v-7.6H64.7L64.7,46.5z"
							/>
					</g>
					<g transform="translate(291.601 309.427)">
						<path class="st3" d="M40.3,31H0v53.9h88.9V61.8H72.7v-7.5h64.7V0H97.2v23.1h16.1V31H48.5v30.7H24.2V54h16.2L40.3,31L40.3,31z"
							/>
						<path class="st3" d="M64.7,46.5h64.8V7.9h-24.5v7.7h16.3v23.1H56.5v30.8H16.2v-23h16.2v-7.7H8v38.5H81v-7.6H64.7L64.7,46.5z"
							/>
					</g>
					<g transform="translate(291.601 247.515)">
						<path class="st3" d="M40.3,31H0v53.9h88.9V61.8H72.7v-7.5h64.7V0H97.2v23.1h16.1V31H48.5v30.7H24.2V54h16.2L40.3,31L40.3,31z"
							/>
						<path class="st3" d="M64.7,46.5h64.8V7.9h-24.5v7.7h16.3v23.1H56.5v30.8H16.2v-23h16.2v-7.7H8v38.5H81v-7.6H64.7L64.7,46.5z"
							/>
					</g>
					<g transform="translate(291.601 186.353)">
						<path class="st3" d="M40.3,31H0v53.9h88.9V61.8H72.7v-7.5h64.7V0H97.2v23.1h16.1V31H48.5v30.7H24.2V54h16.2L40.3,31L40.3,31z"
							/>
						<path class="st3" d="M64.7,46.5h64.8V7.9h-24.5v7.7h16.3v23.1H56.5v30.8H16.2v-23h16.2v-7.7H8v38.5H81v-7.6H64.7L64.7,46.5z"
							/>
					</g>
					<g transform="translate(291.601 124.441)">
						<path class="st3" d="M40.3,31H0v53.9h88.9V61.8H72.7v-7.5h64.7V0H97.2v23.2h16.1V31H48.5v30.7H24.2V54h16.2L40.3,31L40.3,31z"
							/>
						<path class="st3" d="M64.7,46.5h64.8V7.9h-24.5v7.7h16.3v23.1H56.5v30.8H16.2v-23h16.2v-7.7H8v38.5H81v-7.6H64.7L64.7,46.5z"
							/>
					</g>
					<g transform="translate(291.601 62.885)">
						<path class="st3" d="M40.3,31H0v53.9h88.9V61.8H72.7v-7.5h64.7V0H97.2v23.1h16.1V31H48.5v30.7H24.2V54h16.2L40.3,31L40.3,31z"
							/>
						<path class="st3" d="M64.7,46.5h64.8V7.9h-24.5v7.7h16.3v23.1H56.5v30.8H16.2v-23h16.2v-7.7H8v38.5H81v-7.6H64.7L64.7,46.5z"
							/>
					</g>
					<g transform="translate(291.601 0.972)">
						<path class="st3" d="M40.3,31H0v53.9h88.9V61.8H72.7v-7.5h64.7V0H97.2v23.1h16.1V31H48.5v30.7H24.2V54h16.2L40.3,31L40.3,31z"
							/>
						<path class="st3" d="M64.7,46.5h64.8V7.9h-24.5v7.7h16.3v23.1H56.5v30.8H16.2v-23h16.2v-7.7H8v38.5H81v-7.6H64.7L64.7,46.5z"
							/>
					</g>
					<g transform="translate(145.849 433.165)">
						<path class="st3" d="M40.3,31H0v53.9h88.9V61.8H72.7v-7.5h64.7V0H97.2v23.1h16.1V31H48.5v30.7H24.2V54h16.2L40.3,31L40.3,31z"
							/>
						<path class="st3" d="M64.7,46.5h64.8V7.9h-24.5v7.7h16.3v23.1H56.5v30.8H16.2v-23h16.2v-7.7H8v38.5H81v-7.6H64.7L64.7,46.5z"
							/>
					</g>
					<g transform="translate(145.849 371.253)">
						<path class="st3" d="M40.3,31H0v53.9h88.9V61.8H72.7v-7.5h64.7V0H97.2v23.1h16.1V31H48.5v30.7H24.2V54h16.2L40.3,31L40.3,31z"
							/>
						<path class="st3" d="M64.7,46.5h64.8V7.9h-24.5v7.7h16.3v23.1H56.5v30.8H16.2v-23h16.2v-7.7H8v38.5H81v-7.6H64.7L64.7,46.5z"
							/>
					</g>
					<g transform="translate(145.931 309.364)">
						<path class="st3" d="M40.3,31H0v53.9h88.9V61.8H72.7v-7.5h64.7V0H97.2v23.1h16.1V31H48.5v30.7H24.2V54h16.2L40.3,31L40.3,31z"
							/>
						<path class="st3" d="M64.7,46.5h64.8V7.9h-24.5v7.7h16.3v23.1H56.5v30.8H16.2v-23h16.2v-7.7H8v38.5H81v-7.6H64.7L64.7,46.5z"
							/>
					</g>
					<g transform="translate(145.931 247.452)">
						<path class="st3" d="M40.3,31H0v53.9h88.9V61.8H72.7v-7.5h64.7V0H97.2v23.1h16.1V31H48.5v30.7H24.2V54h16.2L40.3,31L40.3,31z"
							/>
						<path class="st3" d="M64.7,46.5h64.8V7.9h-24.5v7.7h16.3v23.1H56.5v30.8H16.2v-23h16.2v-7.7H8v38.5H81v-7.6H64.7L64.7,46.5z"
							/>
					</g>
					<g transform="translate(145.931 186.29)">
						<path class="st3" d="M40.3,31H0v53.9h88.9V61.8H72.7v-7.5h64.7V0H97.2v23.1h16.1V31H48.5v30.7H24.2V54h16.2L40.3,31L40.3,31z"
							/>
						<path class="st3" d="M64.7,46.5h64.8V7.9h-24.5v7.7h16.3v23.1H56.5v30.8H16.2v-23h16.2v-7.7H8v38.5H81v-7.6H64.7L64.7,46.5z"
							/>
					</g>
					<g transform="translate(145.931 124.377)">
						<path class="st3" d="M40.3,31H0v53.9h88.9V61.8H72.7v-7.5h64.7V0H97.2v23.1h16.1V31H48.5v30.7H24.2V54h16.2L40.3,31L40.3,31z"
							/>
						<path class="st3" d="M64.7,46.5h64.8V7.9h-24.5v7.7h16.3v23.1H56.5v30.8H16.2v-23h16.2v-7.7H8v38.5H81v-7.6H64.7L64.7,46.5z"
							/>
					</g>
					<g transform="translate(145.931 62.821)">
						<path class="st3" d="M40.3,31H0v53.9h88.9V61.8H72.7v-7.5h64.7V0H97.2v23.1h16.1V31H48.5v30.7H24.2V54h16.2L40.3,31L40.3,31z"
							/>
						<path class="st3" d="M64.7,46.5h64.8V7.9h-24.5v7.7h16.3v23.1H56.5v30.8H16.2v-23h16.2v-7.7H8v38.5H81v-7.6H64.7L64.7,46.5z"
							/>
					</g>
					<g transform="translate(145.931 0.909)">
						<path class="st3" d="M40.3,31H0v53.9h88.9V61.8H72.7v-7.5h64.7V0H97.2v23.1h16.1V31H48.5v30.7H24.2V54h16.2L40.3,31L40.3,31z"
							/>
						<path class="st3" d="M64.7,46.5h64.8V7.9h-24.5v7.7h16.3v23.1H56.5v30.8H16.2v-23h16.2v-7.7H8v38.5H81v-7.6H64.7L64.7,46.5z"
							/>
					</g>
					<g transform="translate(0 434.138)">
						<path class="st3" d="M40.3,31H0v53.9h88.9V61.8H72.7v-7.5h64.7V0H97.2v23.1h16.1V31H48.5v30.7H24.2V54h16.2L40.3,31L40.3,31z"
							/>
						<path class="st3" d="M64.7,46.5h64.8V7.9h-24.5v7.7h16.3v23.1H56.5v30.8H16.2v-23h16.2v-7.7H8v38.5H81v-7.6H64.7L64.7,46.5z"
							/>
					</g>
					<g transform="translate(0 372.226)">
						<path class="st3" d="M40.3,31H0v53.9h88.9V61.8H72.7v-7.5h64.7V0H97.2v23.1h16.1V31H48.5v30.7H24.2V54h16.2L40.3,31L40.3,31z"
							/>
						<path class="st3" d="M64.7,46.5h64.8V7.9h-24.5v7.7h16.3v23.1H56.5v30.8H16.2v-23h16.2v-7.7H8v38.5H81v-7.6H64.7L64.7,46.5z"
							/>
					</g>
					<g transform="translate(0.082 310.336)">
						<path class="st3" d="M40.3,31H0v53.9h88.9V61.8H72.7v-7.5h64.7V0H97.2v23.1h16.1V31H48.5v30.7H24.2V54h16.2L40.3,31L40.3,31z"
							/>
						<path class="st3" d="M64.7,46.5h64.8V7.9h-24.5v7.7h16.3v23.1H56.5v30.8H16.2v-23h16.2v-7.7H8v38.5H81v-7.6H64.7L64.7,46.5z"
							/>
					</g>
					<g transform="translate(0.082 248.424)">
						<path class="st3" d="M40.3,31H0v53.9h88.9V61.8H72.7v-7.5h64.7V0H97.2v23.1h16.1V31H48.5v30.7H24.2V54h16.2L40.3,31L40.3,31z"
							/>
						<path class="st3" d="M64.7,46.5h64.8V7.9h-24.5v7.7h16.3v23.1H56.5v30.8H16.2v-23h16.2v-7.7H8v38.5H81v-7.6H64.7L64.7,46.5z"
							/>
					</g>
					<g transform="translate(0.082 187.262)">
						<path class="st3" d="M40.3,31H0v53.9h88.9V61.8H72.7v-7.5h64.7V0H97.2v23.1h16.1V31H48.5v30.7H24.2V54h16.2L40.3,31L40.3,31z"
							/>
						<path class="st3" d="M64.7,46.5h64.8V7.9h-24.5v7.7h16.3v23.1H56.5v30.8H16.2v-23h16.2v-7.7H8v38.5H81v-7.6H64.7L64.7,46.5z"
							/>
					</g>
					<g transform="translate(0.082 125.35)">
						<path class="st3" d="M40.3,31H0v53.9h88.9V61.8H72.7v-7.5h64.7V0H97.2v23.1h16.1V31H48.5v30.7H24.2V54h16.2L40.3,31L40.3,31z"
							/>
						<path class="st3" d="M64.7,46.5h64.8V7.9h-24.5v7.7h16.3v23.1H56.5v30.8H16.2v-23h16.2v-7.7H8v38.5H81v-7.6H64.7L64.7,46.5z"
							/>
					</g>
					<g transform="translate(0.082 63.794)">
						<path class="st3" d="M40.3,31H0v53.9h88.9V61.8H72.7v-7.5h64.7V0H97.2v23.1h16.1V31H48.5v30.7H24.2V54h16.2L40.3,31L40.3,31z"
							/>
						<path class="st3" d="M64.7,46.5h64.8V7.9h-24.5v7.7h16.3v23.1H56.5v30.8H16.2v-23h16.2v-7.7H8v38.5H81v-7.6H64.7L64.7,46.5z"
							/>
					</g>
					<g transform="translate(0.082 1.882)">
						<path class="st3" d="M40.3,31H0v53.9h88.9V61.8H72.7v-7.5h64.7V0H97.2v23.1h16.1V31H48.5v30.7H24.2V54h16.2L40.3,31L40.3,31z"
							/>
						<path class="st3" d="M64.7,46.5h64.8V7.9h-24.5v7.7h16.3v23.1H56.5v30.8H16.2v-23h16.2v-7.7H8v38.5H81v-7.6H64.7L64.7,46.5z"
							/>
					</g>
				</g>
			</g>
		</g>
	</g>
</g>
<g transform="translate(-137.526 -75.846)">
	<g transform="translate(137.526 75.846)">
		<g transform="translate(0)">
			<path class="st4" d="M159.4,119.5l-0.5,157.9c0.1,1.3-0.5,2.6-1.6,3.3c-0.5,0.2-1,0.4-1.5,0.4c0,0-0.1,0-0.1,0l-13,8.2
				c-0.2,0.6-0.7,1.1-1.3,1.5c-0.5,0.2-1,0.4-1.5,0.4c-0.8,0-1.7-0.3-2.4-0.7l-72.1-39.7c-2.9-1.8-4.8-4.9-5-8.3l0.5-157.9
				c-0.1-1.3,0.5-2.6,1.6-3.3c0.1-0.1,0.3,0,0.4-0.1l14.6-9.2c0.3-0.4,0.7-0.7,1.2-0.8c1.2-0.3,2.5-0.2,3.5,0.5l72.1,39.7
				C157.3,113,159.2,116.1,159.4,119.5z M132.1,138l-59.8-32.9l-0.4,115.4l59.8,32.9L132.1,138z"/>
			<path class="st5" d="M60.4,242.3c0.2,3.4,2.1,6.5,5,8.3l72.1,39.7c0.7,0.4,1.5,0.7,2.4,0.7c0.5,0,1-0.1,1.5-0.4
				c0.6-0.3,1-0.8,1.3-1.5l13-8.2c0,0,0.1,0,0.1,0c0.5,0,1-0.1,1.5-0.4c1.1-0.7,1.8-2,1.6-3.3l0.5-157.9c-0.2-3.4-2.1-6.5-5-8.3
				L82.3,71.5c-1-0.7-2.3-0.8-3.5-0.5c-0.5,0.2-0.9,0.5-1.2,0.8L63,81.1c-0.1,0.1-0.3,0-0.4,0.1c-1.1,0.7-1.8,2-1.6,3.3L60.4,242.3z
				 M139.8,287.9c-0.6,0.2-1.2,0.2-1.8-0.2L65.9,248c-1.7-1-2.7-2.8-2.9-4.7l0.5-157.9c-0.1-0.6,0.2-1.2,0.7-1.5
				c0.2-0.1,0.4-0.1,0.6-0.1c0.4,0,0.8,0.1,1.2,0.3l65.4,36l0.1,0.1l0.1,0l6.6,3.6c1.7,1,2.7,2.8,2.9,4.7l-0.5,157.9
				C140.5,287,140.3,287.5,139.8,287.9L139.8,287.9z M143.1,285.8l0.5-151.6l13.2-8.3l-0.4,150.5c0,0.5-0.1,0.9-0.4,1.3l-0.4,0.3
				L143.1,285.8z M156.8,122.8l-13.2,8.3v-1.6c-0.2-3.4-2.1-6.5-5-8.3l-4.6-2.5l13.4-8.4l6.6,3.6c1.7,1,2.7,2.8,2.9,4.7L156.8,122.8
				z M80.6,73.4L80.6,73.4l0,0.4h0c0.4,0,0.8,0.1,1.1,0.3l62.9,34.6l-13.4,8.4L66.9,81.7l13.4-8.4L80.6,73.4z"/>
			<path class="st5" d="M134.5,257.2l0.4-120.6l-0.2-0.1l-65-35.8v0.7L69.2,222l0.2,0.1l65,35.8V257.2z M131.8,253.4l-59.8-32.9
				l0.4-115.4l59.8,32.9L131.8,253.4z"/>
			<path class="st5" d="M84.2,234.4c-1,0.6-1.6,1.8-1.5,3c0.2,3.1,1.9,5.9,4.5,7.5l28.6,15.7c0.7,0.4,1.4,0.6,2.2,0.6
				c0.5,0,0.9-0.1,1.4-0.3c1-0.6,1.6-1.8,1.5-3c-0.2-3.1-1.9-5.9-4.5-7.5l-28.6-15.7C86.7,234,85.4,233.9,84.2,234.4z M86,237.3
				c0.1-0.1,0.3-0.1,0.4-0.1c0.3,0,0.6,0.1,0.9,0.3l28.6,15.7c1.3,0.8,2.1,2.2,2.2,3.7c0,0.4-0.1,0.9-0.5,1.1
				c-0.4,0.2-0.9,0.1-1.3-0.2l-28.6-15.7c-1.3-0.8-2.1-2.2-2.2-3.7C85.4,238,85.6,237.5,86,237.3L86,237.3z"/>
		</g>
		<path class="st5" d="M134.5,257.2l0.4-120.6l-0.2-0.1l-65-35.8v0.7L69.2,222l0.2,0.1l65,35.8V257.2z M131.8,253.4l-59.8-32.9
			l0.4-115.4l59.8,32.9L131.8,253.4z"/>
		<path class="st6" d="M131.6,253.4l-59.8-32.9l0.4-115.4l59.8,32.9L131.6,253.4z"/>
		<g transform="translate(19.917 68.847)">
			<path class="st5" d="M60.6,70.9l43.2,23.8l-0.1,37.1L82,135l-21.6-27.1l0.1-27.2l26.3,14.5c3.3,2.2,6,6.8,6,10.5
				c0.1,1.6-0.6,3.1-1.9,4c1.2,1.8,1.9,3.9,2,6c0,3.9-2.7,6.1-6.1,4.7l-13.7-7.5l0.1-15l13.2,7.3l0.2,0.1c1,0.2,1.7-0.4,1.7-1.6
				c-0.1-1.3-0.8-2.6-1.8-3.4L65,88.4l-0.1,19.4l17,21.2l17.3-2.3L99.3,97L60.5,75.7L60.6,70.9z M86.3,115.1
				c1.1,0.2,1.8-0.2,1.8-1.5c-0.1-1.4-0.8-2.7-1.9-3.5c0,0-0.1-0.1-0.1-0.1l-8.7-4.8l0,5l8.8,4.8L86.3,115.1"/>
		</g>
	</g>
</g>
</svg>
