<?xml version="1.0" encoding="utf-8"?>
<!-- Generator: Adobe Illustrator 21.0.0, SVG Export Plug-In . SVG Version: 6.00 Build 0)  -->
<svg version="1.1" id="Réteg_1" xmlns="http://www.w3.org/2000/svg" xmlns:xlink="http://www.w3.org/1999/xlink" x="0px" y="0px"
	 viewBox="0 0 682.6 451.1" style="enable-background:new 0 0 682.6 451.1;" xml:space="preserve">
<style type="text/css">
	.st0{fill:#00C1DE;}
	.st1{clip-path:url(#SVGID_2_);}
	.st2{opacity:0.5;}
	.st3{fill:none;stroke:#FFFFFF;stroke-width:1.5;stroke-miterlimit:10;}
	.st4{fill:#031828;}
	.st5{fill:#FFFFFF;}
</style>
<g transform="translate(-2134.995 -2424.123)">
	<path class="st0" d="M2656.1,2424.1h-519.8c-3.2,60-2.7,123.4,28.7,175.4c33.7,55.7,99.7,89.5,166.8,96c22.3,2.2,45.1,1.7,66.5,7.9
		c40.4,11.7,69.2,44.7,95,76.5c19.1,23.5,38.5,47.7,64.3,64.4c28.8,18.6,65,30.8,98.3,30.8h161.5v-451.1H2656.1z"/>
	<g transform="translate(2134.995 2424.123)">
		<g>
			<defs>
				<path id="SVGID_1_" d="M521.1,0H1.3C-1.9,60-1.4,123.4,30,175.4c33.7,55.7,99.7,89.5,166.8,96c22.3,2.2,45.1,1.7,66.5,7.9
					c40.4,11.7,69.2,44.7,95,76.5c19.1,23.5,38.5,47.7,64.3,64.4c28.8,18.6,65,30.8,98.3,30.8h161.5V0H521.1z"/>
			</defs>
			<clipPath id="SVGID_2_">
				<use xlink:href="#SVGID_1_"  style="overflow:visible;"/>
			</clipPath>
			<g class="st1">
				<g transform="translate(-18.172 -36.27)" class="st2">
					<g transform="translate(437.368 432.257)">
						<path class="st3" d="M40.3,31H0v53.9h88.9V61.8H72.7v-7.5h64.7V0H97.2v23.2h16.1V31H48.5v30.7H24.2V54h16.2L40.3,31L40.3,31z"
							/>
						<path class="st3" d="M64.7,46.5h64.8V7.9h-24.5v7.7h16.3v23.1H56.5v30.8H16.2v-23h16.2v-7.8H8v38.5H81v-7.6H64.7L64.7,46.5z"
							/>
					</g>
					<g transform="translate(437.368 370.344)">
						<path class="st3" d="M40.3,31H0v53.9h88.9V61.8H72.7v-7.5h64.7V0H97.2v23.1h16.1V31H48.5v30.7H24.2V54h16.2L40.3,31L40.3,31z"
							/>
						<path class="st3" d="M64.7,46.5h64.8V7.9h-24.5v7.7h16.3v23.1H56.5v30.8H16.2v-23h16.2v-7.7H8v38.5H81v-7.6H64.7L64.7,46.5z"
							/>
					</g>
					<g transform="translate(437.45 308.455)">
						<path class="st3" d="M40.3,31H0v53.9h88.9V61.8H72.7v-7.5h64.7V0H97.2v23.1h16.1V31H48.5v30.7H24.2V54h16.2L40.3,31L40.3,31z"
							/>
						<path class="st3" d="M64.7,46.5h64.8V7.9h-24.5v7.7h16.3v23.1H56.5v30.8H16.2v-23h16.2v-7.7H8v38.5H81v-7.6H64.7L64.7,46.5z"
							/>
					</g>
					<g transform="translate(437.45 246.543)">
						<path class="st3" d="M40.3,31H0v53.9h88.9V61.8H72.7v-7.5h64.7V0H97.2v23.1h16.1V31H48.5v30.7H24.2V54h16.2L40.3,31L40.3,31z"
							/>
						<path class="st3" d="M64.7,46.5h64.8V7.9h-24.5v7.7h16.3v23.1H56.5v30.8H16.2v-23h16.2v-7.7H8v38.5H81v-7.6H64.7L64.7,46.5z"
							/>
					</g>
					<g transform="translate(437.45 185.381)">
						<path class="st3" d="M40.3,31H0v53.9h88.9V61.8H72.7v-7.5h64.7V0H97.2v23.1h16.1V31H48.5v30.7H24.2V54h16.2L40.3,31L40.3,31z"
							/>
						<path class="st3" d="M64.7,46.5h64.8V7.9h-24.5v7.7h16.3v23.1H56.5v30.8H16.2v-23h16.2v-7.7H8v38.5H81v-7.6H64.7L64.7,46.5z"
							/>
					</g>
					<g transform="translate(437.45 123.468)">
						<path class="st3" d="M40.3,31H0v53.9h88.9V61.8H72.7v-7.5h64.7V0H97.2v23.1h16.1V31H48.5v30.7H24.2V54h16.2L40.3,31L40.3,31z"
							/>
						<path class="st3" d="M64.7,46.5h64.8V7.9h-24.5v7.7h16.3v23.1H56.5v30.8H16.2v-23h16.2v-7.7H8v38.5H81v-7.6H64.7L64.7,46.5z"
							/>
					</g>
					<g transform="translate(437.45 61.912)">
						<path class="st3" d="M40.3,31H0v53.9h88.9V61.8H72.7v-7.5h64.7V0H97.2v23.1h16.1V31H48.5v30.7H24.2V54h16.2L40.3,31L40.3,31z"
							/>
						<path class="st3" d="M64.7,46.5h64.8V7.9h-24.5v7.7h16.3v23.1H56.5v30.8H16.2v-23h16.2v-7.7H8v38.5H81v-7.6H64.7L64.7,46.5z"
							/>
					</g>
					<g transform="translate(437.45)">
						<path class="st3" d="M40.3,31H0v53.9h88.9V61.8H72.7v-7.5h64.7V0H97.2v23.1h16.1V31H48.5v30.7H24.2V54h16.2L40.3,31L40.3,31z"
							/>
						<path class="st3" d="M64.7,46.5h64.8V7.9h-24.5v7.7h16.3v23.1H56.5v30.8H16.2v-23h16.2v-7.7H8v38.5H81v-7.6H64.7L64.7,46.5z"
							/>
					</g>
					<g transform="translate(291.519 433.229)">
						<path class="st3" d="M40.3,31H0v53.9h88.9V61.8H72.7v-7.5h64.7V0H97.2v23.1h16.1V31H48.5v30.7H24.2V54h16.2L40.3,31L40.3,31z"
							/>
						<path class="st3" d="M64.7,46.5h64.8V7.9h-24.5v7.7h16.3v23.1H56.5v30.8H16.2v-23h16.2v-7.7H8v38.5H81v-7.6H64.7L64.7,46.5z"
							/>
					</g>
					<g transform="translate(291.519 371.316)">
						<path class="st3" d="M40.3,31H0v53.9h88.9V61.8H72.7v-7.5h64.7V0H97.2v23.1h16.1V31H48.5v30.7H24.2V54h16.2L40.3,31L40.3,31z"
							/>
						<path class="st3" d="M64.7,46.5h64.8V7.9h-24.5v7.7h16.3v23.1H56.5v30.8H16.2v-23h16.2v-7.7H8v38.5H81v-7.6H64.7L64.7,46.5z"
							/>
					</g>
					<g transform="translate(291.601 309.427)">
						<path class="st3" d="M40.3,31H0v53.9h88.9V61.8H72.7v-7.5h64.7V0H97.2v23.1h16.1V31H48.5v30.7H24.2V54h16.2L40.3,31L40.3,31z"
							/>
						<path class="st3" d="M64.7,46.5h64.8V7.9h-24.5v7.7h16.3v23.1H56.5v30.8H16.2v-23h16.2v-7.7H8v38.5H81v-7.6H64.7L64.7,46.5z"
							/>
					</g>
					<g transform="translate(291.601 247.515)">
						<path class="st3" d="M40.3,31H0v53.9h88.9V61.8H72.7v-7.5h64.7V0H97.2v23.1h16.1V31H48.5v30.7H24.2V54h16.2L40.3,31L40.3,31z"
							/>
						<path class="st3" d="M64.7,46.5h64.8V7.9h-24.5v7.7h16.3v23.1H56.5v30.8H16.2v-23h16.2v-7.7H8v38.5H81v-7.6H64.7L64.7,46.5z"
							/>
					</g>
					<g transform="translate(291.601 186.353)">
						<path class="st3" d="M40.3,31H0v53.9h88.9V61.8H72.7v-7.5h64.7V0H97.2v23.1h16.1V31H48.5v30.7H24.2V54h16.2L40.3,31L40.3,31z"
							/>
						<path class="st3" d="M64.7,46.5h64.8V7.9h-24.5v7.7h16.3v23.1H56.5v30.8H16.2v-23h16.2v-7.7H8v38.5H81v-7.6H64.7L64.7,46.5z"
							/>
					</g>
					<g transform="translate(291.601 124.441)">
						<path class="st3" d="M40.3,31H0v53.9h88.9V61.8H72.7v-7.5h64.7V0H97.2v23.2h16.1V31H48.5v30.7H24.2V54h16.2L40.3,31L40.3,31z"
							/>
						<path class="st3" d="M64.7,46.5h64.8V7.9h-24.5v7.7h16.3v23.1H56.5v30.8H16.2v-23h16.2v-7.7H8v38.5H81v-7.6H64.7L64.7,46.5z"
							/>
					</g>
					<g transform="translate(291.601 62.885)">
						<path class="st3" d="M40.3,31H0v53.9h88.9V61.8H72.7v-7.5h64.7V0H97.2v23.1h16.1V31H48.5v30.7H24.2V54h16.2L40.3,31L40.3,31z"
							/>
						<path class="st3" d="M64.7,46.5h64.8V7.9h-24.5v7.7h16.3v23.1H56.5v30.8H16.2v-23h16.2v-7.7H8v38.5H81v-7.6H64.7L64.7,46.5z"
							/>
					</g>
					<g transform="translate(291.601 0.972)">
						<path class="st3" d="M40.3,31H0v53.9h88.9V61.8H72.7v-7.5h64.7V0H97.2v23.1h16.1V31H48.5v30.7H24.2V54h16.2L40.3,31L40.3,31z"
							/>
						<path class="st3" d="M64.7,46.5h64.8V7.9h-24.5v7.7h16.3v23.1H56.5v30.8H16.2v-23h16.2v-7.7H8v38.5H81v-7.6H64.7L64.7,46.5z"
							/>
					</g>
					<g transform="translate(145.849 433.165)">
						<path class="st3" d="M40.3,31H0v53.9h88.9V61.8H72.7v-7.5h64.7V0H97.2v23.1h16.1V31H48.5v30.7H24.2V54h16.2L40.3,31L40.3,31z"
							/>
						<path class="st3" d="M64.7,46.5h64.8V7.9h-24.5v7.7h16.3v23.1H56.5v30.8H16.2v-23h16.2v-7.7H8v38.5H81v-7.6H64.7L64.7,46.5z"
							/>
					</g>
					<g transform="translate(145.849 371.253)">
						<path class="st3" d="M40.3,31H0v53.9h88.9V61.8H72.7v-7.5h64.7V0H97.2v23.1h16.1V31H48.5v30.7H24.2V54h16.2L40.3,31L40.3,31z"
							/>
						<path class="st3" d="M64.7,46.5h64.8V7.9h-24.5v7.7h16.3v23.1H56.5v30.8H16.2v-23h16.2v-7.7H8v38.5H81v-7.6H64.7L64.7,46.5z"
							/>
					</g>
					<g transform="translate(145.931 309.364)">
						<path class="st3" d="M40.3,31H0v53.9h88.9V61.8H72.7v-7.5h64.7V0H97.2v23.1h16.1V31H48.5v30.7H24.2V54h16.2L40.3,31L40.3,31z"
							/>
						<path class="st3" d="M64.7,46.5h64.8V7.9h-24.5v7.7h16.3v23.1H56.5v30.8H16.2v-23h16.2v-7.7H8v38.5H81v-7.6H64.7L64.7,46.5z"
							/>
					</g>
					<g transform="translate(145.931 247.452)">
						<path class="st3" d="M40.3,31H0v53.9h88.9V61.8H72.7v-7.5h64.7V0H97.2v23.1h16.1V31H48.5v30.7H24.2V54h16.2L40.3,31L40.3,31z"
							/>
						<path class="st3" d="M64.7,46.5h64.8V7.9h-24.5v7.7h16.3v23.1H56.5v30.8H16.2v-23h16.2v-7.7H8v38.5H81v-7.6H64.7L64.7,46.5z"
							/>
					</g>
					<g transform="translate(145.931 186.29)">
						<path class="st3" d="M40.3,31H0v53.9h88.9V61.8H72.7v-7.5h64.7V0H97.2v23.1h16.1V31H48.5v30.7H24.2V54h16.2L40.3,31L40.3,31z"
							/>
						<path class="st3" d="M64.7,46.5h64.8V7.9h-24.5v7.7h16.3v23.1H56.5v30.8H16.2v-23h16.2v-7.7H8v38.5H81v-7.6H64.7L64.7,46.5z"
							/>
					</g>
					<g transform="translate(145.931 124.377)">
						<path class="st3" d="M40.3,31H0v53.9h88.9V61.8H72.7v-7.5h64.7V0H97.2v23.1h16.1V31H48.5v30.7H24.2V54h16.2L40.3,31L40.3,31z"
							/>
						<path class="st3" d="M64.7,46.5h64.8V7.9h-24.5v7.7h16.3v23.1H56.5v30.8H16.2v-23h16.2v-7.7H8v38.5H81v-7.6H64.7L64.7,46.5z"
							/>
					</g>
					<g transform="translate(145.931 62.821)">
						<path class="st3" d="M40.3,31H0v53.9h88.9V61.8H72.7v-7.5h64.7V0H97.2v23.1h16.1V31H48.5v30.7H24.2V54h16.2L40.3,31L40.3,31z"
							/>
						<path class="st3" d="M64.7,46.5h64.8V7.9h-24.5v7.7h16.3v23.1H56.5v30.8H16.2v-23h16.2v-7.7H8v38.5H81v-7.6H64.7L64.7,46.5z"
							/>
					</g>
					<g transform="translate(145.931 0.909)">
						<path class="st3" d="M40.3,31H0v53.9h88.9V61.8H72.7v-7.5h64.7V0H97.2v23.1h16.1V31H48.5v30.7H24.2V54h16.2L40.3,31L40.3,31z"
							/>
						<path class="st3" d="M64.7,46.5h64.8V7.9h-24.5v7.7h16.3v23.1H56.5v30.8H16.2v-23h16.2v-7.7H8v38.5H81v-7.6H64.7L64.7,46.5z"
							/>
					</g>
					<g transform="translate(0 434.138)">
						<path class="st3" d="M40.3,31H0v53.9h88.9V61.8H72.7v-7.5h64.7V0H97.2v23.1h16.1V31H48.5v30.7H24.2V54h16.2L40.3,31L40.3,31z"
							/>
						<path class="st3" d="M64.7,46.5h64.8V7.9h-24.5v7.7h16.3v23.1H56.5v30.8H16.2v-23h16.2v-7.7H8v38.5H81v-7.6H64.7L64.7,46.5z"
							/>
					</g>
					<g transform="translate(0 372.226)">
						<path class="st3" d="M40.3,31H0v53.9h88.9V61.8H72.7v-7.5h64.7V0H97.2v23.1h16.1V31H48.5v30.7H24.2V54h16.2L40.3,31L40.3,31z"
							/>
						<path class="st3" d="M64.7,46.5h64.8V7.9h-24.5v7.7h16.3v23.1H56.5v30.8H16.2v-23h16.2v-7.7H8v38.5H81v-7.6H64.7L64.7,46.5z"
							/>
					</g>
					<g transform="translate(0.082 310.336)">
						<path class="st3" d="M40.3,31H0v53.9h88.9V61.8H72.7v-7.5h64.7V0H97.2v23.1h16.1V31H48.5v30.7H24.2V54h16.2L40.3,31L40.3,31z"
							/>
						<path class="st3" d="M64.7,46.5h64.8V7.9h-24.5v7.7h16.3v23.1H56.5v30.8H16.2v-23h16.2v-7.7H8v38.5H81v-7.6H64.7L64.7,46.5z"
							/>
					</g>
					<g transform="translate(0.082 248.424)">
						<path class="st3" d="M40.3,31H0v53.9h88.9V61.8H72.7v-7.5h64.7V0H97.2v23.1h16.1V31H48.5v30.7H24.2V54h16.2L40.3,31L40.3,31z"
							/>
						<path class="st3" d="M64.7,46.5h64.8V7.9h-24.5v7.7h16.3v23.1H56.5v30.8H16.2v-23h16.2v-7.7H8v38.5H81v-7.6H64.7L64.7,46.5z"
							/>
					</g>
					<g transform="translate(0.082 187.262)">
						<path class="st3" d="M40.3,31H0v53.9h88.9V61.8H72.7v-7.5h64.7V0H97.2v23.1h16.1V31H48.5v30.7H24.2V54h16.2L40.3,31L40.3,31z"
							/>
						<path class="st3" d="M64.7,46.5h64.8V7.9h-24.5v7.7h16.3v23.1H56.5v30.8H16.2v-23h16.2v-7.7H8v38.5H81v-7.6H64.7L64.7,46.5z"
							/>
					</g>
					<g transform="translate(0.082 125.35)">
						<path class="st3" d="M40.3,31H0v53.9h88.9V61.8H72.7v-7.5h64.7V0H97.2v23.1h16.1V31H48.5v30.7H24.2V54h16.2L40.3,31L40.3,31z"
							/>
						<path class="st3" d="M64.7,46.5h64.8V7.9h-24.5v7.7h16.3v23.1H56.5v30.8H16.2v-23h16.2v-7.7H8v38.5H81v-7.6H64.7L64.7,46.5z"
							/>
					</g>
					<g transform="translate(0.082 63.794)">
						<path class="st3" d="M40.3,31H0v53.9h88.9V61.8H72.7v-7.5h64.7V0H97.2v23.1h16.1V31H48.5v30.7H24.2V54h16.2L40.3,31L40.3,31z"
							/>
						<path class="st3" d="M64.7,46.5h64.8V7.9h-24.5v7.7h16.3v23.1H56.5v30.8H16.2v-23h16.2v-7.7H8v38.5H81v-7.6H64.7L64.7,46.5z"
							/>
					</g>
					<g transform="translate(0.082 1.882)">
						<path class="st3" d="M40.3,31H0v53.9h88.9V61.8H72.7v-7.5h64.7V0H97.2v23.1h16.1V31H48.5v30.7H24.2V54h16.2L40.3,31L40.3,31z"
							/>
						<path class="st3" d="M64.7,46.5h64.8V7.9h-24.5v7.7h16.3v23.1H56.5v30.8H16.2v-23h16.2v-7.7H8v38.5H81v-7.6H64.7L64.7,46.5z"
							/>
					</g>
				</g>
				<g transform="translate(564.975 -36.27)" class="st2">
					<g transform="translate(437.368 432.257)">
						<path class="st3" d="M40.3,31H0v53.9h88.9V61.8H72.7v-7.5h64.7V0H97.2v23.2h16.1V31H48.5v30.7H24.2V54h16.2L40.3,31L40.3,31z"
							/>
						<path class="st3" d="M64.7,46.5h64.8V7.9h-24.5v7.7h16.3v23.1H56.5v30.8H16.2v-23h16.2v-7.8H8v38.5H81v-7.6H64.7L64.7,46.5z"
							/>
					</g>
					<g transform="translate(437.368 370.344)">
						<path class="st3" d="M40.3,31H0v53.9h88.9V61.8H72.7v-7.5h64.7V0H97.2v23.1h16.1V31H48.5v30.7H24.2V54h16.2L40.3,31L40.3,31z"
							/>
						<path class="st3" d="M64.7,46.5h64.8V7.9h-24.5v7.7h16.3v23.1H56.5v30.8H16.2v-23h16.2v-7.7H8v38.5H81v-7.6H64.7L64.7,46.5z"
							/>
					</g>
					<g transform="translate(437.45 308.455)">
						<path class="st3" d="M40.3,31H0v53.9h88.9V61.8H72.7v-7.5h64.7V0H97.2v23.1h16.1V31H48.5v30.7H24.2V54h16.2L40.3,31L40.3,31z"
							/>
						<path class="st3" d="M64.7,46.5h64.8V7.9h-24.5v7.7h16.3v23.1H56.5v30.8H16.2v-23h16.2v-7.7H8v38.5H81v-7.6H64.7L64.7,46.5z"
							/>
					</g>
					<g transform="translate(437.45 246.543)">
						<path class="st3" d="M40.3,31H0v53.9h88.9V61.8H72.7v-7.5h64.7V0H97.2v23.1h16.1V31H48.5v30.7H24.2V54h16.2L40.3,31L40.3,31z"
							/>
						<path class="st3" d="M64.7,46.5h64.8V7.9h-24.5v7.7h16.3v23.1H56.5v30.8H16.2v-23h16.2v-7.7H8v38.5H81v-7.6H64.7L64.7,46.5z"
							/>
					</g>
					<g transform="translate(437.45 185.381)">
						<path class="st3" d="M40.3,31H0v53.9h88.9V61.8H72.7v-7.5h64.7V0H97.2v23.1h16.1V31H48.5v30.7H24.2V54h16.2L40.3,31L40.3,31z"
							/>
						<path class="st3" d="M64.7,46.5h64.8V7.9h-24.5v7.7h16.3v23.1H56.5v30.8H16.2v-23h16.2v-7.7H8v38.5H81v-7.6H64.7L64.7,46.5z"
							/>
					</g>
					<g transform="translate(437.45 123.468)">
						<path class="st3" d="M40.3,31H0v53.9h88.9V61.8H72.7v-7.5h64.7V0H97.2v23.1h16.1V31H48.5v30.7H24.2V54h16.2L40.3,31L40.3,31z"
							/>
						<path class="st3" d="M64.7,46.5h64.8V7.9h-24.5v7.7h16.3v23.1H56.5v30.8H16.2v-23h16.2v-7.7H8v38.5H81v-7.6H64.7L64.7,46.5z"
							/>
					</g>
					<g transform="translate(437.45 61.912)">
						<path class="st3" d="M40.3,31H0v53.9h88.9V61.8H72.7v-7.5h64.7V0H97.2v23.1h16.1V31H48.5v30.7H24.2V54h16.2L40.3,31L40.3,31z"
							/>
						<path class="st3" d="M64.7,46.5h64.8V7.9h-24.5v7.7h16.3v23.1H56.5v30.8H16.2v-23h16.2v-7.7H8v38.5H81v-7.6H64.7L64.7,46.5z"
							/>
					</g>
					<g transform="translate(437.45)">
						<path class="st3" d="M40.3,31H0v53.9h88.9V61.8H72.7v-7.5h64.7V0H97.2v23.1h16.1V31H48.5v30.7H24.2V54h16.2L40.3,31L40.3,31z"
							/>
						<path class="st3" d="M64.7,46.5h64.8V7.9h-24.5v7.7h16.3v23.1H56.5v30.8H16.2v-23h16.2v-7.7H8v38.5H81v-7.6H64.7L64.7,46.5z"
							/>
					</g>
					<g transform="translate(291.519 433.229)">
						<path class="st3" d="M40.3,31H0v53.9h88.9V61.8H72.7v-7.5h64.7V0H97.2v23.1h16.1V31H48.5v30.7H24.2V54h16.2L40.3,31L40.3,31z"
							/>
						<path class="st3" d="M64.7,46.5h64.8V7.9h-24.5v7.7h16.3v23.1H56.5v30.8H16.2v-23h16.2v-7.7H8v38.5H81v-7.6H64.7L64.7,46.5z"
							/>
					</g>
					<g transform="translate(291.519 371.316)">
						<path class="st3" d="M40.3,31H0v53.9h88.9V61.8H72.7v-7.5h64.7V0H97.2v23.1h16.1V31H48.5v30.7H24.2V54h16.2L40.3,31L40.3,31z"
							/>
						<path class="st3" d="M64.7,46.5h64.8V7.9h-24.5v7.7h16.3v23.1H56.5v30.8H16.2v-23h16.2v-7.7H8v38.5H81v-7.6H64.7L64.7,46.5z"
							/>
					</g>
					<g transform="translate(291.601 309.427)">
						<path class="st3" d="M40.3,31H0v53.9h88.9V61.8H72.7v-7.5h64.7V0H97.2v23.1h16.1V31H48.5v30.7H24.2V54h16.2L40.3,31L40.3,31z"
							/>
						<path class="st3" d="M64.7,46.5h64.8V7.9h-24.5v7.7h16.3v23.1H56.5v30.8H16.2v-23h16.2v-7.7H8v38.5H81v-7.6H64.7L64.7,46.5z"
							/>
					</g>
					<g transform="translate(291.601 247.515)">
						<path class="st3" d="M40.3,31H0v53.9h88.9V61.8H72.7v-7.5h64.7V0H97.2v23.1h16.1V31H48.5v30.7H24.2V54h16.2L40.3,31L40.3,31z"
							/>
						<path class="st3" d="M64.7,46.5h64.8V7.9h-24.5v7.7h16.3v23.1H56.5v30.8H16.2v-23h16.2v-7.7H8v38.5H81v-7.6H64.7L64.7,46.5z"
							/>
					</g>
					<g transform="translate(291.601 186.353)">
						<path class="st3" d="M40.3,31H0v53.9h88.9V61.8H72.7v-7.5h64.7V0H97.2v23.1h16.1V31H48.5v30.7H24.2V54h16.2L40.3,31L40.3,31z"
							/>
						<path class="st3" d="M64.7,46.5h64.8V7.9h-24.5v7.7h16.3v23.1H56.5v30.8H16.2v-23h16.2v-7.7H8v38.5H81v-7.6H64.7L64.7,46.5z"
							/>
					</g>
					<g transform="translate(291.601 124.441)">
						<path class="st3" d="M40.3,31H0v53.9h88.9V61.8H72.7v-7.5h64.7V0H97.2v23.2h16.1V31H48.5v30.7H24.2V54h16.2L40.3,31L40.3,31z"
							/>
						<path class="st3" d="M64.7,46.5h64.8V7.9h-24.5v7.7h16.3v23.1H56.5v30.8H16.2v-23h16.2v-7.7H8v38.5H81v-7.6H64.7L64.7,46.5z"
							/>
					</g>
					<g transform="translate(291.601 62.885)">
						<path class="st3" d="M40.3,31H0v53.9h88.9V61.8H72.7v-7.5h64.7V0H97.2v23.1h16.1V31H48.5v30.7H24.2V54h16.2L40.3,31L40.3,31z"
							/>
						<path class="st3" d="M64.7,46.5h64.8V7.9h-24.5v7.7h16.3v23.1H56.5v30.8H16.2v-23h16.2v-7.7H8v38.5H81v-7.6H64.7L64.7,46.5z"
							/>
					</g>
					<g transform="translate(291.601 0.972)">
						<path class="st3" d="M40.3,31H0v53.9h88.9V61.8H72.7v-7.5h64.7V0H97.2v23.1h16.1V31H48.5v30.7H24.2V54h16.2L40.3,31L40.3,31z"
							/>
						<path class="st3" d="M64.7,46.5h64.8V7.9h-24.5v7.7h16.3v23.1H56.5v30.8H16.2v-23h16.2v-7.7H8v38.5H81v-7.6H64.7L64.7,46.5z"
							/>
					</g>
					<g transform="translate(145.849 433.165)">
						<path class="st3" d="M40.3,31H0v53.9h88.9V61.8H72.7v-7.5h64.7V0H97.2v23.1h16.1V31H48.5v30.7H24.2V54h16.2L40.3,31L40.3,31z"
							/>
						<path class="st3" d="M64.7,46.5h64.8V7.9h-24.5v7.7h16.3v23.1H56.5v30.8H16.2v-23h16.2v-7.7H8v38.5H81v-7.6H64.7L64.7,46.5z"
							/>
					</g>
					<g transform="translate(145.849 371.253)">
						<path class="st3" d="M40.3,31H0v53.9h88.9V61.8H72.7v-7.5h64.7V0H97.2v23.1h16.1V31H48.5v30.7H24.2V54h16.2L40.3,31L40.3,31z"
							/>
						<path class="st3" d="M64.7,46.5h64.8V7.9h-24.5v7.7h16.3v23.1H56.5v30.8H16.2v-23h16.2v-7.7H8v38.5H81v-7.6H64.7L64.7,46.5z"
							/>
					</g>
					<g transform="translate(145.931 309.364)">
						<path class="st3" d="M40.3,31H0v53.9h88.9V61.8H72.7v-7.5h64.7V0H97.2v23.1h16.1V31H48.5v30.7H24.2V54h16.2L40.3,31L40.3,31z"
							/>
						<path class="st3" d="M64.7,46.5h64.8V7.9h-24.5v7.7h16.3v23.1H56.5v30.8H16.2v-23h16.2v-7.7H8v38.5H81v-7.6H64.7L64.7,46.5z"
							/>
					</g>
					<g transform="translate(145.931 247.452)">
						<path class="st3" d="M40.3,31H0v53.9h88.9V61.8H72.7v-7.5h64.7V0H97.2v23.1h16.1V31H48.5v30.7H24.2V54h16.2L40.3,31L40.3,31z"
							/>
						<path class="st3" d="M64.7,46.5h64.8V7.9h-24.5v7.7h16.3v23.1H56.5v30.8H16.2v-23h16.2v-7.7H8v38.5H81v-7.6H64.7L64.7,46.5z"
							/>
					</g>
					<g transform="translate(145.931 186.29)">
						<path class="st3" d="M40.3,31H0v53.9h88.9V61.8H72.7v-7.5h64.7V0H97.2v23.1h16.1V31H48.5v30.7H24.2V54h16.2L40.3,31L40.3,31z"
							/>
						<path class="st3" d="M64.7,46.5h64.8V7.9h-24.5v7.7h16.3v23.1H56.5v30.8H16.2v-23h16.2v-7.7H8v38.5H81v-7.6H64.7L64.7,46.5z"
							/>
					</g>
					<g transform="translate(145.931 124.377)">
						<path class="st3" d="M40.3,31H0v53.9h88.9V61.8H72.7v-7.5h64.7V0H97.2v23.1h16.1V31H48.5v30.7H24.2V54h16.2L40.3,31L40.3,31z"
							/>
						<path class="st3" d="M64.7,46.5h64.8V7.9h-24.5v7.7h16.3v23.1H56.5v30.8H16.2v-23h16.2v-7.7H8v38.5H81v-7.6H64.7L64.7,46.5z"
							/>
					</g>
					<g transform="translate(145.931 62.821)">
						<path class="st3" d="M40.3,31H0v53.9h88.9V61.8H72.7v-7.5h64.7V0H97.2v23.1h16.1V31H48.5v30.7H24.2V54h16.2L40.3,31L40.3,31z"
							/>
						<path class="st3" d="M64.7,46.5h64.8V7.9h-24.5v7.7h16.3v23.1H56.5v30.8H16.2v-23h16.2v-7.7H8v38.5H81v-7.6H64.7L64.7,46.5z"
							/>
					</g>
					<g transform="translate(145.931 0.909)">
						<path class="st3" d="M40.3,31H0v53.9h88.9V61.8H72.7v-7.5h64.7V0H97.2v23.1h16.1V31H48.5v30.7H24.2V54h16.2L40.3,31L40.3,31z"
							/>
						<path class="st3" d="M64.7,46.5h64.8V7.9h-24.5v7.7h16.3v23.1H56.5v30.8H16.2v-23h16.2v-7.7H8v38.5H81v-7.6H64.7L64.7,46.5z"
							/>
					</g>
					<g transform="translate(0 434.138)">
						<path class="st3" d="M40.3,31H0v53.9h88.9V61.8H72.7v-7.5h64.7V0H97.2v23.1h16.1V31H48.5v30.7H24.2V54h16.2L40.3,31L40.3,31z"
							/>
						<path class="st3" d="M64.7,46.5h64.8V7.9h-24.5v7.7h16.3v23.1H56.5v30.8H16.2v-23h16.2v-7.7H8v38.5H81v-7.6H64.7L64.7,46.5z"
							/>
					</g>
					<g transform="translate(0 372.226)">
						<path class="st3" d="M40.3,31H0v53.9h88.9V61.8H72.7v-7.5h64.7V0H97.2v23.1h16.1V31H48.5v30.7H24.2V54h16.2L40.3,31L40.3,31z"
							/>
						<path class="st3" d="M64.7,46.5h64.8V7.9h-24.5v7.7h16.3v23.1H56.5v30.8H16.2v-23h16.2v-7.7H8v38.5H81v-7.6H64.7L64.7,46.5z"
							/>
					</g>
					<g transform="translate(0.082 310.336)">
						<path class="st3" d="M40.3,31H0v53.9h88.9V61.8H72.7v-7.5h64.7V0H97.2v23.1h16.1V31H48.5v30.7H24.2V54h16.2L40.3,31L40.3,31z"
							/>
						<path class="st3" d="M64.7,46.5h64.8V7.9h-24.5v7.7h16.3v23.1H56.5v30.8H16.2v-23h16.2v-7.7H8v38.5H81v-7.6H64.7L64.7,46.5z"
							/>
					</g>
					<g transform="translate(0.082 248.424)">
						<path class="st3" d="M40.3,31H0v53.9h88.9V61.8H72.7v-7.5h64.7V0H97.2v23.1h16.1V31H48.5v30.7H24.2V54h16.2L40.3,31L40.3,31z"
							/>
						<path class="st3" d="M64.7,46.5h64.8V7.9h-24.5v7.7h16.3v23.1H56.5v30.8H16.2v-23h16.2v-7.7H8v38.5H81v-7.6H64.7L64.7,46.5z"
							/>
					</g>
					<g transform="translate(0.082 187.262)">
						<path class="st3" d="M40.3,31H0v53.9h88.9V61.8H72.7v-7.5h64.7V0H97.2v23.1h16.1V31H48.5v30.7H24.2V54h16.2L40.3,31L40.3,31z"
							/>
						<path class="st3" d="M64.7,46.5h64.8V7.9h-24.5v7.7h16.3v23.1H56.5v30.8H16.2v-23h16.2v-7.7H8v38.5H81v-7.6H64.7L64.7,46.5z"
							/>
					</g>
					<g transform="translate(0.082 125.35)">
						<path class="st3" d="M40.3,31H0v53.9h88.9V61.8H72.7v-7.5h64.7V0H97.2v23.1h16.1V31H48.5v30.7H24.2V54h16.2L40.3,31L40.3,31z"
							/>
						<path class="st3" d="M64.7,46.5h64.8V7.9h-24.5v7.7h16.3v23.1H56.5v30.8H16.2v-23h16.2v-7.7H8v38.5H81v-7.6H64.7L64.7,46.5z"
							/>
					</g>
					<g transform="translate(0.082 63.794)">
						<path class="st3" d="M40.3,31H0v53.9h88.9V61.8H72.7v-7.5h64.7V0H97.2v23.1h16.1V31H48.5v30.7H24.2V54h16.2L40.3,31L40.3,31z"
							/>
						<path class="st3" d="M64.7,46.5h64.8V7.9h-24.5v7.7h16.3v23.1H56.5v30.8H16.2v-23h16.2v-7.7H8v38.5H81v-7.6H64.7L64.7,46.5z"
							/>
					</g>
					<g transform="translate(0.082 1.882)">
						<path class="st3" d="M40.3,31H0v53.9h88.9V61.8H72.7v-7.5h64.7V0H97.2v23.1h16.1V31H48.5v30.7H24.2V54h16.2L40.3,31L40.3,31z"
							/>
						<path class="st3" d="M64.7,46.5h64.8V7.9h-24.5v7.7h16.3v23.1H56.5v30.8H16.2v-23h16.2v-7.7H8v38.5H81v-7.6H64.7L64.7,46.5z"
							/>
					</g>
				</g>
			</g>
		</g>
	</g>
	<g transform="translate(2204.522 2499.969)">
		<g transform="translate(0)">
			<path class="st4" d="M99,48.7l-0.5,157.9c0.1,1.3-0.5,2.6-1.6,3.3c-0.5,0.2-1,0.4-1.5,0.4c0,0-0.1,0-0.1,0l-13,8.2
				c-0.2,0.6-0.7,1.1-1.3,1.5c-0.5,0.2-1,0.4-1.5,0.4c-0.8,0-1.7-0.3-2.4-0.7L5,179.8c-2.9-1.8-4.8-4.9-5-8.3L0.5,13.6
				C0.3,12.3,1,11,2.1,10.3c0.1-0.1,0.3,0,0.4-0.1L17.2,1c0.3-0.4,0.7-0.7,1.2-0.8c1.2-0.3,2.5-0.2,3.5,0.5l72.1,39.7
				C96.9,42.1,98.8,45.2,99,48.7z M71.7,67.2L11.8,34.3l-0.4,115.4l59.8,32.9L71.7,67.2z"/>
			<path class="st5" d="M0,171.5c0.2,3.4,2.1,6.5,5,8.3l72.1,39.7c0.7,0.4,1.5,0.7,2.4,0.7c0.5,0,1-0.1,1.5-0.4
				c0.6-0.3,1-0.8,1.3-1.5l13-8.2c0,0,0.1,0,0.1,0c0.5,0,1-0.1,1.5-0.4c1.1-0.7,1.8-2,1.6-3.3L99,48.7c-0.2-3.4-2.1-6.5-5-8.3
				L21.8,0.7c-1-0.7-2.3-0.8-3.5-0.5c-0.5,0.2-0.9,0.5-1.2,0.8L2.5,10.2c-0.1,0.1-0.3,0-0.4,0.1c-1.1,0.7-1.8,2-1.6,3.3L0,171.5z
				 M79.3,217c-0.6,0.2-1.2,0.2-1.8-0.2L5.5,177.2c-1.7-1-2.7-2.8-2.9-4.7L3.1,14.6C3,14,3.3,13.4,3.8,13.1c0.2-0.1,0.4-0.1,0.6-0.1
				c0.4,0,0.8,0.1,1.2,0.3l65.4,36l0.1,0.1l0.1,0l6.6,3.6c1.7,1,2.7,2.8,2.9,4.7L80,215.5C80.1,216.1,79.8,216.7,79.3,217L79.3,217z
				 M82.6,215l0.5-151.6L96.3,55l-0.4,150.5c0,0.5-0.1,0.9-0.4,1.3l-0.4,0.3L82.6,215z M96.3,51.9l-13.2,8.3v-1.6
				c-0.2-3.4-2.1-6.5-5-8.3l-4.6-2.5l13.4-8.4l6.6,3.6c1.7,1,2.7,2.8,2.9,4.7L96.3,51.9z M20.2,2.5L20.2,2.5l0,0.4h0
				c0.4,0,0.8,0.1,1.1,0.3l62.9,34.6l-13.4,8.4L6.4,10.9l13.4-8.4L20.2,2.5z"/>
			<path class="st5" d="M74,186.3l0.4-120.6l-0.2-0.1l-65-35.8v0.7L8.8,151.2l0.2,0.1l65,35.8V186.3z M71.3,182.6l-59.8-32.9
				l0.4-115.4l59.8,32.9L71.3,182.6z"/>
			<path class="st5" d="M23.8,163.6c-1,0.6-1.6,1.8-1.5,3c0.2,3.1,1.9,5.9,4.5,7.5l28.6,15.7c0.7,0.4,1.4,0.6,2.2,0.6
				c0.5,0,0.9-0.1,1.4-0.3c1-0.6,1.6-1.8,1.5-3c-0.2-3.1-1.9-5.9-4.5-7.5l-28.6-15.7C26.3,163.1,24.9,163,23.8,163.6z M25.6,166.4
				c0.1-0.1,0.3-0.1,0.4-0.1c0.3,0,0.6,0.1,0.9,0.3l28.6,15.7c1.3,0.8,2.1,2.2,2.2,3.7c0,0.4-0.1,0.9-0.5,1.1
				c-0.4,0.2-0.9,0.1-1.3-0.2l-28.6-15.7c-1.3-0.8-2.1-2.2-2.2-3.7C25,167.1,25.2,166.7,25.6,166.4L25.6,166.4z"/>
		</g>
		<path class="st5" d="M74,186.3l0.4-120.6l-0.2-0.1l-65-35.8v0.7L8.8,151.2l0.2,0.1l65,35.8V186.3z M71.3,182.6l-59.8-32.9
			l0.4-115.4l59.8,32.9L71.3,182.6z"/>
		<path class="st0" d="M71.1,182.6l-59.8-32.9l0.4-115.4l59.8,32.9L71.1,182.6z"/>
		<g transform="translate(19.917 68.847)">
			<path class="st5" d="M0.1,0l43.2,23.8l-0.1,37.1l-21.6,3.4L0,37.1L0.1,9.9l26.3,14.5c3.3,2.2,6,6.8,6,10.5c0.1,1.6-0.6,3.1-1.9,4
				c1.2,1.8,1.9,3.9,2,6c0,3.9-2.7,6.1-6.1,4.7L12.6,42l0.1-15l13.2,7.3l0.2,0.1c1,0.2,1.7-0.4,1.7-1.6c-0.1-1.3-0.8-2.6-1.8-3.4
				L4.5,17.5L4.4,37l17,21.2l17.3-2.3l0.1-29.7L0.1,4.9L0.1,0z M25.8,44.3c1.1,0.2,1.8-0.2,1.8-1.5c-0.1-1.4-0.8-2.7-1.9-3.5
				c0,0-0.1-0.1-0.1-0.1l-8.7-4.8l0,5l8.8,4.8L25.8,44.3"/>
		</g>
	</g>
</g>
</svg>
