<?xml version="1.0" encoding="utf-8"?>
<!-- Generator: Adobe Illustrator 21.0.0, SVG Export Plug-In . SVG Version: 6.00 Build 0)  -->
<svg version="1.1" id="Réteg_1" xmlns="http://www.w3.org/2000/svg" xmlns:xlink="http://www.w3.org/1999/xlink" x="0px" y="0px"
	 viewBox="0 0 1520.1 960.4" style="enable-background:new 0 0 1520.1 960.4;" xml:space="preserve">
<style type="text/css">
	.st0{fill:#00C1DE;}
	.st1{clip-path:url(#SVGID_2_);}
	.st2{opacity:0.8;}
	.st3{fill:none;stroke:#FFFFFF;stroke-width:1.5;stroke-miterlimit:10;}
	.st4{opacity:0.5;}
	.st5{fill:#FFFFFF;}
	.st6{fill:#031828;}
</style>
<g transform="translate(-3214.902 -3306.374)">
	<path class="st0" d="M4391.1,3306.4H3284.4c-6.8,127.7-5.8,262.8,61.2,373.5c71.7,118.6,212.3,190.5,355.2,204.4
		c47.4,4.6,96,3.6,141.6,16.8c85.9,24.8,147.4,95.2,202.4,162.8c40.8,50.1,81.9,101.6,137,137.2c61.4,39.6,138.4,65.6,209.4,65.6
		h344v-960.4H4391.1z"/>
	<g transform="translate(3281.625 3306.374)">
		<g>
			<defs>
				<path id="SVGID_1_" d="M1109.5,0H2.7C-4.1,127.7-3,262.8,63.9,373.5C135.7,492.1,276.2,564,419.1,577.9
					c47.4,4.6,96,3.6,141.6,16.8c85.9,24.8,147.4,95.2,202.4,162.8c40.8,50.1,81.9,101.6,137,137.2c61.4,39.6,138.4,65.6,209.4,65.6
					h344V0H1109.5z"/>
			</defs>
			<clipPath id="SVGID_2_">
				<use xlink:href="#SVGID_1_"  style="overflow:visible;"/>
			</clipPath>
			<g class="st1">
				<g transform="translate(-38.691 -77.225)" class="st2">
					<g transform="translate(931.22 920.338)">
						<path class="st3" d="M85.9,66H0v114.8h189.3v-49.3h-34.5v-16.1h137.8V0H207v49.3h34.3v16.8H103.2v65.4H51.5V115H86V66L85.9,66
							z"/>
						<path class="st3" d="M137.7,99.1h138.1V16.7h-52.1v16.3h34.8v49.2H120.3v65.5H34.4v-49H69V82.3H17.1v82h155.2v-16.1h-34.7
							L137.7,99.1z"/>
					</g>
					<g transform="translate(931.22 788.517)">
						<path class="st3" d="M85.9,66H0v114.8h189.3v-49.3h-34.5v-16.1h137.8V0H207v49.3h34.3v16.8H103.2v65.4H51.5V115H86V66L85.9,66
							z"/>
						<path class="st3" d="M137.7,99.1h138.1V16.7h-52.1v16.3h34.8v49.2H120.3v65.5H34.4v-49H69V82.3H17.1v82h155.2v-16.1h-34.7
							L137.7,99.1z"/>
					</g>
					<g transform="translate(931.395 656.746)">
						<path class="st3" d="M85.9,66H0v114.8h189.3v-49.3h-34.5v-16.1h137.8V0H207v49.3h34.3v16.8H103.2v65.4H51.5V115H86V66L85.9,66
							z"/>
						<path class="st3" d="M137.7,99.1h138.1V16.7h-52.1v16.3h34.8v49.2H120.3v65.5H34.4v-49H69V82.3H17.1v82h155.2v-16.1h-34.7
							L137.7,99.1z"/>
					</g>
					<g transform="translate(931.395 524.925)">
						<path class="st3" d="M85.9,66H0v114.8h189.3v-49.3h-34.5v-16.1h137.8V0H207v49.3h34.3v16.8H103.2v65.4H51.5V115H86V66L85.9,66
							z"/>
						<path class="st3" d="M137.7,99.1h138.1V16.7h-52.1v16.3h34.8v49.2H120.3v65.5H34.4v-49H69V82.3H17.1v82h155.2v-16.1h-34.7
							L137.7,99.1z"/>
					</g>
					<g transform="translate(931.395 394.702)">
						<path class="st3" d="M85.9,66H0v114.8h189.3v-49.3h-34.5v-16.1h137.8V0H207v49.3h34.3v16.8H103.2v65.4H51.5V115H86V66L85.9,66
							z"/>
						<path class="st3" d="M137.7,99.1h138.1V16.7h-52.1v16.3h34.8v49.2H120.3v65.5H34.4v-49H69V82.3H17.1v82h155.2v-16.1h-34.7
							L137.7,99.1z"/>
					</g>
					<g transform="translate(931.395 262.882)">
						<path class="st3" d="M85.9,66H0v114.8h189.3v-49.3h-34.5v-16.1h137.8V0H207v49.3h34.3v16.8H103.2v65.4H51.5V115H86V66L85.9,66
							z"/>
						<path class="st3" d="M137.7,99.1h138.1V16.7h-52.1v16.3h34.8v49.2H120.3v65.5H34.4v-49H69V82.3H17.1v82h155.2v-16.1h-34.7
							L137.7,99.1z"/>
					</g>
					<g transform="translate(931.395 131.821)">
						<path class="st3" d="M85.9,66H0v114.8h189.3v-49.3h-34.5v-16.1h137.8V0H207v49.3h34.3v16.8H103.2v65.4H51.5V115H86V66H85.9z"
							/>
						<path class="st3" d="M137.7,99.1h138.1V16.7h-52.1v16.3h34.8v49.2H120.3v65.5H34.4v-49H69V82.3H17.1v82h155.2v-16.1h-34.7
							L137.7,99.1z"/>
					</g>
					<g transform="translate(931.395)">
						<path class="st3" d="M85.9,66H0v114.8h189.3v-49.3h-34.5v-16.1h137.8V0H207v49.3h34.3v16.8H103.2v65.4H51.5V115H86V66L85.9,66
							z"/>
						<path class="st3" d="M137.7,99.1h138.1V16.7h-52.1v16.3h34.8v49.2H120.3v65.5H34.4v-49H69V82.3H17.1v82h155.2v-16.1h-34.7
							L137.7,99.1z"/>
					</g>
					<g transform="translate(620.687 922.408)">
						<path class="st3" d="M85.9,66H0v114.8h189.3v-49.3h-34.5v-16.1h137.8V0H207v49.3h34.3v16.8H103.2v65.4H51.5V115H86V66L85.9,66
							z"/>
						<path class="st3" d="M137.7,99.1h138.1V16.7h-52.1v16.3h34.8v49.2H120.3v65.5H34.4v-49H69V82.3H17.1v82h155.2v-16.1h-34.7
							L137.7,99.1z"/>
					</g>
					<g transform="translate(620.687 790.587)">
						<path class="st3" d="M85.9,66H0v114.8h189.3v-49.3h-34.5v-16.1h137.8V0H207v49.3h34.3v16.8H103.2v65.4H51.5V115H86V66L85.9,66
							z"/>
						<path class="st3" d="M137.7,99.1h138.1V16.7h-52.1v16.3h34.8v49.2H120.3v65.5H34.4v-49H69V82.3H17.1v82h155.2v-16.1h-34.7
							L137.7,99.1z"/>
					</g>
					<g transform="translate(620.861 658.816)">
						<path class="st3" d="M85.9,66H0v114.8h189.3v-49.3h-34.5v-16.1h137.8V0H207v49.3h34.3v16.8H103.2v65.4H51.5V115H86V66H85.9z"
							/>
						<path class="st3" d="M137.7,99.1h138.1V16.7h-52.1v16.3h34.8v49.2H120.3v65.5H34.4v-49H69V82.3H17.1v82h155.2v-16.1h-34.7
							L137.7,99.1z"/>
					</g>
					<g transform="translate(620.861 526.996)">
						<path class="st3" d="M85.9,66H0v114.8h189.3v-49.3h-34.5v-16.1h137.8V0H207v49.3h34.3v16.8H103.2v65.4H51.5V115H86V66L85.9,66
							z"/>
						<path class="st3" d="M137.7,99.1h138.1V16.7h-52.1v16.3h34.8v49.2H120.3v65.5H34.4v-49H69V82.3H17.1v82h155.2v-16.1h-34.7
							L137.7,99.1z"/>
					</g>
					<g transform="translate(620.861 396.773)">
						<path class="st3" d="M85.9,66H0v114.8h189.3v-49.3h-34.5v-16.1h137.8V0H207v49.3h34.3v16.8H103.2v65.4H51.5V115H86V66L85.9,66
							z"/>
						<path class="st3" d="M137.7,99.1h138.1V16.7h-52.1v16.3h34.8v49.2H120.3v65.5H34.4v-49H69V82.3H17.1v82h155.2v-16.1h-34.7
							L137.7,99.1z"/>
					</g>
					<g transform="translate(620.861 264.952)">
						<path class="st3" d="M85.9,66H0v114.8h189.3v-49.3h-34.5v-16.1h137.8V0H207v49.3h34.3v16.8H103.2v65.4H51.5V115H86V66L85.9,66
							z"/>
						<path class="st3" d="M137.7,99.1h138.1V16.7h-52.1v16.3h34.8v49.2H120.3v65.5H34.4v-49H69V82.3H17.1v82h155.2v-16.1h-34.7
							L137.7,99.1z"/>
					</g>
					<g transform="translate(620.861 133.891)">
						<path class="st3" d="M85.9,66H0v114.8h189.3v-49.3h-34.5v-16.1h137.8V0H207v49.3h34.3v16.8H103.2v65.4H51.5V115H86V66L85.9,66
							z"/>
						<path class="st3" d="M137.7,99.1h138.1V16.7h-52.1v16.3h34.8v49.2H120.3v65.5H34.4v-49H69V82.3H17.1v82h155.2v-16.1h-34.7
							L137.7,99.1z"/>
					</g>
					<g transform="translate(620.861 2.071)">
						<path class="st3" d="M85.9,66H0v114.8h189.3v-49.3h-34.5v-16.1h137.8V0H207v49.3h34.3v16.8H103.2v65.4H51.5V115H86V66H85.9z"
							/>
						<path class="st3" d="M137.7,99.1h138.1V16.7h-52.1v16.3h34.8v49.2H120.3v65.5H34.4v-49H69V82.3H17.1v82h155.2v-16.1h-34.7
							L137.7,99.1z"/>
					</g>
					<g transform="translate(310.534 922.273)">
						<path class="st3" d="M85.9,66H0v114.8h189.3v-49.3h-34.5v-16.1h137.8V0H207v49.3h34.3v16.8H103.2v65.4H51.5V115H86V66L85.9,66
							z"/>
						<path class="st3" d="M137.7,99.1h138.1V16.7h-52.1v16.3h34.8v49.2H120.3v65.5H34.4v-49H69V82.3H17.1v82h155.2v-16.1h-34.7
							L137.7,99.1z"/>
					</g>
					<g transform="translate(310.534 790.452)">
						<path class="st3" d="M85.9,66H0v114.8h189.3v-49.3h-34.5v-16.1h137.8V0H207v49.3h34.3v16.8H103.2v65.4H51.5V115H86V66L85.9,66
							z"/>
						<path class="st3" d="M137.7,99.1h138.1V16.7h-52.1v16.3h34.8v49.2H120.3v65.5H34.4v-49H69V82.3H17.1v82h155.2v-16.1h-34.7
							L137.7,99.1z"/>
					</g>
					<g transform="translate(310.709 658.681)">
						<path class="st3" d="M85.9,66H0v114.8h189.3v-49.3h-34.5v-16.1h137.8V0H207v49.3h34.3v16.8H103.2v65.4H51.5V115H86V66L85.9,66
							z"/>
						<path class="st3" d="M137.7,99.1h138.1V16.7h-52.1v16.3h34.8v49.2H120.3v65.5H34.4v-49H69V82.3H17.1v82h155.2v-16.1h-34.7
							L137.7,99.1z"/>
					</g>
					<g transform="translate(310.709 526.861)">
						<path class="st3" d="M85.9,66H0v114.8h189.3v-49.3h-34.5v-16.1h137.8V0H207v49.3h34.3v16.8H103.2v65.4H51.5V115H86V66L85.9,66
							z"/>
						<path class="st3" d="M137.7,99.1h138.1V16.7h-52.1v16.3h34.8v49.2H120.3v65.5H34.4v-49H69V82.3H17.1v82h155.2v-16.1h-34.7
							L137.7,99.1z"/>
					</g>
					<g transform="translate(310.709 396.638)">
						<path class="st3" d="M85.9,66H0v114.8h189.3v-49.3h-34.5v-16.1h137.8V0H207v49.3h34.3v16.8H103.2v65.4H51.5V115H86V66L85.9,66
							z"/>
						<path class="st3" d="M137.7,99.1h138.1V16.7h-52.1v16.3h34.8v49.2H120.3v65.5H34.4v-49H69V82.3H17.1v82h155.2v-16.1h-34.7
							L137.7,99.1z"/>
					</g>
					<g transform="translate(310.709 264.817)">
						<path class="st3" d="M85.9,66H0v114.8h189.3v-49.3h-34.5v-16.1h137.8V0H207v49.3h34.3v16.8H103.2v65.4H51.5V115H86V66L85.9,66
							z"/>
						<path class="st3" d="M137.7,99.1h138.1V16.7h-52.1v16.3h34.8v49.2H120.3v65.5H34.4v-49H69V82.3H17.1v82h155.2v-16.1h-34.7
							L137.7,99.1z"/>
					</g>
					<g transform="translate(310.709 133.756)">
						<path class="st3" d="M85.9,66H0v114.8h189.3v-49.3h-34.5v-16.1h137.8V0H207v49.3h34.3v16.8H103.2v65.4H51.5V115H86V66L85.9,66
							z"/>
						<path class="st3" d="M137.7,99.1h138.1V16.7h-52.1v16.3h34.8v49.2H120.3v65.5H34.4v-49H69V82.3H17.1v82h155.2v-16.1h-34.7
							L137.7,99.1z"/>
					</g>
					<g transform="translate(310.709 1.936)">
						<path class="st3" d="M85.9,66H0v114.8h189.3v-49.3h-34.5v-16.1h137.8V0H207v49.3h34.3v16.8H103.2v65.4H51.5V115H86V66L85.9,66
							z"/>
						<path class="st3" d="M137.7,99.1h138.1V16.7h-52.1v16.3h34.8v49.2H120.3v65.5H34.4v-49H69V82.3H17.1v82h155.2v-16.1h-34.7
							L137.7,99.1z"/>
					</g>
					<g transform="translate(0 924.343)">
						<path class="st3" d="M85.9,66H0v114.8h189.3v-49.3h-34.5v-16.1h137.8V0H207v49.3h34.3v16.8H103.2v65.4H51.5V115H86V66L85.9,66
							z"/>
						<path class="st3" d="M137.7,99.1h138V16.7h-52.1v16.3h34.8v49.2H120.3v65.5H34.4v-49H69V82.3H17.1v82h155.2v-16.1h-34.7
							L137.7,99.1z"/>
					</g>
					<g transform="translate(0 792.523)">
						<path class="st3" d="M85.9,66H0v114.8h189.3v-49.3h-34.5v-16.1h137.8V0H207v49.3h34.3v16.8H103.2v65.4H51.5V115H86V66L85.9,66
							z"/>
						<path class="st3" d="M137.7,99.1h138V16.7h-52.1v16.3h34.8v49.2H120.3v65.5H34.4v-49H69V82.3H17.1v82h155.2v-16.1h-34.7
							L137.7,99.1z"/>
					</g>
					<g transform="translate(0.175 660.752)">
						<path class="st3" d="M85.9,66H0v114.8h189.3v-49.3h-34.5v-16.1h137.8V0H207v49.3h34.3v16.8H103.2v65.4H51.5V115H86V66H85.9z"
							/>
						<path class="st3" d="M137.7,99.1h138.1V16.7h-52.1v16.3h34.8v49.2H120.3v65.5H34.4v-49H69V82.3H17.1v82h155.2v-16.1h-34.7
							L137.7,99.1z"/>
					</g>
					<g transform="translate(0.175 528.931)">
						<path class="st3" d="M85.9,66H0v114.8h189.3v-49.3h-34.5v-16.1h137.8V0H207v49.3h34.3v16.8H103.2v65.4H51.5V115H86V66H85.9z"
							/>
						<path class="st3" d="M137.7,99.1h138.1V16.7h-52.1v16.3h34.8v49.2H120.3v65.5H34.4v-49H69V82.3H17.1v82h155.2v-16.1h-34.7
							L137.7,99.1z"/>
					</g>
					<g transform="translate(0.175 398.708)">
						<path class="st3" d="M85.9,66H0v114.8h189.3v-49.3h-34.5v-16.1h137.8V0H207v49.3h34.3v16.8H103.2v65.4H51.5V115H86V66L85.9,66
							z"/>
						<path class="st3" d="M137.7,99.1h138.1V16.7h-52.1v16.3h34.8v49.2H120.3v65.5H34.4v-49H69V82.3H17.1v82h155.2v-16.1h-34.7
							L137.7,99.1z"/>
					</g>
					<g transform="translate(0.175 266.888)">
						<path class="st3" d="M85.9,66H0v114.8h189.3v-49.3h-34.5v-16.1h137.8V0H207v49.3h34.3v16.8H103.2v65.4H51.5V115H86V66L85.9,66
							z"/>
						<path class="st3" d="M137.7,99.1h138.1V16.7h-52.1v16.3h34.8v49.2H120.3v65.5H34.4v-49H69V82.3H17.1v82h155.2v-16.1h-34.7
							L137.7,99.1z"/>
					</g>
					<g transform="translate(0.175 135.827)">
						<path class="st3" d="M85.9,66H0v114.8h189.3v-49.3h-34.5v-16.1h137.8V0H207v49.3h34.3v16.8H103.2v65.4H51.5V115H86V66L85.9,66
							z"/>
						<path class="st3" d="M137.7,99.1h138.1V16.7h-52.1v16.3h34.8v49.2H120.3v65.5H34.4v-49H69V82.3H17.1v82h155.2v-16.1h-34.7
							L137.7,99.1z"/>
					</g>
					<g transform="translate(0.175 4.006)">
						<path class="st3" d="M85.9,66H0v114.8h189.3v-49.3h-34.5v-16.1h137.8V0H207v49.3h34.3v16.8H103.2v65.4H51.5V115H86V66L85.9,66
							z"/>
						<path class="st3" d="M137.7,99.1h138.1V16.7h-52.1v16.3h34.8v49.2H120.3v65.5H34.4v-49H69V82.3H17.1v82h155.2v-16.1h-34.7
							L137.7,99.1z"/>
					</g>
				</g>
				<g transform="translate(1202.914 -77.225)" class="st4">
					<g transform="translate(931.22 920.338)">
						<path class="st3" d="M85.9,66H0v114.8h189.3v-49.3h-34.5v-16.1h137.8V0H207v49.3h34.3v16.8H103.2v65.4H51.5V115H86V66L85.9,66
							z"/>
						<path class="st3" d="M137.7,99.1h138.1V16.7h-52.1v16.3h34.8v49.2H120.3v65.5H34.5v-49H69V82.3H17.1v82h155.2v-16.1h-34.7
							L137.7,99.1z"/>
					</g>
					<g transform="translate(931.22 788.517)">
						<path class="st3" d="M85.9,66H0v114.8h189.3v-49.3h-34.5v-16.1h137.8V0H207v49.3h34.3v16.8H103.2v65.4H51.5V115H86V66L85.9,66
							z"/>
						<path class="st3" d="M137.7,99.1h138.1V16.7h-52.1v16.3h34.8v49.2H120.3v65.5H34.5v-49H69V82.3H17.1v82h155.2v-16.1h-34.7
							L137.7,99.1z"/>
					</g>
					<g transform="translate(931.395 656.746)">
						<path class="st3" d="M85.9,66H0v114.8h189.3v-49.3h-34.5v-16.1h137.8V0H207v49.3h34.3v16.8H103.2v65.4H51.5V115H86V66L85.9,66
							z"/>
						<path class="st3" d="M137.7,99.1h138.1V16.7h-52.1v16.3h34.8v49.2H120.3v65.5H34.4v-49H69V82.3H17.1v82h155.2v-16.1h-34.7
							L137.7,99.1z"/>
					</g>
					<g transform="translate(931.395 524.925)">
						<path class="st3" d="M85.9,66H0v114.8h189.3v-49.3h-34.5v-16.1h137.8V0H207v49.3h34.3v16.8H103.2v65.4H51.5V115H86V66L85.9,66
							z"/>
						<path class="st3" d="M137.7,99.1h138.1V16.7h-52.1v16.3h34.8v49.2H120.3v65.5H34.4v-49H69V82.3H17.1v82h155.2v-16.1h-34.7
							L137.7,99.1z"/>
					</g>
					<g transform="translate(931.395 394.702)">
						<path class="st3" d="M85.9,66H0v114.8h189.3v-49.3h-34.5v-16.1h137.8V0H207v49.3h34.3v16.8H103.2v65.4H51.5V115H86V66L85.9,66
							z"/>
						<path class="st3" d="M137.7,99.1h138.1V16.7h-52.1v16.3h34.8v49.2H120.3v65.5H34.4v-49H69V82.3H17.1v82h155.2v-16.1h-34.7
							L137.7,99.1z"/>
					</g>
					<g transform="translate(931.395 262.882)">
						<path class="st3" d="M85.9,66H0v114.8h189.3v-49.3h-34.5v-16.1h137.8V0H207v49.3h34.3v16.8H103.2v65.4H51.5V115H86V66L85.9,66
							z"/>
						<path class="st3" d="M137.7,99.1h138.1V16.7h-52.1v16.3h34.8v49.2H120.3v65.5H34.4v-49H69V82.3H17.1v82h155.2v-16.1h-34.7
							L137.7,99.1z"/>
					</g>
					<g transform="translate(931.395 131.821)">
						<path class="st3" d="M85.9,66H0v114.8h189.3v-49.3h-34.5v-16.1h137.8V0H207v49.3h34.3v16.8H103.2v65.4H51.5V115H86V66H85.9z"
							/>
						<path class="st3" d="M137.7,99.1h138.1V16.7h-52.1v16.3h34.8v49.2H120.3v65.5H34.4v-49H69V82.3H17.1v82h155.2v-16.1h-34.7
							L137.7,99.1z"/>
					</g>
					<g transform="translate(931.395)">
						<path class="st3" d="M85.9,66H0v114.8h189.3v-49.3h-34.5v-16.1h137.8V0H207v49.3h34.3v16.8H103.2v65.4H51.5V115H86V66L85.9,66
							z"/>
						<path class="st3" d="M137.7,99.1h138.1V16.7h-52.1v16.3h34.8v49.2H120.3v65.5H34.4v-49H69V82.3H17.1v82h155.2v-16.1h-34.7
							L137.7,99.1z"/>
					</g>
					<g transform="translate(620.687 922.408)">
						<path class="st3" d="M85.9,66H0v114.8h189.3v-49.3h-34.5v-16.1h137.8V0H207v49.3h34.3v16.8H103.2v65.4H51.5V115H86V66L85.9,66
							z"/>
						<path class="st3" d="M137.7,99.1h138.1V16.7h-52.1v16.3h34.8v49.2H120.3v65.5H34.4v-49H69V82.3H17.1v82h155.2v-16.1h-34.7
							L137.7,99.1z"/>
					</g>
					<g transform="translate(620.687 790.587)">
						<path class="st3" d="M85.9,66H0v114.8h189.3v-49.3h-34.5v-16.1h137.8V0H207v49.3h34.3v16.8H103.2v65.4H51.5V115H86V66L85.9,66
							z"/>
						<path class="st3" d="M137.7,99.1h138.1V16.7h-52.1v16.3h34.8v49.2H120.3v65.5H34.4v-49H69V82.3H17.1v82h155.2v-16.1h-34.7
							L137.7,99.1z"/>
					</g>
					<g transform="translate(620.861 658.816)">
						<path class="st3" d="M85.9,66H0v114.8h189.3v-49.3h-34.5v-16.1h137.8V0H207v49.3h34.3v16.8H103.2v65.4H51.5V115H86V66H85.9z"
							/>
						<path class="st3" d="M137.7,99.1h138.1V16.7h-52.1v16.3h34.8v49.2H120.3v65.5H34.4v-49H69V82.3H17.1v82h155.2v-16.1h-34.7
							L137.7,99.1z"/>
					</g>
					<g transform="translate(620.861 526.996)">
						<path class="st3" d="M85.9,66H0v114.8h189.3v-49.3h-34.5v-16.1h137.8V0H207v49.3h34.3v16.8H103.2v65.4H51.5V115H86V66L85.9,66
							z"/>
						<path class="st3" d="M137.7,99.1h138.1V16.7h-52.1v16.3h34.8v49.2H120.3v65.5H34.4v-49H69V82.3H17.1v82h155.2v-16.1h-34.7
							L137.7,99.1z"/>
					</g>
					<g transform="translate(620.861 396.773)">
						<path class="st3" d="M85.9,66H0v114.8h189.3v-49.3h-34.5v-16.1h137.8V0H207v49.3h34.3v16.8H103.2v65.4H51.5V115H86V66L85.9,66
							z"/>
						<path class="st3" d="M137.7,99.1h138.1V16.7h-52.1v16.3h34.8v49.2H120.3v65.5H34.4v-49H69V82.3H17.1v82h155.2v-16.1h-34.7
							L137.7,99.1z"/>
					</g>
					<g transform="translate(620.861 264.952)">
						<path class="st3" d="M85.9,66H0v114.8h189.3v-49.3h-34.5v-16.1h137.8V0H207v49.3h34.3v16.8H103.2v65.4H51.5V115H86V66L85.9,66
							z"/>
						<path class="st3" d="M137.7,99.1h138.1V16.7h-52.1v16.3h34.8v49.2H120.3v65.5H34.4v-49H69V82.3H17.1v82h155.2v-16.1h-34.7
							L137.7,99.1z"/>
					</g>
					<g transform="translate(620.861 133.891)">
						<path class="st3" d="M85.9,66H0v114.8h189.3v-49.3h-34.5v-16.1h137.8V0H207v49.3h34.3v16.8H103.2v65.4H51.5V115H86V66L85.9,66
							z"/>
						<path class="st3" d="M137.7,99.1h138.1V16.7h-52.1v16.3h34.8v49.2H120.3v65.5H34.4v-49H69V82.3H17.1v82h155.2v-16.1h-34.7
							L137.7,99.1z"/>
					</g>
					<g transform="translate(620.861 2.071)">
						<path class="st3" d="M85.9,66H0v114.8h189.3v-49.3h-34.5v-16.1h137.8V0H207v49.3h34.3v16.8H103.2v65.4H51.5V115H86V66H85.9z"
							/>
						<path class="st3" d="M137.7,99.1h138.1V16.7h-52.1v16.3h34.8v49.2H120.3v65.5H34.4v-49H69V82.3H17.1v82h155.2v-16.1h-34.7
							L137.7,99.1z"/>
					</g>
					<g transform="translate(310.534 922.273)">
						<path class="st3" d="M85.9,66H0v114.8h189.3v-49.3h-34.5v-16.1h137.8V0H207v49.3h34.3v16.8H103.2v65.4H51.5V115H86V66L85.9,66
							z"/>
						<path class="st3" d="M137.7,99.1h138.1V16.7h-52.1v16.3h34.8v49.2H120.3v65.5H34.5v-49H69V82.3H17.1v82h155.2v-16.1h-34.7
							L137.7,99.1z"/>
					</g>
					<g transform="translate(310.534 790.452)">
						<path class="st3" d="M85.9,66H0v114.8h189.3v-49.3h-34.5v-16.1h137.8V0H207v49.3h34.3v16.8H103.2v65.4H51.5V115H86V66L85.9,66
							z"/>
						<path class="st3" d="M137.7,99.1h138.1V16.7h-52.1v16.3h34.8v49.2H120.3v65.5H34.5v-49H69V82.3H17.1v82h155.2v-16.1h-34.7
							L137.7,99.1z"/>
					</g>
					<g transform="translate(310.709 658.681)">
						<path class="st3" d="M85.9,66H0v114.8h189.3v-49.3h-34.5v-16.1h137.8V0H207v49.3h34.3v16.8H103.2v65.4H51.5V115H86V66L85.9,66
							z"/>
						<path class="st3" d="M137.7,99.1h138.1V16.7h-52.1v16.3h34.8v49.2H120.3v65.5H34.4v-49H69V82.3H17.1v82h155.2v-16.1h-34.7
							L137.7,99.1z"/>
					</g>
					<g transform="translate(310.709 526.861)">
						<path class="st3" d="M85.9,66H0v114.8h189.3v-49.3h-34.5v-16.1h137.8V0H207v49.3h34.3v16.8H103.2v65.4H51.5V115H86V66L85.9,66
							z"/>
						<path class="st3" d="M137.7,99.1h138.1V16.7h-52.1v16.3h34.8v49.2H120.3v65.5H34.4v-49H69V82.3H17.1v82h155.2v-16.1h-34.7
							L137.7,99.1z"/>
					</g>
					<g transform="translate(310.709 396.638)">
						<path class="st3" d="M85.9,66H0v114.8h189.3v-49.3h-34.5v-16.1h137.8V0H207v49.3h34.3v16.8H103.2v65.4H51.5V115H86V66L85.9,66
							z"/>
						<path class="st3" d="M137.7,99.1h138.1V16.7h-52.1v16.3h34.8v49.2H120.3v65.5H34.4v-49H69V82.3H17.1v82h155.2v-16.1h-34.7
							L137.7,99.1z"/>
					</g>
					<g transform="translate(310.709 264.817)">
						<path class="st3" d="M85.9,66H0v114.8h189.3v-49.3h-34.5v-16.1h137.8V0H207v49.3h34.3v16.8H103.2v65.4H51.5V115H86V66L85.9,66
							z"/>
						<path class="st3" d="M137.7,99.1h138.1V16.7h-52.1v16.3h34.8v49.2H120.3v65.5H34.4v-49H69V82.3H17.1v82h155.2v-16.1h-34.7
							L137.7,99.1z"/>
					</g>
					<g transform="translate(310.709 133.756)">
						<path class="st3" d="M85.9,66H0v114.8h189.3v-49.3h-34.5v-16.1h137.8V0H207v49.3h34.3v16.8H103.2v65.4H51.5V115H86V66L85.9,66
							z"/>
						<path class="st3" d="M137.7,99.1h138.1V16.7h-52.1v16.3h34.8v49.2H120.3v65.5H34.4v-49H69V82.3H17.1v82h155.2v-16.1h-34.7
							L137.7,99.1z"/>
					</g>
					<g transform="translate(310.709 1.936)">
						<path class="st3" d="M85.9,66H0v114.8h189.3v-49.3h-34.5v-16.1h137.8V0H207v49.3h34.3v16.8H103.2v65.4H51.5V115H86V66L85.9,66
							z"/>
						<path class="st3" d="M137.7,99.1h138.1V16.7h-52.1v16.3h34.8v49.2H120.3v65.5H34.4v-49H69V82.3H17.1v82h155.2v-16.1h-34.7
							L137.7,99.1z"/>
					</g>
					<g transform="translate(0 924.343)">
						<path class="st3" d="M85.9,66H0v114.8h189.3v-49.3h-34.5v-16.1h137.8V0H207v49.3h34.3v16.8H103.2v65.4H51.5V115H86V66L85.9,66
							z"/>
						<path class="st3" d="M137.7,99.1h138.1V16.7h-52.1v16.3h34.8v49.2H120.3v65.5H34.4v-49H69V82.3H17.1v82h155.2v-16.1h-34.7
							L137.7,99.1z"/>
					</g>
					<g transform="translate(0 792.523)">
						<path class="st3" d="M85.9,66H0v114.8h189.3v-49.3h-34.5v-16.1h137.8V0H207v49.3h34.3v16.8H103.2v65.4H51.5V115H86V66L85.9,66
							z"/>
						<path class="st3" d="M137.7,99.1h138.1V16.7h-52.1v16.3h34.8v49.2H120.3v65.5H34.4v-49H69V82.3H17.1v82h155.2v-16.1h-34.7
							L137.7,99.1z"/>
					</g>
					<g transform="translate(0.175 660.752)">
						<path class="st3" d="M85.9,66H0v114.8h189.3v-49.3h-34.5v-16.1h137.8V0H207v49.3h34.3v16.8H103.2v65.4H51.5V115H86V66H85.9z"
							/>
						<path class="st3" d="M137.7,99.1h138.1V16.7h-52.1v16.3h34.8v49.2H120.3v65.5H34.4v-49H69V82.3H17.1v82h155.2v-16.1h-34.7
							L137.7,99.1z"/>
					</g>
					<g transform="translate(0.175 528.931)">
						<path class="st3" d="M85.9,66H0v114.8h189.3v-49.3h-34.5v-16.1h137.8V0H207v49.3h34.3v16.8H103.2v65.4H51.5V115H86V66H85.9z"
							/>
						<path class="st3" d="M137.7,99.1h138.1V16.7h-52.1v16.3h34.8v49.2H120.3v65.5H34.4v-49H69V82.3H17.1v82h155.2v-16.1h-34.7
							L137.7,99.1z"/>
					</g>
					<g transform="translate(0.175 398.708)">
						<path class="st3" d="M85.9,66H0v114.8h189.3v-49.3h-34.5v-16.1h137.8V0H207v49.3h34.3v16.8H103.2v65.4H51.5V115H86V66L85.9,66
							z"/>
						<path class="st3" d="M137.7,99.1h138.1V16.7h-52.1v16.3h34.8v49.2H120.3v65.5H34.4v-49H69V82.3H17.1v82h155.2v-16.1h-34.7
							L137.7,99.1z"/>
					</g>
					<g transform="translate(0.175 266.888)">
						<path class="st3" d="M85.9,66H0v114.8h189.3v-49.3h-34.5v-16.1h137.8V0H207v49.3h34.3v16.8H103.2v65.4H51.5V115H86V66L85.9,66
							z"/>
						<path class="st3" d="M137.7,99.1h138.1V16.7h-52.1v16.3h34.8v49.2H120.3v65.5H34.4v-49H69V82.3H17.1v82h155.2v-16.1h-34.7
							L137.7,99.1z"/>
					</g>
					<g transform="translate(0.175 135.827)">
						<path class="st3" d="M85.9,66H0v114.8h189.3v-49.3h-34.5v-16.1h137.8V0H207v49.3h34.3v16.8H103.2v65.4H51.5V115H86V66L85.9,66
							z"/>
						<path class="st3" d="M137.7,99.1h138.1V16.7h-52.1v16.3h34.8v49.2H120.3v65.5H34.4v-49H69V82.3H17.1v82h155.2v-16.1h-34.7
							L137.7,99.1z"/>
					</g>
					<g transform="translate(0.175 4.006)">
						<path class="st3" d="M85.9,66H0v114.8h189.3v-49.3h-34.5v-16.1h137.8V0H207v49.3h34.3v16.8H103.2v65.4H51.5V115H86V66L85.9,66
							z"/>
						<path class="st3" d="M137.7,99.1h138.1V16.7h-52.1v16.3h34.8v49.2H120.3v65.5H34.4v-49H69V82.3H17.1v82h155.2v-16.1h-34.7
							L137.7,99.1z"/>
					</g>
				</g>
			</g>
		</g>
	</g>
	<path class="st5" d="M4068,3641.4l-1.4-0.9l-0.8,0.4l1.5,0.8L4068,3641.4z"/>
	<path class="st5" d="M4066.6,3649.4L4066.6,3649.4l1.2,0.7L4066.6,3649.4z"/>
	<path class="st5" d="M4066.6,3658.3L4066.6,3658.3l1.2,0.7L4066.6,3658.3z"/>
	<path class="st5" d="M4066.6,3667.2L4066.6,3667.2l1.2,0.7L4066.6,3667.2z"/>
	<g transform="translate(3214.902 3526.199)">
		<path class="st6" d="M0,355.7l0.4,0v-18.1c-1.5-4.1,0.7-8.2,5.9-11.1l154.5-85c5.8-3.2,14.1-4.1,21.4-2.9
			c-4.8-5.7-8.1-13.2-8.1-19.8l0.6-198.5c0-4.8,1.8-8.4,4.9-10.1c0.8-0.5,1.8-0.8,2.7-0.9l15.6-8l0.1,0.2c2.8-0.6,6.1,0.1,9.4,1.9
			L423,121.8c8.9,4.9,16.2,16.9,16.1,26.6L438.5,347c0,4.6-2.2,8.5-5.9,10.3l-16,8.2l-0.4,0.1l0,0c-1,0.3-2.1,0.5-3.1,0.5
			c-0.2,0-0.4,0-0.7,0c1.1,1.9,1.3,4.1,0.5,6.1V390h0.4l0,0.4c0.3,3.4-2.1,6.7-6.4,9.1l-137.7,75.8v0.4h-0.7l-16.1,8.9
			c-9.5,4.6-20.7,4.6-30.2,0l-16-8.9h-1.5v-0.9L6.3,364.9c-4.2-2.3-6.4-5.4-6.3-8.8L0,355.7z"/>
		<g transform="translate(181.164 0.034)">
			<path class="st5" d="M2.5,12.3L18.7,4l-1.9-3.4L0.6,8.8L2.5,12.3z"/>
			<path class="st5" d="M0,8.7L16.9,0l2.4,4.2L2.7,12.6l-0.4,0.2L0,8.7z M16.6,1.1L1.2,9l1.5,2.7l15.4-7.9L16.6,1.1z"/>
		</g>
		<g transform="translate(174.256)">
			<path class="st5" d="M0.4,217.6c0,9.6,7.1,21.4,15.9,26.3l215.3,118.5c4,2.2,7.7,2.6,10.5,1.5l0,0.1l16-8.2
				c3.1-1.5,5.6-5,5.7-9.9l0.6-198.5c0-9.6-7.1-21.4-15.9-26.3L33.2,2.5c-3.5-1.9-6.8-2.5-9.5-1.8l-1.6,3.7L26.8,4
				c2.2,0,4.4,0.5,6.3,1.7l199.9,110l-12.7,6.5L17.1,10.4c-8.8-4.8-16-0.9-16,8.7L0.4,217.6z M261.5,145.6l0,13.8l-13.2,6.7l0-11
				c0-9.6-7.1-21.4-15.9-26.3l-9-4.9l12.7-6.5l12.3,6.8C255.7,128.2,261.5,137.8,261.5,145.6L261.5,145.6z M258.3,351.2l-10.9,5.6
				c0.2-1,0.3-2.1,0.3-3.1l0.5-184.2l13.2-6.7l-0.5,181.4C260.9,347.3,259.9,349.7,258.3,351.2L258.3,351.2z M3.4,219.2L4,20.7
				C4,12.8,9.9,9.7,17,13.6l215.3,118.5c7.2,4,13,13.6,13,21.4L244.8,352c0,7.9-5.9,11.1-13.1,7.1L16.4,240.7
				C9.2,236.7,3.4,227.1,3.4,219.2z"/>
			<path class="st5" d="M231.5,362.7L16.1,244.3C7.2,239.4,0,227.4,0,217.6L0.6,19.1c0-4.8,1.8-8.4,4.9-10.1
				c3.2-1.7,7.4-1.4,11.8,1.1l203,111.7l11.8-6.1L32.9,6.1C31.1,5,29,4.4,26.9,4.5l-5.5,0.4l2-4.5l0.2-0.1c2.9-0.8,6.3-0.1,9.8,1.8
				l215.3,118.5c8.9,4.9,16.2,16.9,16.1,26.6l-0.6,198.5c0,4.6-2.2,8.5-5.9,10.3l-16,8.2l-0.4,0.1l0,0c-1,0.3-2.1,0.5-3.1,0.5
				C236.2,364.8,233.7,364.1,231.5,362.7z M258,355.3c3.4-1.7,5.4-5.2,5.4-9.6l0.6-198.5c0-9.5-7-21.1-15.7-25.9L32.9,2.9
				c-3.2-1.8-6.3-2.4-8.9-1.8l-1.2,2.8l4-0.3c0.2,0,0.3,0,0.5,0c2.1,0.1,4.2,0.7,6.1,1.8l199.9,110l0.7,0.4l-13.4,6.9l-0.2,0.1
				L16.8,10.8c-4.1-2.3-8-2.6-10.9-1.1c-2.9,1.6-4.5,4.9-4.5,9.4L0.9,217.6c0,9.5,7,21.1,15.7,25.9L231.9,362
				c3.7,2,7.3,2.5,10.1,1.4l0.3-0.1L258,355.3z M231.5,359.5L16.1,241.1c-7.3-4-13.2-13.8-13.2-21.8L3.5,20.7c0-4,1.4-6.9,4.1-8.3
				c2.6-1.4,6.1-1.1,9.7,0.9l215.3,118.5c7.3,4,13.2,13.8,13.2,21.8l-0.6,198.5c0,3.9-1.4,6.9-4.1,8.3c-1.1,0.6-2.4,0.9-3.6,0.9
				C235.4,361.2,233.3,360.6,231.5,359.5L231.5,359.5z M8,13.1c-2.3,1.3-3.6,4-3.6,7.6L3.8,219.2c0,7.7,5.7,17.2,12.8,21.1
				l215.3,118.5c3.4,1.8,6.5,2.2,8.8,0.9s3.6-4,3.6-7.6l0.6-198.5c0-7.7-5.7-17.2-12.8-21.1L16.8,14c-1.7-1-3.6-1.6-5.6-1.6
				C10.1,12.3,9,12.6,8,13.1z M247,356.7c0.2-1,0.3-2,0.3-3.1l0.6-184.2v-0.3l14-7.2l-0.5,182.1c0,3.2-1,5.7-2.7,7.4l-11.8,6.1
				L247,356.7z M260.4,344.2l0.5-180.7l-12.3,6.3l-0.6,183.9c0,0.8-0.1,1.6-0.2,2.4l10-5.1C259.6,349.4,260.4,347.1,260.4,344.2
				L260.4,344.2z M247.9,155.1c0-9.5-7-21.1-15.7-25.9l-9.7-5.3l13.6-7l12.6,6.9c7.3,4,13.2,13.8,13.2,21.8l0,14l-13.4,6.9l-0.7,0.3
				L247.9,155.1z M261,145.6c0-7.7-5.7-17.2-12.8-21.1l-12.1-6.7l-11.8,6l8.3,4.6c8.9,4.9,16.2,16.9,16.1,26.6l0,10.3l12.3-6.3
				L261,145.6z"/>
			<path class="st5" d="M231.6,153.9l1,0.6l-0.5,182.6L17.2,218.9l-1-0.6l0.5-182.6L231.6,153.9z"/>
			<path class="st5" d="M228,330.4l0.5-173.6L20.7,42.4L20.2,216L228,330.4z"/>
			<path class="st5" d="M232.5,337.8v-0.7l0.5-182.8l-1.3-0.7L16.2,35v0.7l-0.5,182.8l1.3,0.7L232.5,337.8z"/>
			<path class="st5" d="M232.2,154.7l-0.5,181.6L16.6,218l0.5-181.6L232.2,154.7z"/>
			<path class="st5" d="M228.4,331.1v-0.7l0.5-173.9l-0.2-0.1L20.3,41.7v0.7l-0.5,173.9l0.2,0.1L228.4,331.1z"/>
			<path class="st0" d="M228.1,157l-0.5,172.6L20.7,215.8l0.5-172.6L228.1,157z"/>
		</g>
		<g transform="translate(0 236.904)">
			<path class="st5" d="M0.9,118.1l-0.5,0c-0.1,3,1.9,6.1,6.1,8.4l198.6,110v0.7h1.2l16.1,8.9c8.2,4.5,21.5,4.5,29.8,0l16.2-8.9h0.3
				v-0.2L406.8,161c4.4-2.4,6.4-5.6,6.2-8.7h-0.4V134c1.4-3.7-0.5-7.7-5.6-10.6L190.9,3.8c-8.2-4.5-21.5-4.5-29.7,0L6.6,88.8
				c-5.3,2.9-7.1,6.9-5.7,10.7L0.9,118.1z M403.9,138.2l-154.5,85c-6.6,3.6-17.4,3.6-24,0L9.4,103.6c-6.6-3.6-6.6-9.6,0.1-13.2
				L164,5.4c6.6-3.6,17.4-3.6,24,0L404,125C410.6,128.7,410.5,134.6,403.9,138.2L403.9,138.2z M268.8,233.8v-18l137.9-75.9
				c0.8-0.4,1.5-0.9,2.2-1.4v13.9h-0.1c0.2,2.6-1.4,5.2-5,7.1L268.8,233.8z M208.2,234.9v-18l14.3,7.9c8.2,4.5,21.5,4.5,29.8,0
				l13.5-7.4v18l-16.4,9c-6.6,3.6-17.4,3.6-24,0L208.2,234.9z M4.5,118.2L4.5,118.2l0-14.4c0.7,0.5,1.3,0.9,2.1,1.3l198.6,110v18
				L9.4,124.8C6.2,123,4.5,120.6,4.5,118.2z"/>
			<path class="st5" d="M222.3,246.4l-16-8.9h-1.5v-0.9L6.3,126.8c-4.2-2.3-6.4-5.4-6.3-8.8l0-0.4l0.4,0V99.5
				c-1.5-4.1,0.7-8.2,5.9-11.1l154.5-85c8.4-4.6,21.9-4.6,30.2,0l216,119.6c5.2,2.9,7.4,7,5.9,11v17.8h0.4l0,0.4
				c0.3,3.4-2.1,6.7-6.4,9.1l-137.7,75.8v0.4h-0.7l-16.1,8.9C243,251,231.8,251,222.3,246.4L222.3,246.4z M406.6,160.7
				c3.8-2.1,6-5,6-7.9h-0.5V134l0-0.1c1.4-3.6-0.6-7.4-5.4-10.1L190.7,4.2c-8.1-4.5-21.2-4.5-29.3,0L6.9,89.2
				C2,91.9-0.1,95.7,1.3,99.3l0,19.2l-0.5,0c0.1,2.9,2.2,5.5,5.9,7.6l198.6,110l0.2,0.1v0.5h0.9l16.2,9c8.1,4.5,21.2,4.5,29.3,0
				l16.2-8.9l0.1-0.1h0L406.6,160.7z M225.2,244.8l-17.2-9.5l-0.2-0.1v-19l14.9,8.3c8.1,4.5,21.2,4.5,29.3,0l14.2-7.8v19l-16.6,9.1
				C241.9,248.5,232.9,248.5,225.2,244.8L225.2,244.8z M265.3,218.1l-12.8,7.1c-8.4,4.6-21.9,4.6-30.2,0l-13.6-7.5v17l17,9.4
				c6.5,3.6,17,3.6,23.5,0l16.2-8.9L265.3,218.1z M268.4,215.5l138.2-76c0.7-0.4,1.4-0.9,2.1-1.4l0.7-0.5v14.8l0,0.3
				c0.1,2.7-1.8,5.3-5.2,7.2l-135.1,74.3l-0.7,0.4L268.4,215.5z M408.4,152.3l0.1-13.1c-0.5,0.3-1,0.6-1.5,0.9L269.3,216V233
				l134.4-73.9C406.9,157.3,408.7,154.8,408.4,152.3L408.4,152.3z M9.2,125.2c-3.2-1.8-5-4.1-5.1-6.6L4,103l0.7,0.5
				c0.6,0.5,1.3,0.9,2,1.3l198.6,110l0.2,0.1v19L9.2,125.2z M6.3,105.6c-0.5-0.3-0.9-0.5-1.4-0.9v13.1h0v0.4c0,2.3,1.7,4.6,4.7,6.2
				l195.1,108v-17L6.3,105.6z M225.2,223.6L9.2,104c-3.3-1.8-5.1-4.3-5.1-7c0-2.7,1.9-5.2,5.2-7L163.8,5c6.8-3.7,17.7-3.7,24.4,0
				l216,119.6L404,125l0.2-0.4c3.3,1.8,5.1,4.3,5.1,7c0,2.7-1.9,5.2-5.2,7l-154.5,85C241.9,227.3,232.9,227.3,225.2,223.6
				L225.2,223.6z M187.8,5.8c-6.5-3.6-17-3.6-23.5,0L9.7,90.8C6.7,92.5,5,94.7,5,97c0,2.3,1.7,4.5,4.7,6.2l216,119.6
				c6.5,3.6,17,3.6,23.5,0l154.5-85c3.1-1.7,4.8-3.9,4.8-6.3c0-2.3-1.7-4.5-4.7-6.2L187.8,5.8z"/>
		</g>
		<g transform="translate(89.329 255.943)">
			<path class="st5" d="M283.3,108.2l-87.9,48.4L0.9,48.8L88.8,0.5L283.3,108.2z M195.5,153.4l82.1-45.2L88.8,3.7L6.7,48.8
				L195.5,153.4"/>
			<path class="st5" d="M0.7,49.2L0,48.8L88.5,0.1L88.8,0l194.8,107.9l0.7,0.4L195.7,157l-0.2,0.1L0.7,49.2z M88.8,1l-87,47.9
				l193.7,107.3l87-47.9L88.8,1z M6.4,49.2l-0.7-0.4L88.5,3.3l0.2-0.1l189,104.7l0.7,0.4l-82.7,45.5l-0.2,0.1L6.4,49.2z M88.7,4.2
				L7.5,48.8l187.9,104.1l81.2-44.7L88.7,4.2z"/>
		</g>
		<g transform="translate(109.671 350.36)">
			<path class="st5" d="M89.5,30.1L54.3,49.5L0.9,19.8L36.1,0.5L89.5,30.1z M54.4,46.3l29.4-16.2L36.1,3.7L6.7,19.8L54.4,46.3"/>
			<path class="st5" d="M0,19.8L35.9,0.1L36.1,0l54.4,30.1L54.6,49.8l-0.2,0.1L0,19.8z M36.1,1L1.8,19.8L54.3,49l34.3-18.9L36.1,1z
				 M5.8,19.8l30-16.5L36,3.2l48.6,26.9l-30,16.5l-0.2,0.1L5.8,19.8z M36,4.2L7.5,19.8l46.8,25.9l28.5-15.7L36,4.2z"/>
		</g>
	</g>
	<g transform="translate(3463.79 3632.514)">
		<path class="st5" d="M0.3,0l100,55l-0.3,85.8l-50.1,7.8L0,85.8l0.2-63L61,56.3c7.7,5.1,13.9,15.7,13.8,24.4c0,4.5-1.7,7.7-4.4,9.3
			c2.7,4.9,4.5,9.1,4.5,13.9c0,9-6.3,14.2-14.2,10.8L29.2,97.3l0.2-34.7l30.6,16.8l0.5,0.2c2.4,0.5,4-0.9,4-3.8
			c0-2.9-1.8-5.7-4.2-7.8L10.4,40.6l-0.1,45l39.4,49.1l40.1-5.4L90,60.6L0.2,11.3L0.3,0z M59.8,102.5c2.5,0.5,4.2-0.4,4.3-3.4
			c0-3-1.9-6-4.4-8.2c-0.1-0.1-0.2-0.2-0.3-0.3l-20-11l0,11.6l20.3,11.1L59.8,102.5"/>
	</g>
</g>
</svg>
