<svg xmlns="http://www.w3.org/2000/svg" width="156.845" height="48.024" viewBox="0 0 156.845 48.024"><defs><style>.a{fill:#23b9d8;}.b{fill:#fff;}</style></defs><g transform="translate(-261.427 -318.105)"><path class="a" d="M286.971,336.547a2.432,2.432,0,0,0,2.39-2.472,2.232,2.232,0,0,0-2.39-2.231h-21l.024,17.794,17.237,11.085,17.236-11.085.032-26.975H261.427v-4.557h43.614L305,352.127l-21.772,14-21.8-14V327.384h25.495a6.873,6.873,0,0,1,2.672.347,7.035,7.035,0,0,1,3.794,3.794,5.789,5.789,0,0,1,.533,2.43,6.944,6.944,0,0,1-.533,2.672,7.021,7.021,0,0,1-1.306,2.048,7.029,7.029,0,0,1,1.306,2.048,6.956,6.956,0,0,1,0,5.343,6.7,6.7,0,0,1-1.521,2.194,7.036,7.036,0,0,1-2.273,1.521,6.951,6.951,0,0,1-2.672.533h-12.7V336.548Zm-.044,9.161a2.339,2.339,0,1,0,0-4.675h-8.146v4.675h8.146Z"/><g transform="translate(316.166 322.838)"><g transform="translate(0.389 0)"><path class="b" d="M670.329,360.995a3.941,3.941,0,0,1,.758,2.464,3.611,3.611,0,0,1-1.561,3.133,7.844,7.844,0,0,1-4.549,1.1h-7.761V352.085h7.315a7.183,7.183,0,0,1,4.26,1.082,3.476,3.476,0,0,1,1.494,2.977,3.908,3.908,0,0,1-.535,2.052,3.663,3.663,0,0,1-1.472,1.383A4.123,4.123,0,0,1,670.329,360.995Zm-10.214-6.635v4.3h4.1a4.17,4.17,0,0,0,2.331-.546,1.8,1.8,0,0,0,.814-1.595,1.821,1.821,0,0,0-.814-1.617,4.173,4.173,0,0,0-2.331-.546Zm8.051,8.809q0-2.252-3.367-2.252h-4.683v4.5H664.8Q668.166,365.421,668.166,363.169Z" transform="translate(-657.216 -352.085)"/><path class="b" d="M783.547,364.083h-7.806L774.2,367.7h-2.988l7.025-15.611h2.855l7.047,15.611h-3.033Zm-.959-2.275-2.944-6.824-2.922,6.824Z" transform="translate(-755.336 -352.085)"/><path class="b" d="M928.867,352.085V367.7H926.48l-8.608-10.571V367.7h-2.877V352.085h2.386l8.608,10.571V352.085Z" transform="translate(-879.09 -352.085)"/><path class="b" d="M1045.233,362.188V367.7h-2.9v-5.464l-6.133-10.147h3.1l4.572,7.6,4.616-7.6h2.855Z" transform="translate(-983.414 -352.085)"/><path class="b" d="M1156.291,364.083h-7.806l-1.539,3.613h-2.988l7.025-15.611h2.854l7.047,15.611h-3.033Zm-.959-2.275-2.944-6.824-2.922,6.824Z" transform="translate(-1076.162 -352.085)"/><path class="b" d="M1301.61,352.085V367.7h-2.386l-8.608-10.571V367.7h-2.877V352.085h2.386l8.609,10.571V352.085Z" transform="translate(-1199.916 -352.085)"/></g><g transform="translate(0 23.25)"><path class="b" d="M656.526,532.239a5.463,5.463,0,0,1-2.1-1.326l.445-.735a5.24,5.24,0,0,0,1.926,1.229,6.908,6.908,0,0,0,2.545.474,4.854,4.854,0,0,0,2.922-.735,2.282,2.282,0,0,0,.987-1.916,2,2,0,0,0-.523-1.451,3.46,3.46,0,0,0-1.3-.832,17.877,17.877,0,0,0-2.09-.6,20.3,20.3,0,0,1-2.39-.716,3.815,3.815,0,0,1-1.529-1.074,2.866,2.866,0,0,1-.629-1.945,3.307,3.307,0,0,1,.523-1.81,3.549,3.549,0,0,1,1.6-1.306,6.533,6.533,0,0,1,2.68-.484,7.561,7.561,0,0,1,2.206.329,6.5,6.5,0,0,1,1.877.89l-.368.793a6.285,6.285,0,0,0-1.79-.852,6.744,6.744,0,0,0-1.926-.29,4.562,4.562,0,0,0-2.845.755,2.366,2.366,0,0,0-.968,1.955,2,2,0,0,0,.522,1.452,3.458,3.458,0,0,0,1.3.832,19.662,19.662,0,0,0,2.109.619,19.784,19.784,0,0,1,2.38.716,3.919,3.919,0,0,1,1.519,1.055,2.764,2.764,0,0,1,.629,1.906,3.217,3.217,0,0,1-.532,1.8,3.62,3.62,0,0,1-1.635,1.3,6.739,6.739,0,0,1-2.709.484A7.887,7.887,0,0,1,656.526,532.239Z" transform="translate(-654.426 -519.011)"/><path class="b" d="M767.085,532.362v.89h-9.348V519.705h9.057v.89h-8.07v5.341h7.219v.871h-7.219v5.554Z" transform="translate(-743.347 -519.608)"/><path class="b" d="M847.44,531.861a6.575,6.575,0,0,1-2.516-2.458,7.208,7.208,0,0,1,0-7.044,6.578,6.578,0,0,1,2.516-2.458,7.247,7.247,0,0,1,3.59-.89,7.521,7.521,0,0,1,2.709.474,5.587,5.587,0,0,1,2.109,1.4l-.619.639a5.671,5.671,0,0,0-4.161-1.606,6.27,6.27,0,0,0-3.1.774,5.665,5.665,0,0,0-2.187,2.138,6.252,6.252,0,0,0,0,6.1,5.664,5.664,0,0,0,2.187,2.138,6.266,6.266,0,0,0,3.1.774,5.675,5.675,0,0,0,4.161-1.626l.619.639a5.663,5.663,0,0,1-2.119,1.413,7.4,7.4,0,0,1-2.7.484A7.242,7.242,0,0,1,847.44,531.861Z" transform="translate(-817.599 -519.011)"/><path class="b" d="M952.66,531.859a6.071,6.071,0,0,1-1.422-4.354v-7.8h.987v7.761a5.346,5.346,0,0,0,1.142,3.735,5.014,5.014,0,0,0,6.6,0,5.347,5.347,0,0,0,1.142-3.735v-7.761h.987v7.8a6.046,6.046,0,0,1-1.432,4.354,6.117,6.117,0,0,1-8,0Z" transform="translate(-909.896 -519.608)"/><path class="b" d="M1069.188,533.252l-3.232-4.529a9.87,9.87,0,0,1-1.316.1h-3.87v4.432h-.987V519.705h4.858a6.076,6.076,0,0,1,4.006,1.21,4.133,4.133,0,0,1,1.451,3.358,4.131,4.131,0,0,1-3.174,4.238l3.387,4.741Zm-4.548-5.3a5.024,5.024,0,0,0,3.309-.958,3.808,3.808,0,0,0,0-5.438,5.024,5.024,0,0,0-3.309-.958h-3.87v7.354Z" transform="translate(-1003.322 -519.608)"/><path class="b" d="M1174.3,519.705h.987v13.547h-.987Z" transform="translate(-1101.891 -519.608)"/><path class="b" d="M1212.6,520.6h-4.877v-.89h10.741v.89h-4.877v12.657h-.987Z" transform="translate(-1130.659 -519.608)"/><path class="b" d="M1308.484,528.588v4.664h-.987v-4.664l-5.458-8.883h1.084l4.9,7.973,4.9-7.973h1.026Z" transform="translate(-1211.836 -519.608)"/></g></g></g></svg>