<svg xmlns="http://www.w3.org/2000/svg" xmlns:xlink="http://www.w3.org/1999/xlink" width="766" height="414" viewBox="0 0 766 414"><defs><style>.a,.bu{fill:#fff;}.a{stroke:#707070;}.b{fill:none;}.c{clip-path:url(#a);}.d{clip-path:url(#b);}.e{fill:url(#c);}.f{isolation:isolate;}.g{fill:url(#d);}.h{fill:url(#e);}.i{fill:url(#f);}.j{fill:url(#g);}.k{fill:url(#h);}.l{fill:url(#i);}.m{fill:url(#j);}.n{fill:url(#k);}.o{fill:url(#l);}.p{fill:url(#m);}.q{fill:url(#n);}.r{fill:url(#o);}.s{fill:url(#p);}.t{fill:url(#q);}.u{fill:url(#r);}.v{fill:url(#s);}.w{fill:url(#t);}.x{fill:url(#u);}.y{fill:url(#v);}.z{fill:url(#w);}.aa{fill:url(#x);}.ab{fill:url(#y);}.ac{fill:url(#z);}.ad{fill:url(#aa);}.ae{fill:url(#ab);}.af{fill:url(#ac);}.ag{fill:url(#ad);}.ah{fill:url(#ae);}.ai{fill:url(#af);}.aj{fill:url(#ag);}.ak{fill:url(#ah);}.al{fill:url(#ai);}.am{fill:url(#aj);}.an{fill:url(#ak);}.ao{fill:url(#al);}.ap{fill:url(#am);}.aq{fill:url(#an);}.ar{fill:url(#ao);}.as{fill:url(#ap);}.at{fill:url(#aq);}.au{fill:url(#ar);}.av{fill:url(#as);}.aw{fill:url(#at);}.ax{fill:url(#au);}.ay{fill:url(#av);}.az{fill:url(#aw);}.ba{fill:url(#ax);}.bb{fill:url(#ay);}.bc{fill:url(#az);}.bd{fill:url(#ba);}.be{fill:url(#bb);}.bf{fill:url(#bc);}.bg{fill:url(#bd);}.bh{fill:url(#be);}.bi{fill:url(#bf);}.bj{fill:url(#bg);}.bk{fill:url(#bh);}.bl{fill:url(#bi);}.bm{fill:url(#bj);}.bn{fill:url(#bk);}.bo{fill:url(#bl);}.bp{fill:url(#bm);}.bq{fill:url(#bn);}.br{fill:#b6b8ba;}.bs{opacity:0.2;}.bt{fill:#23b9d8;}</style><clipPath id="a"><rect class="a" width="766" height="414" transform="translate(0 803)"/></clipPath><clipPath id="b"><rect class="b" width="691.59" height="668.195" rx="9.39"/></clipPath><radialGradient id="c" cx="1.06" cy="-1.495" r="2.107" gradientTransform="translate(0.293) scale(0.415 1)" gradientUnits="objectBoundingBox"><stop offset="0.238" stop-color="#00b9d7"/><stop offset="0.934" stop-color="#00051c"/></radialGradient><radialGradient id="d" cx="0.341" cy="3.685" r="2.62" gradientTransform="translate(0.306) scale(0.388 1)" xlink:href="#c"/><radialGradient id="e" cx="0.364" cy="3.061" r="2.107" xlink:href="#c"/><radialGradient id="f" cx="0.648" cy="2.663" r="2.107" xlink:href="#c"/><radialGradient id="g" cx="0.672" cy="3.19" r="2.62" gradientTransform="translate(0.306) scale(0.388 1)" xlink:href="#c"/><radialGradient id="h" cx="1.001" cy="2.698" r="2.62" gradientTransform="translate(0.306) scale(0.388 1)" xlink:href="#c"/><radialGradient id="i" cx="-0.282" cy="2.174" r="2.107" xlink:href="#c"/><radialGradient id="j" cx="-0.411" cy="2.582" r="2.62" gradientTransform="translate(0.306) scale(0.388 1)" xlink:href="#c"/><radialGradient id="k" cx="0.93" cy="2.268" r="2.107" xlink:href="#c"/><radialGradient id="l" cx="1.214" cy="1.87" r="2.107" xlink:href="#c"/><radialGradient id="m" cx="1.331" cy="2.203" r="2.62" gradientTransform="translate(0.306) scale(0.388 1)" xlink:href="#c"/><radialGradient id="n" cx="-0.08" cy="2.087" r="2.62" gradientTransform="translate(0.306) scale(0.388 1)" xlink:href="#c"/><radialGradient id="o" cx="0.002" cy="1.777" r="2.107" xlink:href="#c"/><radialGradient id="p" cx="1.658" cy="1.715" r="2.62" gradientTransform="translate(0.306) scale(0.388 1)" xlink:href="#c"/><radialGradient id="q" cx="0.284" cy="1.381" r="2.107" xlink:href="#c"/><radialGradient id="r" cx="0.248" cy="1.595" r="2.62" gradientTransform="translate(0.306) scale(0.388 1)" xlink:href="#c"/><radialGradient id="s" cx="1.494" cy="1.477" r="2.107" xlink:href="#c"/><radialGradient id="t" cx="-1.156" cy="1.472" r="2.62" gradientTransform="translate(0.306) scale(0.388 1)" xlink:href="#c"/><radialGradient id="u" cx="-0.922" cy="1.282" r="2.107" xlink:href="#c"/><radialGradient id="v" cx="1.778" cy="1.079" r="2.107" xlink:href="#c"/><radialGradient id="w" cx="1.988" cy="1.22" r="2.62" gradientTransform="translate(0.306) scale(0.388 1)" xlink:href="#c"/><radialGradient id="x" cx="0.579" cy="1.101" r="2.62" gradientTransform="translate(0.306) scale(0.388 1)" xlink:href="#c"/><radialGradient id="y" cx="-0.638" cy="0.884" r="2.107" xlink:href="#c"/><radialGradient id="z" cx="-0.826" cy="0.977" r="2.62" gradientTransform="translate(0.306) scale(0.388 1)" xlink:href="#c"/><radialGradient id="aa" cx="0.568" cy="0.983" r="2.107" xlink:href="#c"/><radialGradient id="ab" cx="2.319" cy="0.726" r="2.62" gradientTransform="translate(0.306) scale(0.388 1)" xlink:href="#c"/><radialGradient id="ac" cx="0.906" cy="0.612" r="2.62" gradientTransform="translate(0.306) scale(0.388 1)" xlink:href="#c"/><radialGradient id="ad" cx="2.062" cy="0.682" r="2.107" xlink:href="#c"/><radialGradient id="ae" cx="-0.497" cy="0.486" r="2.62" gradientTransform="translate(0.306) scale(0.388 1)" xlink:href="#c"/><radialGradient id="af" cx="0.848" cy="0.59" r="2.107" xlink:href="#c"/><radialGradient id="ag" cx="-1.568" cy="0.395" r="2.107" xlink:href="#c"/><radialGradient id="ah" cx="-1.909" cy="0.369" r="2.62" gradientTransform="translate(0.306) scale(0.388 1)" xlink:href="#c"/><radialGradient id="ai" cx="-0.356" cy="0.489" r="2.107" xlink:href="#c"/><radialGradient id="aj" cx="2.346" cy="0.284" r="2.107" xlink:href="#c"/><radialGradient id="ak" cx="2.65" cy="0.231" r="2.62" gradientTransform="translate(0.306) scale(0.388 1)" xlink:href="#c"/><radialGradient id="al" cx="1.132" cy="0.192" r="2.107" xlink:href="#c"/><radialGradient id="am" cx="1.236" cy="0.117" r="2.62" gradientTransform="translate(0.306) scale(0.388 1)" xlink:href="#c"/><radialGradient id="an" cx="-0.167" cy="-0.009" r="2.62" gradientTransform="translate(0.306) scale(0.388 1)" xlink:href="#c"/><radialGradient id="ao" cx="-1.284" cy="-0.002" r="2.107" xlink:href="#c"/><radialGradient id="ap" cx="-1.578" cy="-0.125" r="2.62" gradientTransform="translate(0.306) scale(0.388 1)" xlink:href="#c"/><radialGradient id="aq" cx="-0.072" cy="0.091" r="2.107" xlink:href="#c"/><radialGradient id="ar" cx="1.567" cy="-0.377" r="2.62" gradientTransform="translate(0.306) scale(0.388 1)" xlink:href="#c"/><radialGradient id="as" cx="0.208" cy="-0.302" r="2.107" xlink:href="#c"/><radialGradient id="at" cx="0.16" cy="-0.498" r="2.62" gradientTransform="translate(0.306) scale(0.388 1)" xlink:href="#c"/><radialGradient id="au" cx="1.416" cy="-0.205" r="2.107" xlink:href="#c"/><radialGradient id="av" cx="-1.249" cy="-0.617" r="2.62" gradientTransform="translate(0.306) scale(0.388 1)" xlink:href="#c"/><radialGradient id="aw" cx="-1.002" cy="-0.398" r="2.107" xlink:href="#c"/><radialGradient id="ax" cx="1.7" cy="-0.602" r="2.107" xlink:href="#c"/><radialGradient id="ay" cx="1.898" cy="-0.872" r="2.62" gradientTransform="translate(0.306) scale(0.388 1)" xlink:href="#c"/><radialGradient id="az" cx="0.49" cy="-0.993" r="2.62" gradientTransform="translate(0.306) scale(0.388 1)" xlink:href="#c"/><radialGradient id="ba" cx="-0.919" cy="-1.112" r="2.62" gradientTransform="translate(0.306) scale(0.388 1)" xlink:href="#c"/><radialGradient id="bb" cx="0.492" cy="-0.7" r="2.107" xlink:href="#c"/><radialGradient id="bc" cx="-0.718" cy="-0.796" r="2.107" xlink:href="#c"/><radialGradient id="bd" cx="0.776" cy="-1.097" r="2.107" xlink:href="#c"/><radialGradient id="be" cx="0.821" cy="-1.487" r="2.62" gradientTransform="translate(0.306) scale(0.388 1)" xlink:href="#c"/><radialGradient id="bf" cx="-0.592" cy="-1.601" r="2.62" gradientTransform="translate(0.306) scale(0.388 1)" xlink:href="#c"/><radialGradient id="bg" cx="-0.438" cy="-1.189" r="2.107" xlink:href="#c"/><radialGradient id="bh" cx="1.152" cy="-1.982" r="2.62" gradientTransform="translate(0.306) scale(0.388 1)" xlink:href="#c"/><radialGradient id="bi" cx="-0.262" cy="-2.096" r="2.62" gradientTransform="translate(0.306) scale(0.388 1)" xlink:href="#c"/><radialGradient id="bj" cx="-0.154" cy="-1.587" r="2.107" xlink:href="#c"/><radialGradient id="bk" cx="0.13" cy="-1.984" r="2.107" xlink:href="#c"/><radialGradient id="bl" cx="0.069" cy="-2.589" r="2.62" gradientTransform="translate(0.306) scale(0.388 1)" xlink:href="#c"/><radialGradient id="bm" cx="0.4" cy="-3.084" r="2.62" gradientTransform="translate(0.306) scale(0.388 1)" xlink:href="#c"/><radialGradient id="bn" cx="0.414" cy="-2.381" r="2.107" xlink:href="#c"/></defs><g class="c" transform="translate(0 -803)"><g transform="translate(-4012.993 1567.844)"><g transform="translate(3992.871 -798.14)"><g class="d"><g transform="translate(-387.64 -175.892)"><g transform="translate(424.698 623.826)"><path class="e" d="M4249.615-544.576l-93.978-54.259-10.312,6,23.562,13.6-36.144,21L4002.52-633.42l82.751-48.087,59.786,34.519-35.971,20.9-23.543-13.6-10.635,6.183,34.15,19.717,46.514-27.029,94.153,54.359,10.846-6.3-23.388-13.5,36.159-21.015,59.48,34.338Zm-82.948-34.661-23.562-13.6,12.525-7.278,93.977,54.259,81-47.073-57.255-33.056L4239.4-606.256l23.394,13.5-13.059,7.589-94.154-54.359-46.513,27.03-36.377-21,12.846-7.466,23.544,13.592,33.761-19.617-57.562-33.236-80.541,46.8,128,73.9,33.931-19.717" transform="translate(-4002.52 681.507)"/></g><g class="f"><g transform="translate(677.959 13.469)"><path class="g" d="M4292.323-730.331l-94.151-54.355-33.761,19.594,23.638,13.649-12.6,7.32L4068.464-805.89l59.435-34.542,36.459,21.046-12.832,7.458-23.542-13.592L4094.226-805.9l57.427,33.156,46.6-27.083,94.251,54.413,33.835-19.664-23.733-13.7,12.73-7.4,36.669,21.169Zm-106.49-21.111-23.639-13.649,35.97-20.881,94.151,54.359,57.473-33.4L4315.348-784.9l-10.524,6.114,23.736,13.7-36.048,20.946-94.227-54.4-46.608,27.087L4092-805.9l35.971-20.9,23.544,13.592,10.618-6.168-34.23-19.763-57.224,33.255,104.762,60.484,10.389-6.037" transform="translate(-4068.464 840.432)"/></g><g transform="translate(654.55)"><path class="h" d="M4309.465-707.02l-93.983-54.259-10.312,6,23.563,13.6-36.144,21-130.221-75.186,82.729-48.076,59.79,34.519-35.971,20.9-23.542-13.592-10.619,6.172,34.155,19.717,46.512-27.03,94.15,54.359,10.846-6.3-23.387-13.5,36.141-21,59.48,34.338Zm-82.949-34.661-23.561-13.6,12.522-7.278,93.98,54.259,80.977-47.062L4333.18-788.42,4299.249-768.7l23.39,13.5-13.059,7.589-94.15-54.359-46.513,27.03-36.381-21,12.831-7.454L4168.91-789.8l33.756-19.617-57.56-33.236-80.518,46.793,128,73.9,33.931-19.717" transform="translate(-4062.369 843.939)"/></g><g transform="translate(560.818 54.47)"><path class="i" d="M4285.058-692.837,4191.081-747.1l-10.331,6.006,23.562,13.6-36.123,20.992L4037.962-781.68l82.732-48.076,59.786,34.515-35.969,20.9-23.544-13.592-10.634,6.183,34.15,19.717,46.532-27.041,94.151,54.359,10.849-6.3-23.389-13.5,36.14-21,59.481,34.338Zm-82.966-34.649-23.562-13.6,12.543-7.289,93.977,54.255,80.978-47.058-57.253-33.056-33.931,19.721,23.389,13.5-13.058,7.585-94.151-54.355-46.532,27.041-36.377-21,12.846-7.466L4144.5-775.62l33.762-19.621L4120.7-828.473l-80.521,46.793,128,73.9,33.913-19.706" transform="translate(-4037.962 829.756)"/></g><g transform="translate(584.23 67.939)"><path class="j" d="M4267.916-716.148,4173.765-770.5,4139.988-750.9l23.638,13.649-12.582,7.309-106.985-61.768,59.435-34.542,36.455,21.046-12.827,7.458-23.547-13.6-33.758,19.621,57.427,33.155,46.59-27.076,94.248,54.417,33.854-19.675L4278.2-764.6l12.736-7.4,36.667,21.169Zm-106.51-21.1L4137.767-750.9l35.99-20.892,94.155,54.359,57.469-33.4-34.439-19.883L4280.42-764.6l23.736,13.7-36.067,20.958-94.229-54.4-46.588,27.072-59.672-34.45,35.971-20.9,23.544,13.592,10.614-6.172-34.226-19.76-57.229,33.255,104.763,60.485,10.368-6.026" transform="translate(-4044.059 826.249)"/></g><g transform="translate(491.032 122.099)"><path class="k" d="M4243.672-702.054l-94.15-54.359-33.782,19.606,23.638,13.649-12.6,7.324-106.986-61.771,59.436-34.542,36.456,21.05-12.829,7.455-23.542-13.592-33.758,19.617,57.427,33.156,46.6-27.083,94.251,54.413,33.835-19.664-23.733-13.7,12.731-7.4,36.669,21.169Zm-106.51-21.1-23.638-13.649,35.99-20.892,94.15,54.359,57.454-33.39-34.441-19.883-10.523,6.114,23.734,13.7-36.047,20.95-94.227-54.4L4103-743.163l-59.669-34.453,35.97-20.9,23.542,13.592,10.619-6.168-34.231-19.763-57.223,33.255,104.761,60.485,10.389-6.037" transform="translate(-4019.792 812.147)"/></g><g transform="translate(867.807 121.422)"><path class="l" d="M4364.988-675.4l-93.976-54.259-10.313,6,23.562,13.6-36.142,21L4117.9-764.247l82.73-48.076,59.785,34.519-35.97,20.9L4200.9-770.5l-10.614,6.172,34.154,19.718,46.508-27.03,94.155,54.359,10.845-6.3-23.389-13.5,36.144-21,59.479,34.342Zm-82.947-34.661-23.562-13.6L4271-730.946l93.979,54.259,80.975-47.058-57.25-33.059-33.931,19.721,23.388,13.5-13.057,7.589-94.155-54.359-46.512,27.03-36.378-21,12.827-7.454,23.548,13.591L4258.2-777.8l-57.563-33.236-80.52,46.793,128,73.9,33.932-19.717" transform="translate(-4117.896 812.323)"/></g><g transform="translate(891.195 134.88)"><path class="m" d="M4347.887-698.715l-94.155-54.359-33.777,19.606,23.639,13.649-12.6,7.324-107.007-61.783,59.437-34.542,36.474,21.061L4207.07-780.3l-23.543-13.592-33.762,19.617,57.426,33.156,46.609-27.083,94.248,54.413,33.834-19.664-23.734-13.7,12.735-7.4,36.665,21.169Zm-106.515-21.1-23.638-13.649,35.972-20.9L4347.879-700l57.454-33.39-34.442-19.882-10.521,6.114,23.733,13.7-36.047,20.95-94.247-54.417L4207.2-739.835l-59.65-34.442,35.97-20.9,23.544,13.592,10.618-6.168-34.25-19.775L4126.2-774.277l104.782,60.5,10.387-6.037" transform="translate(-4123.986 808.819)"/></g><g transform="translate(467.624 108.63)"><path class="n" d="M4260.792-678.735l-93.981-54.259L4156.5-727l23.563,13.6-36.144,21L4013.7-767.578l82.729-48.076,59.79,34.518-35.971,20.9-23.542-13.6-10.619,6.172,34.154,19.717,46.513-27.03,94.15,54.359,10.846-6.3-23.389-13.5,36.143-21,59.479,34.338ZM4177.844-713.4,4154.283-727l12.524-7.278,93.977,54.259,80.979-47.062-57.255-33.056-33.931,19.721,23.39,13.5-13.059,7.589-94.15-54.359-46.513,27.029-36.381-21,12.831-7.454,23.542,13.592L4154-781.135l-57.563-33.236-80.517,46.793,128,73.9,33.931-19.717" transform="translate(-4013.696 815.654)"/></g><g transform="translate(373.892 163.1)"><path class="o" d="M4236.386-664.552l-93.977-54.259-10.312,5.995,23.562,13.6-36.144,21L3989.291-753.4l82.733-48.076,59.784,34.519-35.97,20.9-23.542-13.6-10.62,6.172,34.154,19.717,46.513-27.03,94.15,54.359,10.85-6.3-23.389-13.5,36.14-21,59.482,34.338Zm-82.946-34.661-23.562-13.6,12.524-7.278,93.978,54.259,80.979-47.062L4260.1-745.952l-33.931,19.721,23.39,13.5-13.059,7.589-94.15-54.359-46.513,27.029-36.377-21,12.829-7.455,23.541,13.592,33.763-19.617-57.563-33.236L3991.51-753.4l128,73.9,33.931-19.717" transform="translate(-3989.291 801.471)"/></g><g transform="translate(397.299 176.569)"><path class="p" d="M4219.266-687.871l-94.15-54.359-33.777,19.606,23.638,13.649-12.6,7.32-106.99-61.767,59.441-34.542,36.454,21.05-12.832,7.455-23.542-13.592-33.758,19.617,57.428,33.155,46.608-27.083,94.246,54.413,33.836-19.664-23.735-13.7,12.735-7.4,36.667,21.169Zm-106.509-21.1-23.639-13.649,35.99-20.892,94.151,54.359,57.454-33.39-34.438-19.883-10.523,6.114,23.735,13.7-36.046,20.946-94.229-54.4L4078.6-728.98l-59.673-34.453,35.975-20.9,23.541,13.592,10.617-6.168-34.229-19.764-57.227,33.256,104.762,60.484,10.389-6.037" transform="translate(-3995.385 797.964)"/></g><g transform="translate(797.464 189.35)"><path class="q" d="M4323.479-684.532,4229.33-738.89l-33.779,19.606,23.639,13.649-12.6,7.324-107.008-61.783,59.437-34.542,36.478,21.061-12.833,7.455-23.541-13.592-33.759,19.617,57.429,33.156,46.608-27.083,94.246,54.413,33.836-19.664-23.733-13.7,12.734-7.4,36.666,21.169Zm-106.508-21.1-23.639-13.649,35.97-20.9,94.17,54.37,57.454-33.389-34.441-19.883-10.521,6.114,23.734,13.7-36.047,20.946L4229.4-752.74l-46.6,27.087-59.656-34.442,35.972-20.9,23.541,13.592,10.621-6.168-34.25-19.775L4101.8-760.094l104.779,60.5,10.39-6.037" transform="translate(-4099.581 794.636)"/></g><g transform="translate(774.075 175.893)"><path class="r" d="M4340.587-661.221l-93.979-54.259-10.315,6,23.563,13.6-36.141,21L4093.49-750.064l82.734-48.076,59.786,34.519-35.972,20.9-23.541-13.6-10.621,6.172,34.154,19.718,46.513-27.03,94.151,54.359,10.846-6.3-23.39-13.5,36.144-21,59.482,34.338Zm-82.948-34.661-23.562-13.6,12.523-7.278L4340.58-662.5l80.979-47.062L4364.3-742.621,4330.372-722.9l23.387,13.5-13.058,7.589-94.148-54.359-46.515,27.03-36.375-21,12.827-7.454L4200.03-744l33.759-19.617-57.562-33.236-80.517,46.793,128,73.9,33.931-19.717" transform="translate(-4093.49 798.14)"/></g><g transform="translate(304.716 230.386)"><path class="s" d="M4195.14-673.862l-94.155-54.359-33.777,19.61,23.64,13.649-12.583,7.308-106.986-61.767,59.417-34.53,36.454,21.046-12.808,7.447-23.542-13.6-33.782,19.633,57.428,33.155,46.609-27.087,94.246,54.416,33.854-19.675-23.734-13.7,12.715-7.389,36.667,21.169Zm-106.513-21.1-23.634-13.649,35.99-20.892,94.15,54.359,57.454-33.39-34.441-19.886-10.5,6.107,23.733,13.7-36.065,20.958-94.229-54.4-46.608,27.083-59.67-34.45,35.988-20.916,23.544,13.592,10.619-6.172-34.231-19.759-57.229,33.255,104.763,60.485,10.369-6.026" transform="translate(-3971.279 783.951)"/></g><g transform="translate(680.877 230.04)"><path class="t" d="M4316.32-647.11l-93.979-54.255-10.31,5.991,23.561,13.6-36.144,21-130.223-75.186,82.751-48.087,59.785,34.519-35.97,20.9-23.543-13.592-10.633,6.18,34.152,19.717,46.511-27.029,94.152,54.359,10.846-6.3-23.387-13.5,36.141-21,59.48,34.342Zm-82.949-34.661-23.56-13.6,12.523-7.278,93.982,54.259,80.973-47.058-57.255-33.056L4306.1-708.789l23.39,13.5-13.054,7.589-94.154-54.359-46.515,27.03-36.377-21,12.848-7.466,23.542,13.591,33.762-19.617-57.563-33.232-80.539,46.8,128,73.9,33.931-19.717" transform="translate(-4069.224 784.041)"/></g><g transform="translate(704.289 243.513)"><path class="u" d="M4299.195-670.432l-94.148-54.359-33.777,19.606,23.637,13.649-12.581,7.312L4075.32-746.007l59.417-34.526,36.473,21.058-12.827,7.455-23.542-13.592-33.763,19.618L4158.5-712.84l46.61-27.083,94.245,54.413,33.835-19.664-23.733-13.7,12.735-7.4,36.665,21.169Zm-106.509-21.1-23.637-13.649,35.97-20.9,94.173,54.37,57.454-33.389L4322.2-724.991l-10.523,6.114,23.734,13.7-36.046,20.95-94.246-54.417-46.61,27.087-59.65-34.442,35.97-20.9,23.542,13.592,10.62-6.168-34.25-19.775-57.208,33.243,104.782,60.5,10.368-6.026" transform="translate(-4075.32 780.533)"/></g><g transform="translate(281.288 216.902)"><path class="v" d="M4212.271-650.528l-93.977-54.259-10.312,5.995,23.562,13.6-36.144,21-130.221-75.186,82.748-48.091,59.79,34.518-35.971,20.9L4048.2-745.631l-10.633,6.183,34.154,19.717,46.513-27.03,94.15,54.359,10.846-6.306-23.388-13.5L4236-733.222l59.479,34.338Zm-82.948-34.661-23.562-13.6,12.523-7.282,93.982,54.259,81-47.069-57.254-33.056-33.95,19.729,23.389,13.5-13.058,7.589-94.151-54.355-46.512,27.03-36.382-21,12.85-7.466,23.544,13.592,33.758-19.622-57.562-33.232-80.541,46.8,128,73.9,33.931-19.717" transform="translate(-3965.179 787.462)"/></g><g transform="translate(1102.637 257.07)"><path class="w" d="M4402.922-666.914l-94.151-54.359-33.777,19.61,23.64,13.645-12.6,7.324-106.99-61.771L4238.482-777l36.455,21.046-12.828,7.455-23.546-13.592L4204.8-742.477l57.446,33.167,46.609-27.083,94.227,54.4,33.835-19.664-23.734-13.7,12.736-7.4,36.666,21.169Zm-106.509-21.1-23.637-13.645,35.987-20.892,94.151,54.355,57.454-33.386-34.437-19.886-10.524,6.114,23.736,13.7-36.048,20.95-94.227-54.4-46.609,27.083-59.675-34.453,35.971-20.9,23.546,13.6,10.615-6.172-34.23-19.763-57.224,33.255,104.762,60.485,10.389-6.037" transform="translate(-4179.042 777.003)"/></g><g transform="translate(1079.228 243.598)"><path class="x" d="M4420.044-643.588l-93.979-54.259-10.312,5.991,23.563,13.6-36.144,21-130.226-75.182,82.733-48.079,59.787,34.518-35.971,20.9-23.542-13.592-10.619,6.168,34.154,19.721L4326-739.82l94.151,54.355,10.85-6.3-23.39-13.5,36.14-21,59.481,34.342ZM4337.1-678.253l-23.561-13.6,12.522-7.278,93.98,54.259,80.977-47.058-57.255-33.055-33.931,19.717,23.389,13.5-13.058,7.589-94.151-54.359L4279.5-711.508l-36.378-21,12.828-7.455,23.542,13.592,33.762-19.618-57.56-33.232-80.522,46.793,128,73.9,33.931-19.721" transform="translate(-4172.946 780.511)"/></g><g transform="translate(187.556 271.372)"><path class="y" d="M4187.868-636.345,4093.891-690.6l-10.315,5.991,23.566,13.607L4071-650l-130.224-75.186,82.751-48.091,59.786,34.518-35.971,20.9L4023.8-731.448l-10.639,6.183,34.154,19.717,46.513-27.03,94.15,54.359,10.846-6.306-23.389-13.5,36.162-21.012,59.482,34.338Zm-82.947-34.661-23.562-13.6,12.523-7.282,93.98,54.259,81-47.07L4211.6-717.756l-33.95,19.729,23.388,13.5-13.057,7.589-94.151-54.359-46.513,27.034-36.378-21,12.847-7.466,23.542,13.592,33.759-19.622-57.559-33.232-80.539,46.8,128,73.9,33.931-19.717" transform="translate(-3940.773 773.279)"/></g><g transform="translate(210.984 284.856)"><path class="z" d="M4170.733-659.679l-94.15-54.359-33.777,19.61,23.639,13.65-12.582,7.308-106.99-61.768,59.417-34.53,36.458,21.046-12.812,7.447-23.542-13.6-33.758,19.621,57.427,33.156,46.59-27.076,94.246,54.416,33.854-19.675-23.734-13.7,12.715-7.389,36.667,21.169Zm-106.509-21.1-23.638-13.65,35.99-20.893,94.15,54.359,57.455-33.39-34.442-19.886-10.5,6.107,23.733,13.7-36.065,20.958-94.227-54.4L4030.09-700.8l-59.675-34.45,35.952-20.892,23.542,13.592,10.619-6.172L4006.3-768.485l-57.206,33.247,104.763,60.485,10.369-6.026" transform="translate(-3946.873 769.768)"/></g><g transform="translate(610.557 297.98)"><path class="aa" d="M4274.794-656.247l-94.15-54.359L4146.865-691,4170.5-677.35l-12.577,7.312-107.009-61.783,59.417-34.53,36.477,21.061-12.831,7.455-23.542-13.592-33.758,19.618,57.426,33.155,46.605-27.083,94.251,54.413,33.835-19.664-23.736-13.7,12.732-7.4,36.671,21.169Zm-106.51-21.1L4144.646-691l35.97-20.9,94.171,54.37,57.454-33.389L4297.8-710.805l-10.524,6.114,23.736,13.7-36.045,20.95-94.25-54.416-46.605,27.087-59.655-34.442,35.97-20.9,23.543,13.592,10.618-6.168-34.249-19.775-57.2,33.244,104.781,60.5,10.37-6.026" transform="translate(-4050.914 766.351)"/></g><g transform="translate(985.5 298.068)"><path class="ab" d="M4395.637-629.405l-93.98-54.259-10.312,5.991,23.56,13.6-36.141,21-130.222-75.183,82.729-48.08,59.789,34.518-35.969,20.9L4231.546-724.5l-10.617,6.168,34.154,19.721,46.512-27.03,94.151,54.355,10.845-6.3-23.389-13.5,36.144-21,59.478,34.342ZM4312.69-664.07l-23.562-13.6,12.524-7.277,93.978,54.259,80.977-47.058-57.253-33.056-33.931,19.717,23.389,13.5L4395.754-670,4301.6-724.355l-46.512,27.029-36.383-21,12.831-7.455,23.544,13.592,33.758-19.618-57.562-33.232-80.521,46.793,128,73.9,33.931-19.721" transform="translate(-4148.542 766.328)"/></g><g transform="translate(1008.909 311.54)"><path class="ac" d="M4378.517-652.731l-94.151-54.359-33.781,19.61,23.637,13.645-12.6,7.324-106.986-61.771,59.435-34.538,36.454,21.046-12.826,7.455-23.545-13.592L4180.4-728.294l57.441,33.167,46.611-27.083,94.228,54.4,33.839-19.664-23.736-13.7,12.732-7.4,36.668,21.173Zm-106.509-21.1-23.64-13.645,35.99-20.9,94.151,54.359,57.454-33.386L4401.52-707.29,4391-701.175l23.733,13.7-36.046,20.95-94.227-54.4L4237.85-693.84l-59.67-34.453,35.969-20.9,23.543,13.6,10.618-6.172-34.229-19.763-57.226,33.255L4261.619-667.8l10.389-6.037" transform="translate(-4154.637 762.82)"/></g><g transform="translate(587.149 284.511)"><path class="ad" d="M4291.916-632.928l-93.979-54.259-10.315,5.995,23.562,13.6-36.139,21-130.225-75.186,82.751-48.087,59.786,34.518-35.972,20.9-23.541-13.592-10.638,6.18,34.154,19.717,46.512-27.029,94.151,54.359,10.845-6.3-23.389-13.5,36.144-21,59.481,34.342Zm-82.949-34.661-23.562-13.6,12.523-7.278,93.977,54.259,80.98-47.058-57.255-33.059L4281.7-694.606l23.389,13.5-13.058,7.589-94.15-54.359-46.513,27.03-36.381-21,12.85-7.466,23.541,13.592,33.759-19.617-57.562-33.236-80.536,46.8,128,73.9,33.931-19.718" transform="translate(-4044.819 769.858)"/></g><g transform="translate(117.16 339.227)"><path class="ae" d="M4146.3-645.522l-94.154-54.359-33.758,19.621,23.638,13.646-12.582,7.312-107-61.779,59.416-34.531,36.473,21.058L4005.5-727.1l-23.542-13.592L3948.2-721.069l57.427,33.155L4052.237-715l94.246,54.413,33.836-19.664-23.736-13.7,12.736-7.4,36.646,21.157Zm-106.494-21.092L4016.17-680.26l35.971-20.9,94.154,54.359,57.456-33.39-34.423-19.875-10.523,6.114,23.734,13.7-36.047,20.95-94.246-54.413-46.609,27.083-59.651-34.438,35.971-20.9,23.543,13.592,10.618-6.172-34.25-19.775-57.208,33.247,104.781,60.5,10.37-6.03" transform="translate(-3922.443 755.611)"/></g><g transform="translate(517.95 351.785)"><path class="af" d="M4250.68-642.229l-94.15-54.355-33.778,19.606,23.638,13.65-12.581,7.312L4026.8-717.8l59.44-34.542,36.473,21.061-12.831,7.455-23.542-13.592L4052.583-717.8l57.427,33.155,46.589-27.076,94.248,54.417,33.854-19.675-23.734-13.7,12.736-7.4,36.667,21.169Zm-106.509-21.1-23.638-13.65,35.971-20.9,94.169,54.37,57.475-33.4L4273.709-696.8l-10.523,6.114,23.735,13.7-36.067,20.958-94.246-54.413-46.59,27.075L4050.362-717.8l35.975-20.9,23.542,13.592,10.615-6.168-34.25-19.775L4029.02-717.8,4133.8-657.3l10.369-6.026" transform="translate(-4026.8 752.341)"/></g><g transform="translate(93.728 325.743)"><path class="ag" d="M4163.457-622.176l-93.978-54.259-10.312,5.991,23.562,13.6-36.144,21-130.244-75.194,82.751-48.091,59.79,34.519-35.974,20.9-23.524-13.58-10.634,6.18,34.155,19.721,46.508-27.03,94.156,54.359,10.845-6.306-23.389-13.5,36.144-21,59.478,34.342Zm-82.948-34.665-23.562-13.6,12.524-7.278,93.983,54.259,80.973-47.058-57.25-33.056-33.937,19.717,23.393,13.5-13.057,7.589-94.155-54.359-46.512,27.03-36.378-21,12.846-7.47,23.523,13.584,33.762-19.621L3999.1-757.835l-80.542,46.8,128.017,73.911,33.931-19.721" transform="translate(-3916.342 759.122)"/></g><g transform="translate(915.73 365.7)"><path class="ah" d="M4354.235-638.629l-94.151-54.359-33.777,19.61,23.639,13.646-12.581,7.312-106.99-61.767,59.418-34.53,36.456,21.046-12.831,7.454-23.542-13.592-33.758,19.621,57.446,33.163,46.608-27.083,94.228,54.4,33.835-19.664-23.734-13.7,12.735-7.4L4413.9-673.3Zm-106.509-21.1-23.64-13.646,35.99-20.893,94.151,54.359,57.456-33.39-34.44-19.886-10.521,6.114,23.734,13.7-36.048,20.95-94.228-54.4-46.608,27.083L4153.9-714.192l35.972-20.9,23.545,13.592,10.617-6.172L4189.8-747.435l-57.2,33.247L4237.356-653.7l10.37-6.029" transform="translate(-4130.375 748.718)"/></g><g transform="translate(494.561 338.328)"><path class="ai" d="M4267.807-618.926l-93.977-54.259-10.333,6.007,23.562,13.6-36.123,20.993-130.224-75.186,82.732-48.076,59.786,34.519-35.971,20.9-23.542-13.592-10.639,6.183,34.154,19.717,46.533-27.041,94.149,54.359,10.851-6.3-23.389-13.5,36.139-21L4351-667.27Zm-82.967-34.649-23.562-13.6,12.542-7.289,93.979,54.259,80.977-47.062-57.253-33.056-33.933,19.721,23.389,13.5-13.057,7.589-94.151-54.359-46.532,27.041-36.377-21,12.846-7.466,23.542,13.592,33.762-19.617-57.562-33.236-80.52,46.793,128,73.9,33.912-19.706" transform="translate(-4020.711 755.845)"/></g><g transform="translate(1292.486 365.008)"><path class="aj" d="M4475.57-611.964l-93.976-54.259-10.317,5.991,23.562,13.6-36.14,21-130.225-75.182,82.752-48.091,59.786,34.519-35.97,20.9L4311.5-707.067l-10.636,6.183,34.152,19.717,46.514-27.029,94.149,54.359,10.847-6.306-23.389-13.5,36.143-21,59.483,34.342Zm-82.948-34.661-23.562-13.607,12.523-7.278,93.979,54.259,80.978-47.058-57.256-33.055-33.931,19.717,23.39,13.5-13.058,7.589-94.151-54.359-46.513,27.03-36.381-21,12.85-7.47,23.544,13.6,33.758-19.621-57.562-33.232-80.535,46.8,128,73.9,33.931-19.718" transform="translate(-4228.475 748.898)"/></g><g transform="translate(1315.914 378.492)"><path class="ak" d="M4458.435-635.3l-94.15-54.359L4330.5-670.047l23.638,13.646-12.578,7.312-106.989-61.767,59.416-34.53,36.458,21.046-12.831,7.455-23.543-13.592-33.759,19.621,57.448,33.167,46.6-27.087,94.232,54.4,33.833-19.664-23.733-13.7,12.731-7.4L4518.1-669.97Zm-106.51-21.1-23.638-13.646,35.99-20.892,94.15,54.359,57.454-33.39-34.441-19.886-10.518,6.114,23.729,13.7-36.046,20.95-94.229-54.4-46.605,27.083-59.673-34.45,35.97-20.9,23.542,13.592,10.619-6.172L4294-744.1l-57.206,33.247,104.764,60.485,10.368-6.03" transform="translate(-4234.575 745.387)"/></g><g transform="translate(892.302 352.216)"><path class="al" d="M4371.371-615.295l-93.977-54.26-10.313,5.991,23.563,13.6-36.144,21-130.225-75.183,82.75-48.091,59.787,34.518-35.971,20.9L4207.3-710.4l-10.638,6.179,34.154,19.721,46.512-27.03,94.151,54.359,10.849-6.306-23.391-13.5,36.144-21,59.481,34.342Zm-82.948-34.665-23.562-13.6,12.524-7.278,93.977,54.259,80.977-47.058-57.254-33.056-33.931,19.717,23.389,13.5-13.058,7.589-94.151-54.359-46.512,27.03-36.378-21,12.848-7.466,23.542,13.6L4264.6-717.71l-57.561-33.232-80.542,46.8,128,73.9,33.931-19.721" transform="translate(-4124.275 752.229)"/></g><g transform="translate(0 380.213)"><path class="am" d="M4139.053-607.993l-93.979-54.259-10.315,5.991,23.562,13.6-36.139,21-130.245-75.194,82.751-48.091,59.786,34.519-35.97,20.9L3974.98-703.1l-10.637,6.18L3998.5-677.2l46.512-27.03,94.151,54.359,10.846-6.306-23.39-13.5,36.144-21,59.481,34.342ZM4056.1-642.658l-23.562-13.6,12.523-7.278,93.979,54.259,80.977-47.058-57.254-33.056-33.931,19.717,23.389,13.5-13.058,7.589-94.151-54.359-46.512,27.03-36.378-21,12.827-7.455,23.523,13.58,33.777-19.629-57.56-33.232-80.538,46.8,128.017,73.911,33.933-19.721" transform="translate(-3891.937 744.939)"/></g><g transform="translate(23.428 393.697)"><path class="an" d="M4121.9-631.339l-94.15-54.359-33.758,19.621,23.638,13.645-12.582,7.312L3898.037-706.9l59.417-34.53,36.477,21.058-12.831,7.455-23.543-13.592L3923.8-706.886l57.427,33.155,46.609-27.087,94.248,54.413,33.835-19.664-23.736-13.7,12.736-7.4,36.647,21.157Zm-106.49-21.092-23.637-13.645,35.97-20.9,94.151,54.359,57.454-33.39-34.423-19.875-10.519,6.114,23.734,13.7-36.048,20.95-94.25-54.413-46.605,27.083L3921.58-706.89l35.969-20.9,23.544,13.6,10.618-6.172-34.25-19.775-57.2,33.248,104.781,60.492,10.37-6.026" transform="translate(-3898.037 741.428)"/></g><g transform="translate(400.814 392.799)"><path class="ao" d="M4243.417-604.743,4149.434-659,4139.1-653l23.562,13.6-36.144,21L3996.3-693.574l82.748-48.088,59.79,34.515-35.971,20.9-23.542-13.592-10.639,6.183,34.154,19.717,46.533-27.041,94.151,54.359,10.845-6.3-23.389-13.5,36.144-21,59.478,34.338Zm-82.968-34.649L4136.887-653l12.524-7.278,93.977,54.255,81-47.07-57.254-33.055L4233.2-666.422l23.389,13.5-13.058,7.589-94.151-54.359-46.532,27.041-36.381-21,12.85-7.466,23.543,13.592,33.757-19.622-57.561-33.232-80.542,46.8,128,73.9,33.931-19.717" transform="translate(-3996.3 741.662)"/></g><g transform="translate(424.222 406.256)"><path class="ap" d="M4226.276-628.046l-94.15-54.355-33.782,19.606,23.64,13.649-12.582,7.308L4002.4-703.616l59.437-34.542L4098.3-717.1l-12.827,7.455-23.542-13.592-33.758,19.617,57.427,33.155,46.586-27.075,94.25,54.416,33.855-19.675-23.736-13.7,12.732-7.4,36.669,21.169Zm-106.509-21.1-23.639-13.649,35.971-20.9,94.169,54.371,57.475-33.4L4249.3-682.612l-10.523,6.114,23.734,13.7-36.067,20.958L4132.2-696.25l-46.59,27.076-59.651-34.442,35.971-20.9,23.544,13.592,10.618-6.168-34.25-19.775-57.223,33.255,104.778,60.5,10.372-6.026" transform="translate(-4002.396 738.158)"/></g><g transform="translate(822.002 420.17)"><path class="aq" d="M4329.83-624.446l-94.154-54.359L4201.9-659.2l23.638,13.646-12.581,7.312L4105.97-700l59.416-34.53,36.455,21.046-12.828,7.454-23.542-13.592L4131.711-700l57.444,33.163,46.609-27.083,94.227,54.4,33.839-19.664-23.733-13.7,12.731-7.4,36.669,21.169Zm-106.509-21.1L4199.682-659.2l35.99-20.892,94.15,54.355,57.454-33.386L4352.835-679l-10.524,6.114,23.736,13.7L4330-638.237l-94.229-54.4-46.609,27.083-59.669-34.453,35.969-20.9,23.542,13.6,10.619-6.172-34.23-19.763-57.209,33.244,104.764,60.484,10.372-6.026" transform="translate(-4105.97 734.535)"/></g><g transform="translate(1198.757 419.479)"><path class="ar" d="M4451.163-597.781l-93.978-54.259-10.312,5.991,23.563,13.6-36.144,21L4204.07-686.624l82.749-48.091L4346.6-700.2l-35.971,20.9-23.542-13.592-10.634,6.183,34.151,19.717,46.512-27.03,94.155,54.359,10.846-6.306-23.39-13.5,36.144-21,59.478,34.342Zm-82.948-34.664-23.562-13.6,12.524-7.278,93.977,54.259,80.979-47.058-57.255-33.055-33.931,19.717,23.391,13.5-13.058,7.589-94.154-54.359-46.513,27.03-36.378-21,12.848-7.47,23.542,13.6,33.763-19.622-57.562-33.232-80.541,46.8,128,73.9,33.931-19.721" transform="translate(-4204.07 734.715)"/></g><g transform="translate(1222.185 432.963)"><path class="as" d="M4434.03-621.115l-94.153-54.359-33.777,19.61,23.638,13.645-12.582,7.312L4210.17-696.674l59.418-34.53,36.452,21.046-12.826,7.455-23.541-13.592-33.764,19.621,57.447,33.163,46.607-27.083,94.228,54.4,33.837-19.663-23.736-13.7,12.735-7.4,36.667,21.169Zm-106.512-21.1-23.64-13.645,35.99-20.893,94.155,54.359,57.454-33.39-34.441-19.886-10.524,6.114,23.735,13.7-36.049,20.95-94.228-54.4-46.608,27.083-59.671-34.45,35.973-20.9,23.542,13.592,10.615-6.172L4269.6-729.921l-57.21,33.247,104.762,60.48,10.371-6.026" transform="translate(-4210.17 731.204)"/></g><g transform="translate(798.574 406.686)"><path class="at" d="M4346.965-601.112l-93.982-54.259-10.311,5.991,23.562,13.6-36.144,21L4099.87-689.955l82.748-48.091,59.79,34.519-35.969,20.9-23.545-13.592-10.637,6.18,34.154,19.721,46.513-27.03,94.15,54.359,10.846-6.306-23.389-13.5,36.143-21,59.48,34.342Zm-82.948-34.665-23.564-13.6,12.522-7.278,93.984,54.259,80.977-47.058-57.255-33.056-33.931,19.717,23.39,13.5-13.059,7.589-94.154-54.359-46.509,27.03-36.381-21,12.831-7.455L4206.41-683.9l33.777-19.629-57.562-33.232-80.54,46.8,128,73.9,33.935-19.721" transform="translate(-4099.87 738.046)"/></g><g transform="translate(330.413 460.649)"><path class="au" d="M4201.831-613.906l-94.151-54.359-33.758,19.621,23.638,13.649-12.582,7.308-107.009-61.779,59.417-34.53,36.478,21.058-12.812,7.447-23.543-13.6-33.757,19.621,57.426,33.155,46.59-27.076,94.246,54.416,33.855-19.675-23.736-13.7,12.717-7.389,36.646,21.158ZM4095.34-634.994,4071.7-648.644l35.971-20.9,94.151,54.359,57.454-33.39-34.42-19.875-10.5,6.107,23.734,13.7-36.065,20.958L4107.776-682.1l-46.59,27.076-59.654-34.442,35.956-20.892,23.541,13.591,10.617-6.172-34.25-19.771-57.206,33.244,104.782,60.5,10.368-6.026" transform="translate(-3977.969 723.995)"/></g><g transform="translate(705.986 460.503)"><path class="av" d="M4322.839-587.1l-93.979-54.255-10.315,5.991,23.566,13.6-36.126,20.992-130.225-75.182,82.734-48.08,59.786,34.519-35.972,20.9L4158.767-682.2l-10.637,6.179,34.154,19.717,46.531-27.041,94.15,54.359,10.847-6.3-23.39-13.5,36.144-21,59.482,34.342Zm-82.948-34.661-23.563-13.6,12.524-7.278,93.979,54.259,81-47.07-57.255-33.056-33.931,19.717,23.388,13.5-13.057,7.589-94.149-54.359-46.532,27.042-36.378-21,12.847-7.466L4182.3-669.9l33.759-19.617L4158.5-722.746l-80.536,46.8,128,73.9,33.931-19.717" transform="translate(-4075.761 724.033)"/></g><g transform="translate(729.394 473.972)"><path class="aw" d="M4305.718-610.422l-94.151-54.359-33.781,19.606,23.644,13.649-12.583,7.312-106.99-61.771,59.438-34.542,36.458,21.05-12.833,7.454-23.542-13.592L4107.619-686l57.447,33.167,46.586-27.072,94.231,54.4,33.854-19.675L4316-658.878l12.736-7.4,36.665,21.173Zm-106.509-21.1-23.64-13.649,35.99-20.893,94.151,54.359,57.473-33.4-34.441-19.886-10.521,6.114,23.734,13.7-36.066,20.962-94.232-54.405-46.585,27.076L4105.4-686l35.971-20.9,23.541,13.6,10.621-6.172L4141.3-719.239l-57.223,33.255L4188.838-625.5l10.371-6.026" transform="translate(-4081.856 720.526)"/></g><g transform="translate(306.986 447.169)"><path class="ax" d="M4218.985-590.563l-93.978-54.259-10.312,5.991,23.562,13.607-36.144,21-130.243-75.2,82.752-48.087,59.785,34.515-35.971,20.9-23.523-13.58-10.638,6.183,34.154,19.717,46.513-27.03,94.151,54.359,10.849-6.306-23.393-13.5,36.163-21.015,59.481,34.342Zm-82.948-34.661-23.562-13.6L4125-646.109l93.979,54.259,81-47.07-57.254-33.055-33.95,19.729,23.388,13.5-13.059,7.589-94.168-54.367-46.513,27.03-36.359-20.993,12.846-7.466,23.523,13.58,33.763-19.621-57.563-33.232-80.539,46.8,128.017,73.911,33.931-19.717" transform="translate(-3971.87 727.505)"/></g><g transform="translate(1128.986 487.122)"><path class="ay" d="M4409.764-607.013l-94.151-54.359-33.781,19.61,23.64,13.649-12.577,7.309L4185.9-682.572l59.417-34.53,36.459,21.046-12.832,7.458-23.542-13.6-33.758,19.621,57.446,33.167,46.605-27.087,94.231,54.405,33.854-19.675-23.733-13.7,12.712-7.389,36.669,21.169Zm-106.509-21.1-23.637-13.645,35.988-20.893,94.151,54.359,57.454-33.39-34.441-19.886-10.5,6.107,23.736,13.7L4409.933-620.8l-94.227-54.4L4269.1-648.122l-59.671-34.45,35.971-20.9,23.542,13.592,10.62-6.172-34.231-19.763-57.2,33.248,104.762,60.484,10.369-6.03" transform="translate(-4185.903 717.102)"/></g><g transform="translate(1105.56 473.638)"><path class="az" d="M4426.9-583.679l-93.979-54.259-10.316,5.995,23.563,13.6-36.14,21L4179.8-672.522l82.752-48.091,59.785,34.518-35.971,20.9-23.542-13.592-10.639,6.183,34.154,19.717,46.512-27.03,94.151,54.359,10.847-6.306-23.391-13.5,36.163-21.016,59.48,34.342Zm-82.949-34.661-23.56-13.6,12.523-7.282,93.978,54.259,81-47.069-57.255-33.055-33.95,19.729,23.389,13.5-13.058,7.589-94.149-54.359-46.515,27.033-36.38-21,12.85-7.466,23.542,13.592,33.758-19.621-57.562-33.232-80.536,46.8,128,73.9,33.931-19.717" transform="translate(-4179.803 720.613)"/></g><g transform="translate(213.258 501.639)"><path class="ba" d="M4194.58-576.38,4100.6-630.639l-10.312,5.991,23.563,13.607-36.144,21-130.24-75.194,82.748-48.087L4090-678.807l-35.972,20.9-23.527-13.58L4019.87-665.3l34.154,19.717,46.512-27.03,94.151,54.359,10.845-6.306-23.389-13.5,36.163-21.015,59.479,34.342Zm-82.948-34.661-23.565-13.607,12.523-7.278,93.982,54.259,81-47.07-57.254-33.055-33.95,19.729,23.388,13.5-13.058,7.589-94.173-54.37-46.509,27.033L4017.65-665.3l12.85-7.47,23.524,13.584,33.758-19.621-57.562-33.232-80.54,46.8L4077.7-591.324l33.935-19.717" transform="translate(-3947.465 713.322)"/></g><g transform="translate(236.684 515.12)"><path class="bb" d="M4177.426-599.723l-94.155-54.359-33.758,19.621,23.639,13.646L4060.57-613.5l-107.005-61.779,59.416-34.531,36.474,21.058-12.827,7.455-23.542-13.592-33.759,19.621,57.424,33.155L4083.36-669.2l94.245,54.417,33.859-19.675-23.734-13.7,12.711-7.389,36.65,21.158Zm-106.49-21.092-23.64-13.646,35.971-20.9,94.151,54.359,57.454-33.39-34.421-19.875-10.505,6.106,23.734,13.7L4177.614-613.5l-94.248-54.413-46.608,27.083-59.651-34.438,35.971-20.9,23.542,13.592,10.619-6.172-34.25-19.775-57.208,33.248,104.781,60.5,10.374-6.03" transform="translate(-3953.565 709.812)"/></g><g transform="translate(635.666 528.442)"><path class="bc" d="M4281.314-596.239,4187.159-650.6l-33.778,19.606,23.638,13.649-12.581,7.312L4057.452-671.8l59.436-34.542,36.454,21.05-12.827,7.454-23.542-13.592-33.763,19.618,57.448,33.167,46.588-27.072,94.229,54.4,33.854-19.675-23.734-13.7,12.734-7.4,36.666,21.169Zm-106.515-21.1-23.638-13.649,35.989-20.892,94.154,54.359,57.475-33.4-34.442-19.882-10.522,6.114,23.733,13.7-36.066,20.962-94.228-54.405-46.59,27.076-59.669-34.453,35.971-20.9,23.541,13.6,10.621-6.172L4116.9-705.056,4059.667-671.8l104.762,60.485,10.371-6.026" transform="translate(-4057.452 706.343)"/></g><g transform="translate(1035.259 541.592)"><path class="bd" d="M4385.355-592.83,4291.2-647.189l-33.777,19.61,23.637,13.645-12.581,7.313L4161.5-668.389l59.417-34.53,36.454,21.046-12.827,7.455L4221-688.01l-33.762,19.621,57.446,33.167,46.608-27.087,94.228,54.4,33.854-19.671-23.736-13.7,12.717-7.389,36.666,21.169Zm-106.509-21.1-23.64-13.645,35.99-20.893,94.155,54.359,57.454-33.389-34.442-19.886-10.5,6.107,23.736,13.7-36.067,20.958-94.229-54.4-46.608,27.083-59.674-34.45,35.973-20.9,23.543,13.592,10.614-6.172-34.226-19.763-57.208,33.248,104.76,60.484,10.371-6.03" transform="translate(-4161.498 702.919)"/></g><g transform="translate(612.239 514.974)"><path class="be" d="M4298.462-572.931l-93.976-54.255-10.332,6,23.562,13.6-36.143,21-130.221-75.186L4134.1-709.85l59.786,34.519-35.971,20.9-23.542-13.592-10.634,6.18,34.154,19.717,46.527-27.041,94.155,54.359,10.845-6.3-23.389-13.5,36.144-21,59.479,34.342ZM4215.5-607.58l-23.562-13.6,12.523-7.278L4298.44-574.2l80.993-47.069-57.254-33.055-33.931,19.718,23.392,13.5-13.058,7.589-94.155-54.359L4157.9-640.836l-36.378-21,12.848-7.466,23.545,13.592,33.759-19.617-57.562-33.232-80.54,46.8,128,73.9L4215.5-607.58" transform="translate(-4051.352 709.85)"/></g><g transform="translate(1011.827 528.108)"><path class="bf" d="M4402.492-569.5l-93.977-54.259-10.312,5.991,23.562,13.607-36.143,21L4155.4-658.339l82.752-48.091,59.787,34.518-35.972,20.9L4238.422-664.6l-10.634,6.183,34.15,19.717,46.512-27.029,94.155,54.359,10.845-6.306-23.389-13.5,36.159-21.015,59.481,34.342Zm-82.946-34.661-23.563-13.607,12.524-7.278,93.977,54.259,81-47.07-57.255-33.055-33.95,19.729,23.389,13.5-13.058,7.589-94.151-54.359-46.512,27.029-36.378-21,12.848-7.47,23.542,13.6,33.762-19.621-57.563-33.232-80.539,46.8,128,73.9,33.931-19.717" transform="translate(-4155.396 706.43)"/></g><g transform="translate(518.43 569.356)"><path class="bg" d="M4274.021-558.759l-93.978-54.259-10.316,5.995,23.562,13.6-36.139,21L4026.926-647.6l82.752-48.087,59.786,34.519-35.971,20.9-23.542-13.6-10.639,6.183,34.154,19.717,46.513-27.03,94.15,54.359,10.846-6.3-23.388-13.5,36.162-21.015,59.483,34.342Zm-82.948-34.661-23.562-13.6,12.524-7.278,93.977,54.259,81-47.07-57.256-33.059-33.95,19.733,23.39,13.5-13.059,7.589-94.15-54.359-46.513,27.03-36.377-21,12.846-7.466,23.542,13.592,33.758-19.618-57.562-33.236-80.537,46.8,128,73.9,33.931-19.717" transform="translate(-4026.926 695.69)"/></g><g transform="translate(541.857 582.836)"><path class="bh" d="M4256.887-582.087l-94.15-54.359-33.782,19.606,23.643,13.649-12.581,7.312-106.99-61.771,59.417-34.53,36.457,21.05-12.831,7.454-23.542-13.592-33.758,19.617,57.427,33.155,46.6-27.083,94.251,54.413,33.854-19.675-23.734-13.7,12.717-7.389,36.665,21.169Zm-106.51-21.1-23.638-13.649,35.99-20.893,94.149,54.359,57.454-33.39-34.44-19.882-10.5,6.1,23.734,13.7-36.067,20.958-94.228-54.4-46.6,27.087-59.675-34.453,35.971-20.9,23.543,13.592,10.619-6.168-34.231-19.763-57.2,33.244,104.761,60.485,10.369-6.026" transform="translate(-4033.026 692.18)"/></g><g transform="translate(942.651 595.398)"><path class="bi" d="M4361.267-578.82l-94.155-54.359-33.776,19.61,23.637,13.645-12.6,7.324-106.986-61.771,59.436-34.538,36.455,21.046-12.827,7.455L4196.905-674l-33.762,19.617,57.446,33.167L4267.2-648.3l94.228,54.4,33.84-19.664-23.735-13.7,12.73-7.4,36.67,21.169Zm-106.516-21.1-23.633-13.645,35.989-20.893,94.149,54.355,57.456-33.386-34.443-19.886-10.521,6.114,23.733,13.7-36.047,20.95-94.228-54.4L4220.6-619.929l-59.67-34.453,35.97-20.9,23.545,13.6,10.616-6.172-34.23-19.763L4139.6-654.371l104.764,60.485,10.387-6.037" transform="translate(-4137.385 688.909)"/></g><g transform="translate(919.244 581.926)"><path class="bj" d="M4378.386-555.494,4284.4-609.753l-10.312,5.991,23.561,13.6-36.144,21L4131.29-644.337l82.729-48.08,59.789,34.519-35.969,20.9-23.543-13.592-10.618,6.172,34.152,19.717,46.515-27.03,94.151,54.355,10.845-6.3-23.389-13.5,36.141-21,59.48,34.342Zm-82.949-34.665-23.564-13.6,12.528-7.278,93.977,54.259,80.977-47.058L4402.1-636.894l-33.931,19.717,23.387,13.5-13.056,7.589-94.151-54.359-46.513,27.029-36.381-21,12.83-7.458,23.542,13.592,33.758-19.618-57.561-33.232-80.52,46.793,128,73.9,33.935-19.721" transform="translate(-4131.29 692.417)"/></g><g transform="translate(448.129 637.306)"><path class="bk" d="M4232.477-567.9l-94.15-54.359-33.777,19.606,23.637,13.649-12.581,7.313L4008.62-643.467,4068.037-678l36.455,21.05-12.828,7.454-23.542-13.592-33.762,19.618,57.427,33.155L4138.4-637.4l94.246,54.417,33.835-19.664-23.735-13.7,12.736-7.4,36.665,21.169Zm-106.509-21.1-23.638-13.649,35.99-20.893,94.154,54.359,57.454-33.389-34.441-19.883-10.523,6.114,23.734,13.7L4232.651-581.7l-94.228-54.4-46.609,27.088-59.669-34.454,35.97-20.9,23.542,13.592,10.616-6.172-34.227-19.759-57.208,33.244L4115.6-582.982l10.369-6.026" transform="translate(-4008.62 677.997)"/></g><g transform="translate(848.92 649.869)"><path class="bl" d="M4336.858-564.637,4242.708-619l-33.777,19.61,23.64,13.645-12.6,7.324-106.99-61.771,59.436-34.538,36.459,21.046-12.832,7.455L4172.5-659.817,4138.741-640.2l57.446,33.167,46.608-27.083,94.228,54.4,33.835-19.664-23.735-13.7,12.736-7.4,36.665,21.169Zm-106.509-21.1-23.64-13.645,35.99-20.893,94.151,54.355,57.454-33.386L4359.868-619.2l-10.524,6.114,23.736,13.7-36.047,20.95L4242.8-632.833,4196.2-605.746,4136.521-640.2l35.971-20.9,23.542,13.6,10.619-6.172-34.231-19.763L4115.2-640.188,4219.96-579.7l10.389-6.037" transform="translate(-4112.979 674.726)"/></g><g transform="translate(825.511 636.396)"><path class="bm" d="M4353.981-541.311,4260-595.57l-10.312,5.991,23.563,13.6-36.144,21-130.226-75.183,82.732-48.08,59.787,34.519-35.971,20.9L4189.89-636.4l-10.62,6.168,34.154,19.721,46.512-27.029,94.151,54.355,10.846-6.3-23.39-13.5,36.144-21,59.482,34.342Zm-82.949-34.665-23.56-13.6L4260-596.857l93.978,54.259,80.978-47.058L4377.7-622.711l-33.931,19.717,23.389,13.5L4354.1-581.9l-94.151-54.359-46.512,27.029-36.378-21,12.828-7.454,23.542,13.592,33.762-19.617-57.561-33.232L4109.1-630.154l128,73.9,33.931-19.721" transform="translate(-4106.883 678.234)"/></g><g transform="translate(731.688 690.778)"><path class="bn" d="M4329.564-527.155l-93.977-54.255-10.331,6,23.562,13.6-36.144,21-130.221-75.186,82.748-48.087,59.79,34.519-35.969,20.9-23.547-13.592-10.635,6.179,34.154,19.717,46.532-27.041,94.151,54.359,10.845-6.3-23.388-13.5,36.144-21,59.477,34.342ZM4246.6-561.8l-23.561-13.6,12.522-7.278,93.983,54.259,80.992-47.069-57.25-33.056-33.931,19.718,23.389,13.5-13.058,7.589L4235.529-622.1,4189-595.06l-36.381-21,12.85-7.466,23.543,13.592,33.758-19.617-57.563-33.232-80.539,46.8,128,73.9L4246.6-561.8" transform="translate(-4082.453 664.074)"/></g><g transform="translate(755.096 704.239)"><path class="bo" d="M4312.428-550.457l-94.153-54.359L4184.5-585.21l23.639,13.649-12.581,7.312L4088.55-626.031l59.435-34.538,36.475,21.057-12.827,7.455-23.545-13.592-33.761,19.618,57.428,33.155,46.59-27.072,94.246,54.413,33.855-19.675-23.734-13.7,12.734-7.4,36.665,21.169Zm-106.513-21.1-23.639-13.649,35.974-20.9,94.171,54.371,57.475-33.4-34.442-19.882-10.523,6.114,23.733,13.7L4312.6-564.249l-94.247-54.416-46.591,27.076-59.649-34.442,35.969-20.9,23.544,13.592,10.618-6.168-34.229-19.763-57.229,33.255,104.763,60.485,10.368-6.026" transform="translate(-4088.55 660.569)"/></g><g transform="translate(661.363 758.705)"><path class="bp" d="M4288.023-536.271l-94.151-54.359-33.777,19.606,23.638,13.649-12.581,7.312-107.009-61.783,59.435-34.542,36.478,21.061-12.832,7.455-23.542-13.592-33.758,19.617,57.428,33.155,46.589-27.072,94.246,54.413,33.854-19.675-23.733-13.7,12.714-7.389,36.668,21.169Zm-106.509-21.1-23.638-13.649,35.969-20.9,94.171,54.37,57.454-33.39-34.443-19.882-10.5,6.1,23.734,13.7-36.067,20.961-94.25-54.416L4147.358-577.4,4087.7-611.845l35.969-20.9,23.542,13.592,10.621-6.168L4123.6-645.089l-57.224,33.255,104.762,60.485,10.371-6.026" transform="translate(-4064.143 646.387)"/></g></g><g transform="translate(637.956 745.248)"><path class="bq" d="M4305.144-512.961l-93.979-54.259-10.312,5.995,23.563,13.6-36.144,21L4058.048-601.8l82.75-48.087,59.786,34.519-35.971,20.9-23.542-13.591-10.639,6.179,34.155,19.717,46.512-27.03,94.151,54.359,10.866-6.314-23.392-13.5,36.145-21,59.482,34.342ZM4222.2-547.621l-23.562-13.6,12.523-7.278,93.977,54.259,81-47.07-57.255-33.059-33.949,19.733,23.387,13.5-13.056,7.589-94.151-54.359-46.513,27.029-36.377-21,12.846-7.466,23.542,13.592,33.759-19.618L4140.807-648.6l-80.539,46.8,128,73.9,33.931-19.717" transform="translate(-4058.048 649.891)"/></g></g></g></g><g transform="translate(4336.949 -335.549)"><path class="br" d="M4083.587-676.874l-.134.081-.99-.572.373-.215a.578.578,0,0,1,.629-.031c.17.1.119.207.019.3l.7.088-.154.088-.68-.1-.184.108Zm-.544-.315.183-.108.069-.238-.356.05-.2.119.308.177" transform="translate(-4082.462 677.691)"/></g><path class="b" d="M4098.479-680.7a3.816,3.816,0,0,0,1.118-.926l-5.649-1.709-.032.019,2.919,3.276A6.769,6.769,0,0,0,4098.479-680.7Z" transform="translate(287.026 326.117)"/><path class="b" d="M4090.133-680.84l-.008,0a21.057,21.057,0,0,1,6.091-2.2A20.973,20.973,0,0,0,4090.133-680.84Z" transform="translate(276.257 326.966)"/><path class="b" d="M4097.827-685.89a9.5,9.5,0,0,1,1.605.714A9.5,9.5,0,0,0,4097.827-685.89Z" transform="translate(298.132 318.851)"/><path class="b" d="M4089.818-681l.035.019-.084-.061C4089.792-681.032,4089.8-681.013,4089.818-681Z" transform="translate(275.243 332.616)"/><path class="b" d="M4102.685-683.415a2.5,2.5,0,0,0-2.309,0c-.642.373-.656.972-.008,1.348a2.536,2.536,0,0,0,2.342,0C4103.353-682.443,4103.367-683.023,4102.685-683.415Zm.091.895-1.14-.15-.288.169.7.4-.234.138-1.622-.937.611-.353a.979.979,0,0,1,1.052-.077c.29.165.223.361.019.522l1.172.127Z" transform="translate(303.99 325.079)"/><path class="b" d="M4100.429-683.442l-.342.2.5.284.288-.165c.219-.131.388-.25.135-.4A.552.552,0,0,0,4100.429-683.442Z" transform="translate(304.552 325.421)"/><path class="b" d="M4089.528-681.241l-.027-.046Z" transform="translate(274.481 331.926)"/><g class="bs" transform="translate(4237.702 -650.529)"><path class="bt" d="M4310.5-734.438c58.341,33.685,58.648,88.3.687,121.987s-152.265,33.689-210.607.008-58.656-88.309-.683-122C4157.857-768.127,4252.154-768.127,4310.5-734.438Z" transform="translate(-4056.62 759.705)"/></g><g transform="translate(4264.002 -636.253)"><path class="bt" d="M4269.546-735.479c47.357,27.341,47.607,71.676.557,99.017s-123.592,27.345-170.95,0-47.611-71.68-.556-99.024S4222.185-762.824,4269.546-735.479Z" transform="translate(-4063.468 755.988)"/></g><g transform="translate(4307.688 -615.341)"><path class="bu" d="M4215.617-714.711l-13.818,37.6-64.894,8.142-45.561-26.3,47.872-27.821c6.7-3.157,16.772-2.984,23.052.638,3.283,1.9,4.961,4.363,5.046,6.84,4.574.154,8.315.649,11.844,2.688,6.5,3.752,7.831,10.25,2.282,14.214l-24.871,14.483L4131.483-698.8l24.046-13.972.341-.227c1.286-1.4.883-3.1-1.175-4.29a9.076,9.076,0,0,0-7.286-.369l-39.172,22.763,32.563,18.8,50.872-6.614,11.662-29.729-49.727-28.708-70.624,41.04-8.141-4.7,78.711-45.741Zm-52.187,7.12-15.718,9.133,8.361,4.828,15.935-9.26.169-.158c1.359-1.471,1.375-3.073-.784-4.317a9.537,9.537,0,0,0-7.6-.384l-.363.157" transform="translate(-4074.843 750.543)"/></g></g></g></svg>