<svg xmlns="http://www.w3.org/2000/svg" width="104.13" height="87" viewBox="0 0 104.13 87"><defs><style>.a{fill:#d6d6d6;}.b{fill:#fff;}</style></defs><g transform="translate(-1288.87 -2586)"><path class="a" d="M-882.647,553.268h-14.918v-7.853h15.192a3.977,3.977,0,0,1,3.071,4.713,3.977,3.977,0,0,1-3.071,3.071Zm8.2-12.552a11.353,11.353,0,0,0,3.224-7.922,11.558,11.558,0,0,0-10.289-11.386h-45.406v42.834l37.244,24.007,37.278-24.007v-58.3h-74.522v7.647h66.874V560.3l-29.836,18.656L-919.274,560.3V529.674h37.107a3.84,3.84,0,0,1,3.155,3.738A4.182,4.182,0,0,1-882,537.458H-905.11v23.7h23.594a12.757,12.757,0,0,0,10.528-12.62,10.049,10.049,0,0,0-3.429-7.648Z" transform="translate(2215.791 2080.058)"/><g transform="translate(1112 258)"><circle class="a" cx="24.5" cy="24.5" r="24.5" transform="translate(232 2366)"/><g transform="translate(246.775 2380.776)"><path class="b" d="M37.032,20.072,34.16,17.2l-7.044,7.044L20.072,17.2,17.2,20.072l7.044,7.044L17.2,34.16l2.872,2.872,7.044-7.044,7.044,7.044,2.872-2.872-7.044-7.044Z" transform="translate(-17.2 -17.2)"/></g></g></g></svg>