<svg xmlns="http://www.w3.org/2000/svg" width="108.261" height="87" viewBox="0 0 108.261 87"><defs><style>.a{fill:#00c1de;}.b{fill:none;stroke:#fff;stroke-linecap:round;stroke-width:5px;}</style></defs><g transform="translate(-536.739 -2608)"><path class="a" d="M-882.647,553.268h-14.918v-7.853h15.192a3.977,3.977,0,0,1,3.071,4.713,3.977,3.977,0,0,1-3.071,3.071Zm8.2-12.552a11.353,11.353,0,0,0,3.224-7.922,11.558,11.558,0,0,0-10.289-11.386h-45.406v42.834l37.244,24.007,37.278-24.007v-58.3h-74.522v7.647h66.874V560.3l-29.836,18.656L-919.274,560.3V529.674h37.107a3.84,3.84,0,0,1,3.155,3.738A4.182,4.182,0,0,1-882,537.458H-905.11v23.7h23.594a12.757,12.757,0,0,0,10.528-12.62,10.049,10.049,0,0,0-3.429-7.648Z" transform="translate(1463.66 2102.058)"/><g transform="translate(364 563.334)"><g transform="translate(232 2082.32)"><circle class="a" cx="24.5" cy="24.5" r="24.5" transform="translate(0 0.345)"/><path class="b" d="M7035.064,2161.065l5.115,5.115,17.665-17.666" transform="translate(-7021.676 -2132.78)"/></g></g></g></svg>